  0
SECTION
  2
HEADER
  9
$ACADVER
  1
AC1009
  9
$INSBASE
 10
0.0
 20
0.0
 30
0.0
  9
$EXTMIN
 10
0.0
 20
-350.0
 30
0.0
  9
$EXTMAX
 10
900.0
 20
100.0
 30
50.0
  9
$LIMMIN
 10
0.0
 20
0.0
  9
$LIMMAX
 10
420.0
 20
297.0
  9
$ORTHOMODE
 70
     0
  9
$REGENMODE
 70
     1
  9
$FILLMODE
 70
     1
  9
$QTEXTMODE
 70
     0
  9
$MIRRTEXT
 70
     0
  9
$DRAGMODE
 70
     2
  9
$LTSCALE
 40
1.0
  9
$OSMODE
 70
    37
  9
$ATTMODE
 70
     1
  9
$TEXTSIZE
 40
7.5
  9
$TRACEWID
 40
1.0
  9
$TEXTSTYLE
  7
MYTEXTSTYLE
  9
$CLAYER
  8
0
  9
$CELTYPE
  6
BYLAYER
  9
$CECOLOR
 62
   256
  9
$DIMSCALE
 40
1.0
  9
$DIMASZ
 40
2.5
  9
$DIMEXO
 40
0.625
  9
$DIMDLI
 40
3.75
  9
$DIMRND
 40
0.0
  9
$DIMDLE
 40
0.0
  9
$DIMEXE
 40
1.25
  9
$DIMTP
 40
0.0
  9
$DIMTM
 40
0.0
  9
$DIMTXT
 40
2.5
  9
$DIMCEN
 40
2.5
  9
$DIMTSZ
 40
0.0
  9
$DIMTOL
 70
     0
  9
$DIMLIM
 70
     0
  9
$DIMTIH
 70
     0
  9
$DIMTOH
 70
     0
  9
$DIMSE1
 70
     0
  9
$DIMSE2
 70
     0
  9
$DIMTAD
 70
     1
  9
$DIMZIN
 70
     8
  9
$DIMBLK
  1

  9
$DIMASO
 70
     1
  9
$DIMSHO
 70
     1
  9
$DIMPOST
  1

  9
$DIMAPOST
  1

  9
$DIMALT
 70
     0
  9
$DIMALTD
 70
     3
  9
$DIMALTF
 40
0.03937007874016
  9
$DIMLFAC
 40
1.0
  9
$DIMTOFL
 70
     1
  9
$DIMTVP
 40
0.0
  9
$DIMTIX
 70
     0
  9
$DIMSOXD
 70
     0
  9
$DIMSAH
 70
     0
  9
$DIMBLK1
  1

  9
$DIMBLK2
  1

  9
$DIMSTYLE
  2
ISO-25
  9
$DIMCLRD
 70
     0
  9
$DIMCLRE
 70
     0
  9
$DIMCLRT
 70
     0
  9
$DIMTFAC
 40
1.0
  9
$DIMGAP
 40
0.625
  9
$LUNITS
 70
     2
  9
$LUPREC
 70
     4
  9
$SKETCHINC
 40
1.0
  9
$FILLETRAD
 40
0.0
  9
$AUNITS
 70
     0
  9
$AUPREC
 70
     0
  9
$MENU
  1
.
  9
$ELEVATION
 40
0.0
  9
$PELEVATION
 40
0.0
  9
$THICKNESS
 40
0.0
  9
$LIMCHECK
 70
     0
  9
$BLIPMODE
 70
     0
  9
$CHAMFERA
 40
0.0
  9
$CHAMFERB
 40
0.0
  9
$SKPOLY
 70
     0
  9
$TDCREATE
 40
2456329.4653009260073304
  9
$TDUPDATE
 40
2460980.648819443769753
  9
$TDINDWG
 40
0.0501992245
  9
$TDUSRTIMER
 40
0.050190081
  9
$USRTIMER
 70
     1
  9
$ANGBASE
 50
0.0
  9
$ANGDIR
 70
     0
  9
$PDMODE
 70
    66
  9
$PDSIZE
 40
0.0
  9
$PLINEWID
 40
0.0
  9
$COORDS
 70
     1
  9
$SPLFRAME
 70
     0
  9
$SPLINETYPE
 70
     6
  9
$SPLINESEGS
 70
     8
  9
$ATTDIA
 70
     1
  9
$ATTREQ
 70
     1
  9
$HANDLING
 70
     1
  9
$HANDSEED
  5
7B8
  9
$SURFTAB1
 70
     6
  9
$SURFTAB2
 70
     6
  9
$SURFTYPE
 70
     6
  9
$SURFU
 70
     6
  9
$SURFV
 70
     6
  9
$UCSNAME
  2

  9
$UCSORG
 10
0.0
 20
0.0
 30
0.0
  9
$UCSXDIR
 10
1.0
 20
0.0
 30
0.0
  9
$UCSYDIR
 10
0.0
 20
1.0
 30
0.0
  9
$PUCSNAME
  2

  9
$PUCSORG
 10
0.0
 20
0.0
 30
0.0
  9
$PUCSXDIR
 10
1.0
 20
0.0
 30
0.0
  9
$PUCSYDIR
 10
0.0
 20
1.0
 30
0.0
  9
$USERI1
 70
     0
  9
$USERI2
 70
     0
  9
$USERI3
 70
     0
  9
$USERI4
 70
     0
  9
$USERI5
 70
     0
  9
$USERR1
 40
0.0
  9
$USERR2
 40
0.0
  9
$USERR3
 40
0.0
  9
$USERR4
 40
0.0
  9
$USERR5
 40
0.0
  9
$WORLDVIEW
 70
     1
  9
$SHADEDGE
 70
     3
  9
$SHADEDIF
 70
    70
  9
$TILEMODE
 70
     1
  9
$MAXACTVP
 70
    64
  9
$PLIMCHECK
 70
     0
  9
$PEXTMIN
 10
0.0
 20
0.0
 30
0.0
  9
$PEXTMAX
 10
0.0
 20
0.0
 30
0.0
  9
$PLIMMIN
 10
0.0
 20
0.0
  9
$PLIMMAX
 10
12.0
 20
9.0
  9
$UNITMODE
 70
     0
  9
$VISRETAIN
 70
     1
  9
$PLINEGEN
 70
     0
  9
$PSLTSCALE
 70
     1
  0
ENDSEC
  0
SECTION
  2
TABLES
  0
TABLE
  2
VPORT
 70
     1
  0
VPORT
  2
*ACTIVE
 70
     0
 10
0.0
 20
0.0
 11
1.0
 21
1.0
 12
-92.0896879053383373
 22
-114.7130277664646059
 13
0.0
 23
0.0
 14
10.0
 24
10.0
 15
10.0
 25
10.0
 16
-0.0000000000005684
 26
0.0
 36
2682.9049774671179875
 17
500.0
 27
0.0
 37
25.0
 40
555.6557224432275461
 41
2.5563002680965141
 42
50.0
 43
0.0
 44
0.0
 50
0.0
 51
0.0
 71
     0
 72
  1000
 73
     1
 74
     3
 75
     0
 76
     1
 77
     0
 78
     0
  0
ENDTAB
  0
TABLE
  2
LTYPE
 70
     2
  0
LTYPE
  2
CONTINUOUS
 70
     0
  3
Solid line
 72
    65
 73
     0
 40
0.0
  0
LTYPE
  2
DASHED
 70
     0
  3
Dashed __ __ __ __ __ __ __ __ __ __ __ __ __ _
 72
    65
 73
     2
 40
19.0500000000000007
 49
12.6999999999999993
 49
-6.349999999999997
  0
ENDTAB
  0
TABLE
  2
LAYER
 70
     6
  0
LAYER
  2
0
 70
     0
 62
     7
  6
CONTINUOUS
  0
LAYER
  2
DEFPOINTS
 70
     0
 62
     7
  6
CONTINUOUS
  0
LAYER
  2
LAYER1
 70
     0
 62
    40
  6
CONTINUOUS
  0
LAYER
  2
LAYER2
 70
     0
 62
    65
  6
CONTINUOUS
  0
LAYER
  2
ENTITYPROPERTIES
 70
     0
 62
   161
  6
CONTINUOUS
  0
LAYER
  2
GROUPS
 70
     0
 62
   132
  6
CONTINUOUS
  0
ENDTAB
  0
TABLE
  2
STYLE
 70
     3
  0
STYLE
  2
STANDARD
 70
     0
 40
0.0
 41
1.0
 50
0.0
 71
     0
 42
7.5
  3
simplex.shx
  4

  0
STYLE
  2

 70
     1
 40
0.0
 41
1.0
 50
0.0
 71
     0
 42
7.5
  3
ltypeshp.shx
  4

  0
STYLE
  2
MYTEXTSTYLE
 70
     0
 40
0.0
 41
1.0
 50
0.0
 71
     0
 42
7.5
  3
txt
  4

  0
ENDTAB
  0
TABLE
  2
VIEW
 70
     0
  0
ENDTAB
  0
TABLE
  2
UCS
 70
     0
  0
ENDTAB
  0
TABLE
  2
APPID
 70
    18
  0
APPID
  2
ACAD
 70
     0
  0
APPID
  2
ACAD_PSEXT
 70
     0
  0
APPID
  2
ACADANNOPO
 70
     0
  0
APPID
  2
ACADANNOTATIVE
 70
     0
  0
APPID
  2
ACAD_DSTYLE_DIMJAG
 70
     0
  0
APPID
  2
ACAD_DSTYLE_DIMTALN
 70
     0
  0
APPID
  2
ACAD_MLEADERVER
 70
     0
  0
APPID
  2
ACAD_NAV_VCDISPLAY
 70
     0
  0
APPID
  2
GRADIENTCOLOR1ACI
 70
     0
  0
APPID
  2
GRADIENTCOLOR2ACI
 70
     0
  0
APPID
  2
ACAUTHENVIRON
 70
     0
  0
APPID
  2
ACDBDYNAMICBLOCKTRUENAME
 70
     0
  0
APPID
  2
ACDBDYNAMICBLOCKGUID
 70
     0
  0
APPID
  2
ACAD_EXEMPT_FROM_CAD_STANDARDS
 70
     0
  0
APPID
  2
ACAECLAYERSTANDARD
 70
     0
  0
APPID
  2
ACCMTRANSPARENCY
 70
     0
  0
APPID
  2
NETDXF
 70
     0
  0
APPID
  2
AcDbAttr
 70
     0
  0
ENDTAB
  0
TABLE
  2
DIMSTYLE
 70
     3
  0
DIMSTYLE
  2
STANDARD
 70
     0
  3

  4

  5

  6

  7

 40
1.0
 41
0.18
 42
0.0625
 43
0.38
 44
0.18
 45
0.0
 46
0.0
 47
0.0
 48
0.0
140
0.18
141
0.09
142
0.0
143
25.3999999999999986
144
1.0
145
0.0
146
1.0
147
0.09
 71
     0
 72
     0
 73
     1
 74
     1
 75
     0
 76
     0
 77
     0
 78
     0
170
     0
171
     2
172
     0
173
     0
174
     0
175
     0
176
     0
177
     0
178
     0
  0
DIMSTYLE
  2
ANNOTATIVE
 70
     0
  3

  4

  5

  6

  7

 40
0.0
 41
2.5
 42
0.625
 43
3.75
 44
1.25
 45
0.0
 46
0.0
 47
0.0
 48
0.0
140
2.5
141
2.5
142
0.0
143
0.03937007874016
144
1.0
145
0.0
146
1.0
147
0.625
 71
     0
 72
     0
 73
     0
 74
     0
 75
     0
 76
     0
 77
     1
 78
     8
170
     0
171
     3
172
     1
173
     0
174
     0
175
     0
176
     0
177
     0
178
     0
  0
DIMSTYLE
  2
ISO-25
 70
     0
  3

  4

  5

  6

  7

 40
1.0
 41
2.5
 42
0.625
 43
3.75
 44
1.25
 45
0.0
 46
0.0
 47
0.0
 48
0.0
140
2.5
141
2.5
142
0.0
143
0.03937007874016
144
1.0
145
0.0
146
1.0
147
0.625
 71
     0
 72
     0
 73
     0
 74
     0
 75
     0
 76
     0
 77
     1
 78
     8
170
     0
171
     3
172
     1
173
     0
174
     0
175
     0
176
     0
177
     0
178
     0
  0
ENDTAB
  0
ENDSEC
  0
SECTION
  2
BLOCKS
  0
BLOCK
  8
0
  2
$MODEL_SPACE
 70
     0
 10
0.0
 20
0.0
 30
0.0
  3
$MODEL_SPACE
  1

  0
ENDBLK
  5
21
  8
0
  0
BLOCK
 67
     1
  8
0
  2
$PAPER_SPACE
 70
     0
 10
0.0
 20
0.0
 30
0.0
  3
$PAPER_SPACE
  1

  0
ENDBLK
  5
D5
 67
     1
  8
0
  0
BLOCK
  8
0
  2
*D1
 70
     1
 10
0.0
 20
0.0
 30
0.0
  3
*D1
  1

  0
LINE
  5
2A1
  8
LAYER1
 62
     0
 10
219.55805826175839
 20
20.4419417382415816
 30
0.0
 11
209.1161165235168085
 21
30.8838834764831809
 31
0.0
  0
LINE
  5
2A2
  8
LAYER1
 62
     0
 10
279.5580582617585037
 20
80.4419417382415958
 30
0.0
 11
269.11611652351678
 21
90.8838834764832058
 31
0.0
  0
LINE
  5
2A3
  8
LAYER1
 62
     0
 10
211.7677669529664115
 20
31.7677669529663618
 30
0.0
 11
268.2322330470336169
 21
88.2322330470336169
 31
0.0
  0
SOLID
  5
2A4
  8
LAYER1
 62
     0
 10
211.4731391274719101
 20
32.0623947784607566
 30
0.0
 11
212.062394778460714
 21
31.4731391274719705
 31
0.0
 12
210.0
 22
29.9999999999999893
 32
0.0
 13
210.0
 23
29.9999999999999893
 33
0.0
  0
SOLID
  5
2A5
  8
LAYER1
 62
     0
 10
267.9376052215391724
 20
88.5268608725280188
 30
0.0
 11
268.5268608725280046
 21
87.937605221539215
 31
0.0
 12
270.0
 22
90.0
 32
0.0
 13
270.0
 23
90.0
 33
0.0
  0
INSERT
  5
2A6
  8
0
  2
*U5
 10
0.0
 20
0.0
 30
0.0
  0
POINT
  5
2A7
  8
DEFPOINTS
 62
     0
 10
220.0
 20
19.9999999999999787
 30
0.0
  0
POINT
  5
2A8
  8
DEFPOINTS
 62
     0
 10
280.0
 20
80.0
 30
0.0
  0
POINT
  5
2A9
  8
DEFPOINTS
 62
     0
 10
270.0
 20
90.0
 30
0.0
  0
ENDBLK
  5
230
  8
0
  0
BLOCK
  8
0
  2
MYBLOCK
 70
     2
 10
0.0
 20
0.0
 30
0.0
  3
MYBLOCK
  1

  0
LINE
  5
258
  8
0
 10
-40.0
 20
-40.0
 30
0.0
 11
40.0
 21
40.0
 31
0.0
  0
LINE
  5
259
  8
0
 10
-40.0
 20
40.0
 30
0.0
 11
40.0
 21
-40.0
 31
0.0
  0
CIRCLE
  5
25A
  8
0
 10
0.0
 20
0.0
 30
0.0
 40
30.0
  0
ATTDEF
  5
25F
  8
0
 10
0.0
 20
0.0
 30
0.0
 40
5.0
  1
1
  3
Enter number:
  2
ATTINFO
 70
     0
1001
AcDbAttr
1070
     0
1070
     1
  0
ENDBLK
  5
250
  8
0
  0
BLOCK
  8
0
  2
*X3
 70
     1
 10
0.0
 20
0.0
 30
0.0
  3
*X3
  1

  0
LINE
  5
4E4
  8
0
 62
     0
 10
586.2385260906686426
 20
29.4626465843812184
 30
0.0
 11
588.9252931687625505
 21
32.1494136624751334
 31
0.0
  0
LINE
  5
4E5
  8
0
 62
     0
 10
581.0000433533781461
 20
28.7142919076254692
 30
0.0
 11
587.4285838152509314
 21
35.1428323694982012
 31
0.0
  0
LINE
  5
4E6
  8
0
 62
     0
 10
575.7615606160879906
 20
27.9659372308697094
 30
0.0
 11
585.9318744617395396
 21
38.1362510765212619
 31
0.0
  0
LINE
  5
4E7
  8
0
 62
     0
 10
570.5230778787976078
 20
27.2175825541139602
 30
0.0
 11
584.4351651082279204
 21
41.1296697835442728
 31
0.0
  0
LINE
  5
4E8
  8
0
 62
     0
 10
565.284595141507225
 20
26.4692278773581506
 30
0.0
 11
582.938455754716415
 21
44.1230884905672767
 31
0.0
  0
LINE
  5
4E9
  8
0
 62
     0
 10
560.0461124042169558
 20
25.7208732006024015
 30
0.0
 11
581.4417464012047958
 21
47.1165071975903516
 31
0.0
  0
LINE
  5
4EA
  8
0
 62
     0
 10
554.807629666926573
 20
24.9725185238466416
 30
0.0
 11
579.9450370476932903
 21
50.1099259046134122
 31
0.0
  0
LINE
  5
4EB
  8
0
 62
     0
 10
549.5691469296360765
 20
24.2241638470908391
 30
0.0
 11
578.4483276941818986
 21
53.10334461163648
 31
0.0
  0
LINE
  5
4EC
  8
0
 62
     0
 10
544.330664192345921
 20
23.4758091703350793
 30
0.0
 11
576.9516183406703931
 21
56.0967633186594981
 31
0.0
  0
LINE
  5
4ED
  8
0
 62
     0
 10
539.0921814550555382
 20
22.7274544935793301
 30
0.0
 11
575.4549089871586602
 21
59.0901820256825587
 31
0.0
  0
LINE
  5
4EE
  8
0
 62
     0
 10
533.8536987177651554
 20
21.979099816823549
 30
0.0
 11
573.9581996336472685
 21
62.083600732705662
 31
0.0
  0
LINE
  5
4EF
  8
0
 62
     0
 10
528.6152159804748862
 20
21.2307451400677714
 30
0.0
 11
572.4614902801356493
 21
65.0770194397287014
 31
0.0
  0
LINE
  5
4F0
  8
0
 62
     0
 10
523.3767332431843897
 20
20.4823904633119902
 30
0.0
 11
570.9647809266241438
 21
68.0704381467517408
 31
0.0
  0
LINE
  5
4F1
  8
0
 62
     0
 10
520.0000000000001137
 20
21.5957852806621986
 30
0.0
 11
569.4680715731126384
 21
71.0638568537747801
 31
0.0
  0
LINE
  5
4F2
  8
0
 62
     0
 10
520.0000000000001137
 20
26.0859133411967505
 30
0.0
 11
567.9713622196012466
 21
74.0572755607978763
 31
0.0
  0
LINE
  5
4F3
  8
0
 62
     0
 10
520.0000000000001137
 20
30.5760414017313487
 30
0.0
 11
566.4746528660896274
 21
77.0506942678208588
 31
0.0
  0
LINE
  5
4F4
  8
0
 62
     0
 10
520.0000000000001137
 20
35.0661694622658899
 30
0.0
 11
564.977943512578122
 21
80.0441129748438982
 31
0.0
  0
LINE
  5
4F5
  8
0
 62
     0
 10
520.0000000000001137
 20
39.5562975228004916
 30
0.0
 11
563.4812341590666165
 21
83.0375316818669944
 31
0.0
  0
LINE
  5
4F6
  8
0
 62
     0
 10
520.0000000000001137
 20
44.0464255833350293
 30
0.0
 11
561.9845248055549973
 21
86.0309503888900906
 31
0.0
  0
LINE
  5
4F7
  8
0
 62
     0
 10
520.0000000000001137
 20
48.536553643869631
 30
0.0
 11
560.4878154520434919
 21
89.0243690959130589
 31
0.0
  0
LINE
  5
4F8
  8
0
 62
     0
 10
520.0000000000001137
 20
53.0266817044041829
 30
0.0
 11
547.8932731823832682
 21
80.9199548867873233
 31
0.0
  0
LINE
  5
4F9
  8
0
 62
     0
 10
520.0000000000001137
 20
57.5168097649387775
 30
0.0
 11
529.9327609402447479
 21
67.4495707051835893
 31
0.0
  0
ENDBLK
  5
4FB
  8
0
  0
BLOCK
  8
0
  2
*U4
 70
     1
 10
0.0
 20
0.0
 30
0.0
  3
*U4
  1

  0
TEXT
  5
4FE
  8
LAYER2
 10
210.0
 20
-17.5
 30
0.0
 40
7.5
  1
This is a
  0
TEXT
  5
4FF
  8
LAYER2
 10
210.0
 20
-30.0
 30
0.0
 40
7.5
  1
sample
  0
TEXT
  5
500
  8
LAYER2
 10
210.0
 20
-42.5
 30
0.0
 40
7.5
  1
multiline text.
  0
TEXT
  5
501
  8
LAYER2
 10
210.0
 20
-55.0
 30
0.0
 40
7.5
  1
This is a
  0
TEXT
  5
502
  8
LAYER2
 10
210.0
 20
-67.5
 30
0.0
 40
7.5
  1
sample
  0
TEXT
  5
503
  8
LAYER2
 10
210.0
 20
-80.0
 30
0.0
 40
7.5
  1
multiline text.
  0
ENDBLK
  5
505
  8
0
  0
BLOCK
  8
0
  2
*U5
 70
     1
 10
0.0
 20
0.0
 30
0.0
  3
*U5
  1

  0
TEXT
  5
507
  8
LAYER1
 62
     0
 10
235.6757007218388082
 20
57.2532314662955883
 30
0.0
 40
2.5
  1
84,85
 50
45.0
  0
ENDBLK
  5
509
  8
0
  0
BLOCK
  8
0
  2
*U6
 70
     1
 10
0.0
 20
0.0
 30
0.0
  3
*U6
  1

  0
LINE
  5
50B
  8
LAYER2
 10
110.0
 20
-90.0
 30
0.0
 11
110.0
 21
-10.0
 31
0.0
  0
LINE
  5
50C
  8
LAYER2
 10
130.0
 20
-90.0
 30
0.0
 11
130.0
 21
-57.5
 31
0.0
  0
LINE
  5
50D
  8
LAYER2
 10
130.0
 20
-42.5
 30
0.0
 11
130.0
 21
-10.0
 31
0.0
  0
ENDBLK
  5
50F
  8
0
  0
BLOCK
  8
0
  2
*U7
 70
     1
 10
0.0
 20
0.0
 30
0.0
  3
*U7
  1

  0
LINE
  5
511
  8
LAYER2
 10
130.0
 20
-42.5
 30
0.0
 11
190.0
 21
-42.5
 31
0.0
  0
LINE
  5
512
  8
LAYER2
 10
130.0
 20
-57.5
 30
0.0
 11
190.0
 21
-57.5
 31
0.0
  0
ENDBLK
  5
514
  8
0
  0
BLOCK
  8
0
  2
*U8
 70
     1
 10
0.0
 20
0.0
 30
0.0
  3
*U8
  1

  0
SOLID
  5
516
  8
0
  6
CONTINUOUS
 10
-45.8333333333333286
 20
-309.7222222222221717
 30
0.0
 11
-41.6666666666666572
 21
-319.4444444444444002
 31
0.0
 12
-37.5
 22
-312.5
 32
0.0
 13
-37.5
 23
-312.5
 33
0.0
210
0.0
220
0.0
230
-1.0
  0
SOLID
  5
517
  8
0
  6
CONTINUOUS
 10
-45.8333333333333286
 20
-309.7222222222221717
 30
0.0
 11
-37.5
 21
-312.5
 31
0.0
 12
-50.0
 22
-300.0
 32
0.0
 13
-50.0
 23
-300.0
 33
0.0
210
0.0
220
0.0
230
-1.0
  0
SOLID
  5
518
  8
0
  6
CONTINUOUS
 10
-37.5
 20
-312.5
 30
0.0
 11
-41.6666666666666572
 21
-319.4444444444444002
 31
0.0
 12
-25.0
 22
-325.0
 32
0.0
 13
-25.0
 23
-325.0
 33
0.0
210
0.0
220
0.0
230
-1.0
  0
SOLID
  5
519
  8
0
  6
CONTINUOUS
 10
-25.0
 20
-325.0
 30
0.0
 11
-34.7222222222222072
 21
-324.5370370370370097
 31
0.0
 12
-31.25
 22
-327.0833333333333144
 32
0.0
 13
-31.25
 23
-327.0833333333333144
 33
0.0
210
0.0
220
0.0
230
-1.0
  0
SOLID
  5
51A
  8
0
  6
CONTINUOUS
 10
-31.25
 20
-327.0833333333333144
 30
0.0
 11
-34.7222222222222072
 21
-324.5370370370370097
 31
0.0
 12
-37.5
 22
-329.1666666666665719
 32
0.0
 13
-37.5
 23
-329.1666666666665719
 33
0.0
210
0.0
220
0.0
230
-1.0
  0
SOLID
  5
51B
  8
0
  6
CONTINUOUS
 10
-37.5
 20
-329.1666666666665719
 30
0.0
 11
-34.7222222222222072
 21
-324.5370370370370097
 31
0.0
 12
-39.5833333333333286
 22
-324.3055555555554861
 32
0.0
 13
-39.5833333333333286
 23
-324.3055555555554861
 33
0.0
210
0.0
220
0.0
230
-1.0
  0
SOLID
  5
51C
  8
0
  6
CONTINUOUS
 10
-39.5833333333333286
 20
-324.3055555555554861
 30
0.0
 11
-34.7222222222222072
 21
-324.5370370370370097
 31
0.0
 12
-41.6666666666666572
 22
-319.4444444444444002
 32
0.0
 13
-41.6666666666666572
 23
-319.4444444444444002
 33
0.0
210
0.0
220
0.0
230
-1.0
  0
SOLID
  5
51D
  8
0
  6
CONTINUOUS
 10
-34.7222222222222072
 20
-324.5370370370370097
 30
0.0
 11
-25.0
 21
-325.0
 31
0.0
 12
-33.3333333333333286
 22
-322.2222222222221717
 32
0.0
 13
-33.3333333333333286
 23
-322.2222222222221717
 33
0.0
210
0.0
220
0.0
230
-1.0
  0
SOLID
  5
51E
  8
0
  6
CONTINUOUS
 10
-41.6666666666666572
 20
-319.4444444444444002
 30
0.0
 11
-34.7222222222222072
 21
-324.5370370370370097
 31
0.0
 12
-33.3333333333333286
 22
-322.2222222222221717
 32
0.0
 13
-33.3333333333333286
 23
-322.2222222222221717
 33
0.0
210
0.0
220
0.0
230
-1.0
  0
SOLID
  5
51F
  8
0
  6
CONTINUOUS
 10
-37.5
 20
-329.1666666666665719
 30
0.0
 11
-43.05555555555555
 21
-327.3148148148147811
 31
0.0
 12
-43.75
 22
-331.25
 32
0.0
 13
-43.75
 23
-331.25
 33
0.0
210
0.0
220
0.0
230
-1.0
  0
SOLID
  5
520
  8
0
  6
CONTINUOUS
 10
-43.75
 20
-331.25
 30
0.0
 11
-43.05555555555555
 21
-327.3148148148147811
 31
0.0
 12
-50.0
 22
-333.3333333333333144
 32
0.0
 13
-50.0
 23
-333.3333333333333144
 33
0.0
210
0.0
220
0.0
230
-1.0
  0
SOLID
  5
521
  8
0
  6
CONTINUOUS
 10
-50.0
 20
-333.3333333333333144
 30
0.0
 11
-43.05555555555555
 21
-327.3148148148147811
 31
0.0
 12
-45.8333333333333286
 22
-326.3888888888889142
 32
0.0
 13
-45.8333333333333286
 23
-326.3888888888889142
 33
0.0
210
0.0
220
0.0
230
-1.0
  0
SOLID
  5
522
  8
0
  6
CONTINUOUS
 10
-45.8333333333333286
 20
-326.3888888888889142
 30
0.0
 11
-43.05555555555555
 21
-327.3148148148147811
 31
0.0
 12
-43.75
 22
-322.9166666666665719
 32
0.0
 13
-43.75
 23
-322.9166666666665719
 33
0.0
210
0.0
220
0.0
230
-1.0
  0
SOLID
  5
523
  8
0
  6
CONTINUOUS
 10
-41.6666666666666572
 20
-319.4444444444444002
 30
0.0
 11
-43.75
 21
-322.9166666666665719
 31
0.0
 12
-42.3611111111111001
 22
-323.3796296296296191
 32
0.0
 13
-42.3611111111111001
 23
-323.3796296296296191
 33
0.0
210
0.0
220
0.0
230
-1.0
  0
SOLID
  5
524
  8
0
  6
CONTINUOUS
 10
-42.3611111111111001
 20
-323.3796296296296191
 30
0.0
 11
-43.75
 21
-322.9166666666665719
 31
0.0
 12
-43.05555555555555
 22
-327.3148148148147811
 32
0.0
 13
-43.05555555555555
 23
-327.3148148148147811
 33
0.0
210
0.0
220
0.0
230
-1.0
  0
SOLID
  5
525
  8
0
  6
CONTINUOUS
 10
-43.05555555555555
 20
-327.3148148148147811
 30
0.0
 11
-37.5
 21
-329.1666666666665719
 31
0.0
 12
-39.5833333333333286
 22
-324.3055555555554861
 32
0.0
 13
-39.5833333333333286
 23
-324.3055555555554861
 33
0.0
210
0.0
220
0.0
230
-1.0
  0
SOLID
  5
526
  8
0
  6
CONTINUOUS
 10
-41.6666666666666572
 20
-319.4444444444444002
 30
0.0
 11
-41.4351851851851833
 21
-323.6882716049382225
 31
0.0
 12
-40.625
 22
-321.875
 32
0.0
 13
-40.625
 23
-321.875
 33
0.0
210
0.0
220
0.0
230
-1.0
  0
SOLID
  5
527
  8
0
  6
CONTINUOUS
 10
-40.625
 20
-321.875
 30
0.0
 11
-41.4351851851851833
 21
-323.6882716049382225
 31
0.0
 12
-39.5833333333333286
 22
-324.3055555555554861
 32
0.0
 13
-39.5833333333333286
 23
-324.3055555555554861
 33
0.0
210
0.0
220
0.0
230
-1.0
  0
SOLID
  5
528
  8
0
  6
CONTINUOUS
 10
-39.5833333333333286
 20
-324.3055555555554861
 30
0.0
 11
-41.4351851851851833
 21
-323.6882716049382225
 31
0.0
 12
-41.3194444444444429
 22
-325.8101851851852189
 32
0.0
 13
-41.3194444444444429
 23
-325.8101851851852189
 33
0.0
210
0.0
220
0.0
230
-1.0
  0
SOLID
  5
529
  8
0
  6
CONTINUOUS
 10
-41.3194444444444429
 20
-325.8101851851852189
 30
0.0
 11
-41.4351851851851833
 21
-323.6882716049382225
 31
0.0
 12
-43.05555555555555
 22
-327.3148148148147811
 32
0.0
 13
-43.05555555555555
 23
-327.3148148148147811
 33
0.0
210
0.0
220
0.0
230
-1.0
  0
SOLID
  5
52A
  8
0
  6
CONTINUOUS
 10
-41.4351851851851833
 20
-323.6882716049382225
 30
0.0
 11
-41.6666666666666572
 21
-319.4444444444444002
 31
0.0
 12
-42.3611111111111001
 22
-323.3796296296296191
 32
0.0
 13
-42.3611111111111001
 23
-323.3796296296296191
 33
0.0
210
0.0
220
0.0
230
-1.0
  0
SOLID
  5
52B
  8
0
  6
CONTINUOUS
 10
-43.05555555555555
 20
-327.3148148148147811
 30
0.0
 11
-41.4351851851851833
 21
-323.6882716049382225
 31
0.0
 12
-42.3611111111111001
 22
-323.3796296296296191
 32
0.0
 13
-42.3611111111111001
 23
-323.3796296296296191
 33
0.0
210
0.0
220
0.0
230
-1.0
  0
SOLID
  5
52C
  8
0
  6
CONTINUOUS
 10
-45.8333333333333286
 20
-309.7222222222221717
 30
0.0
 11
-50.0
 21
-300.0
 31
0.0
 12
-50.0
 22
-316.6666666666665719
 32
0.0
 13
-50.0
 23
-316.6666666666665719
 33
0.0
210
0.0
220
0.0
230
-1.0
  0
SOLID
  5
52D
  8
0
  6
CONTINUOUS
 10
-45.8333333333333286
 20
-309.7222222222221717
 30
0.0
 11
-50.0
 21
-316.6666666666665719
 31
0.0
 12
-41.6666666666666572
 22
-319.4444444444444002
 32
0.0
 13
-41.6666666666666572
 23
-319.4444444444444002
 33
0.0
210
0.0
220
0.0
230
-1.0
  0
SOLID
  5
52E
  8
0
  6
CONTINUOUS
 10
-45.8333333333333286
 20
-326.3888888888889142
 30
0.0
 11
-45.8333333333333286
 21
-320.8333333333333144
 31
0.0
 12
-47.9166666666666572
 22
-321.5277777777777146
 32
0.0
 13
-47.9166666666666572
 23
-321.5277777777777146
 33
0.0
210
0.0
220
0.0
230
-1.0
  0
SOLID
  5
52F
  8
0
  6
CONTINUOUS
 10
-47.9166666666666572
 20
-321.5277777777777146
 30
0.0
 11
-45.8333333333333286
 21
-320.8333333333333144
 31
0.0
 12
-50.0
 22
-316.6666666666665719
 32
0.0
 13
-50.0
 23
-316.6666666666665719
 33
0.0
210
0.0
220
0.0
230
-1.0
  0
SOLID
  5
530
  8
0
  6
CONTINUOUS
 10
-50.0
 20
-316.6666666666665719
 30
0.0
 11
-45.8333333333333286
 21
-320.8333333333333144
 31
0.0
 12
-45.8333333333333286
 22
-318.0555555555554861
 32
0.0
 13
-45.8333333333333286
 23
-318.0555555555554861
 33
0.0
210
0.0
220
0.0
230
-1.0
  0
SOLID
  5
531
  8
0
  6
CONTINUOUS
 10
-45.8333333333333286
 20
-318.0555555555554861
 30
0.0
 11
-45.8333333333333286
 21
-320.8333333333333144
 31
0.0
 12
-41.6666666666666572
 22
-319.4444444444444002
 32
0.0
 13
-41.6666666666666572
 23
-319.4444444444444002
 33
0.0
210
0.0
220
0.0
230
-1.0
  0
SOLID
  5
532
  8
0
  6
CONTINUOUS
 10
-45.8333333333333286
 20
-320.8333333333333144
 30
0.0
 11
-45.8333333333333286
 21
-326.3888888888889142
 31
0.0
 12
-43.75
 22
-322.9166666666665719
 32
0.0
 13
-43.75
 23
-322.9166666666665719
 33
0.0
210
0.0
220
0.0
230
-1.0
  0
SOLID
  5
533
  8
0
  6
CONTINUOUS
 10
-41.6666666666666572
 20
-319.4444444444444002
 30
0.0
 11
-45.8333333333333286
 21
-320.8333333333333144
 31
0.0
 12
-43.75
 22
-322.9166666666665719
 32
0.0
 13
-43.75
 23
-322.9166666666665719
 33
0.0
210
0.0
220
0.0
230
-1.0
  0
SOLID
  5
534
  8
0
  6
CONTINUOUS
 10
-45.8333333333333286
 20
-326.3888888888889142
 30
0.0
 11
-50.0
 21
-316.6666666666665719
 31
0.0
 12
-50.0
 22
-333.3333333333333144
 32
0.0
 13
-50.0
 23
-333.3333333333333144
 33
0.0
210
0.0
220
0.0
230
-1.0
  0
SOLID
  5
535
  8
0
  6
CONTINUOUS
 10
-25.0
 20
-325.0
 30
0.0
 11
-50.0
 21
-333.3333333333333144
 31
0.0
 12
0.0
 22
-350.0
 32
0.0
 13
0.0
 23
-350.0
 33
0.0
210
0.0
220
0.0
230
-1.0
  0
SOLID
  5
536
  8
0
  6
CONTINUOUS
 10
0.0
 20
-350.0
 30
0.0
 11
-50.0
 21
-333.3333333333333144
 31
0.0
 12
-50.0
 22
-350.0
 32
0.0
 13
-50.0
 23
-350.0
 33
0.0
210
0.0
220
0.0
230
-1.0
  0
SOLID
  5
537
  8
0
  6
CONTINUOUS
 10
-50.0
 20
-350.0
 30
0.0
 11
-50.0
 21
-333.3333333333333144
 31
0.0
 12
-100.0
 22
-350.0
 32
0.0
 13
-100.0
 23
-350.0
 33
0.0
210
0.0
220
0.0
230
-1.0
  0
SOLID
  5
538
  8
0
  6
CONTINUOUS
 10
-50.0
 20
-333.3333333333333144
 30
0.0
 11
-58.3333333333333286
 21
-319.4444444444444002
 31
0.0
 12
-62.5
 22
-329.1666666666665719
 32
0.0
 13
-62.5
 23
-329.1666666666665719
 33
0.0
210
0.0
220
0.0
230
-1.0
  0
SOLID
  5
539
  8
0
  6
CONTINUOUS
 10
-62.5
 20
-329.1666666666665719
 30
0.0
 11
-58.3333333333333286
 21
-319.4444444444444002
 31
0.0
 12
-75.0
 22
-325.0
 32
0.0
 13
-75.0
 23
-325.0
 33
0.0
210
0.0
220
0.0
230
-1.0
  0
SOLID
  5
53A
  8
0
  6
CONTINUOUS
 10
-75.0
 20
-325.0
 30
0.0
 11
-58.3333333333333286
 21
-319.4444444444444002
 31
0.0
 12
-62.5
 22
-312.5
 32
0.0
 13
-62.5
 23
-312.5
 33
0.0
210
0.0
220
0.0
230
-1.0
  0
SOLID
  5
53B
  8
0
  6
CONTINUOUS
 10
-54.1666666666666572
 20
-309.7222222222221717
 30
0.0
 11
-59.375
 21
-309.375
 31
0.0
 12
-58.3333333333333286
 22
-311.1111111111110858
 32
0.0
 13
-58.3333333333333286
 23
-311.1111111111110858
 33
0.0
210
0.0
220
0.0
230
-1.0
  0
SOLID
  5
53C
  8
0
  6
CONTINUOUS
 10
-58.3333333333333286
 20
-311.1111111111110858
 30
0.0
 11
-59.375
 21
-309.375
 31
0.0
 12
-62.5
 22
-312.5
 32
0.0
 13
-62.5
 23
-312.5
 33
0.0
210
0.0
220
0.0
230
-1.0
  0
SOLID
  5
53D
  8
0
  6
CONTINUOUS
 10
-59.375
 20
-309.375
 30
0.0
 11
-54.1666666666666572
 21
-309.7222222222221717
 31
0.0
 12
-56.25
 22
-306.25
 32
0.0
 13
-56.25
 23
-306.25
 33
0.0
210
0.0
220
0.0
230
-1.0
  0
SOLID
  5
53E
  8
0
  6
CONTINUOUS
 10
-56.25
 20
-306.25
 30
0.0
 11
-54.1666666666666572
 21
-309.7222222222221717
 31
0.0
 12
-50.0
 22
-300.0
 32
0.0
 13
-50.0
 23
-300.0
 33
0.0
210
0.0
220
0.0
230
-1.0
  0
SOLID
  5
53F
  8
0
  6
CONTINUOUS
 10
-54.1666666666666572
 20
-309.7222222222221717
 30
0.0
 11
-58.3333333333333286
 21
-311.1111111111110858
 31
0.0
 12
-58.3333333333333286
 22
-313.8888888888888005
 32
0.0
 13
-58.3333333333333286
 23
-313.8888888888888005
 33
0.0
210
0.0
220
0.0
230
-1.0
  0
SOLID
  5
540
  8
0
  6
CONTINUOUS
 10
-58.3333333333333286
 20
-311.1111111111110858
 30
0.0
 11
-62.5
 21
-312.5
 31
0.0
 12
-58.3333333333333286
 22
-313.8888888888888005
 32
0.0
 13
-58.3333333333333286
 23
-313.8888888888888005
 33
0.0
210
0.0
220
0.0
230
-1.0
  0
SOLID
  5
541
  8
0
  6
CONTINUOUS
 10
-62.5
 20
-312.5
 30
0.0
 11
-60.4166666666666572
 21
-315.9722222222221717
 31
0.0
 12
-58.3333333333333286
 22
-313.8888888888888005
 32
0.0
 13
-58.3333333333333286
 23
-313.8888888888888005
 33
0.0
210
0.0
220
0.0
230
-1.0
  0
SOLID
  5
542
  8
0
  6
CONTINUOUS
 10
-60.4166666666666572
 20
-315.9722222222221717
 30
0.0
 11
-58.3333333333333286
 21
-319.4444444444444002
 31
0.0
 12
-58.3333333333333286
 22
-313.8888888888888005
 32
0.0
 13
-58.3333333333333286
 23
-313.8888888888888005
 33
0.0
210
0.0
220
0.0
230
-1.0
  0
SOLID
  5
543
  8
0
  6
CONTINUOUS
 10
-58.3333333333333286
 20
-313.8888888888888005
 30
0.0
 11
-56.25
 21
-314.5833333333333144
 31
0.0
 12
-54.1666666666666572
 22
-309.7222222222221717
 32
0.0
 13
-54.1666666666666572
 23
-309.7222222222221717
 33
0.0
210
0.0
220
0.0
230
-1.0
  0
SOLID
  5
544
  8
0
  6
CONTINUOUS
 10
-58.3333333333333286
 20
-319.4444444444444002
 30
0.0
 11
-56.25
 21
-314.5833333333333144
 31
0.0
 12
-58.3333333333333286
 22
-313.8888888888888005
 32
0.0
 13
-58.3333333333333286
 23
-313.8888888888888005
 33
0.0
210
0.0
220
0.0
230
-1.0
  0
SOLID
  5
545
  8
0
  6
CONTINUOUS
 10
-58.3333333333333286
 20
-319.4444444444444002
 30
0.0
 11
-50.0
 21
-333.3333333333333144
 31
0.0
 12
-50.0
 22
-316.6666666666665719
 32
0.0
 13
-50.0
 23
-316.6666666666665719
 33
0.0
210
0.0
220
0.0
230
-1.0
  0
SOLID
  5
546
  8
0
  6
CONTINUOUS
 10
-54.1666666666666572
 20
-309.7222222222221717
 30
0.0
 11
-54.1666666666666572
 21
-315.2777777777777146
 31
0.0
 12
-52.0833333333333286
 22
-313.1944444444444002
 32
0.0
 13
-52.0833333333333286
 23
-313.1944444444444002
 33
0.0
210
0.0
220
0.0
230
-1.0
  0
SOLID
  5
547
  8
0
  6
CONTINUOUS
 10
-52.0833333333333286
 20
-313.1944444444444002
 30
0.0
 11
-54.1666666666666572
 21
-315.2777777777777146
 31
0.0
 12
-50.0
 22
-316.6666666666665719
 32
0.0
 13
-50.0
 23
-316.6666666666665719
 33
0.0
210
0.0
220
0.0
230
-1.0
  0
SOLID
  5
548
  8
0
  6
CONTINUOUS
 10
-50.0
 20
-316.6666666666665719
 30
0.0
 11
-54.1666666666666572
 21
-315.2777777777777146
 31
0.0
 12
-54.1666666666666572
 22
-318.0555555555554861
 32
0.0
 13
-54.1666666666666572
 23
-318.0555555555554861
 33
0.0
210
0.0
220
0.0
230
-1.0
  0
SOLID
  5
549
  8
0
  6
CONTINUOUS
 10
-54.1666666666666572
 20
-318.0555555555554861
 30
0.0
 11
-54.1666666666666572
 21
-315.2777777777777146
 31
0.0
 12
-58.3333333333333286
 22
-319.4444444444444002
 32
0.0
 13
-58.3333333333333286
 23
-319.4444444444444002
 33
0.0
210
0.0
220
0.0
230
-1.0
  0
SOLID
  5
54A
  8
0
  6
CONTINUOUS
 10
-54.1666666666666572
 20
-315.2777777777777146
 30
0.0
 11
-54.1666666666666572
 21
-309.7222222222221717
 31
0.0
 12
-56.25
 22
-314.5833333333333144
 32
0.0
 13
-56.25
 23
-314.5833333333333144
 33
0.0
210
0.0
220
0.0
230
-1.0
  0
SOLID
  5
54B
  8
0
  6
CONTINUOUS
 10
-58.3333333333333286
 20
-319.4444444444444002
 30
0.0
 11
-54.1666666666666572
 21
-315.2777777777777146
 31
0.0
 12
-56.25
 22
-314.5833333333333144
 32
0.0
 13
-56.25
 23
-314.5833333333333144
 33
0.0
210
0.0
220
0.0
230
-1.0
  0
SOLID
  5
54C
  8
0
  6
CONTINUOUS
 10
-54.1666666666666572
 20
-309.7222222222221717
 30
0.0
 11
-50.0
 21
-316.6666666666665719
 31
0.0
 12
-50.0
 22
-300.0
 32
0.0
 13
-50.0
 23
-300.0
 33
0.0
210
0.0
220
0.0
230
-1.0
  0
SOLID
  5
54D
  8
0
  6
CONTINUOUS
 10
-100.0
 20
-350.0
 30
0.0
 11
-50.0
 21
-333.3333333333333144
 31
0.0
 12
-75.0
 22
-325.0
 32
0.0
 13
-75.0
 23
-325.0
 33
0.0
210
0.0
220
0.0
230
-1.0
  0
SOLID
  5
54E
  8
0
  6
CONTINUOUS
 10
-40.2777777777777715
 20
-295.8333333333333144
 30
0.0
 11
-30.55555555555555
 21
-291.6666666666665719
 31
0.0
 12
-37.5
 22
-287.5
 32
0.0
 13
-37.5
 23
-287.5
 33
0.0
210
0.0
220
0.0
230
-1.0
  0
SOLID
  5
54F
  8
0
  6
CONTINUOUS
 10
-40.2777777777777715
 20
-295.8333333333333144
 30
0.0
 11
-37.5
 21
-287.5
 31
0.0
 12
-50.0
 22
-300.0
 32
0.0
 13
-50.0
 23
-300.0
 33
0.0
210
0.0
220
0.0
230
-1.0
  0
SOLID
  5
550
  8
0
  6
CONTINUOUS
 10
-37.5
 20
-287.5
 30
0.0
 11
-30.55555555555555
 21
-291.6666666666665719
 31
0.0
 12
-31.25
 22
-281.25
 32
0.0
 13
-31.25
 23
-281.25
 33
0.0
210
0.0
220
0.0
230
-1.0
  0
SOLID
  5
551
  8
0
  6
CONTINUOUS
 10
-25.0
 20
-275.0
 30
0.0
 11
-31.25
 21
-281.25
 31
0.0
 12
-27.7777777777777786
 22
-283.3333333333333144
 32
0.0
 13
-27.7777777777777786
 23
-283.3333333333333144
 33
0.0
210
0.0
220
0.0
230
-1.0
  0
SOLID
  5
552
  8
0
  6
CONTINUOUS
 10
-27.7777777777777786
 20
-283.3333333333333144
 30
0.0
 11
-31.25
 21
-281.25
 31
0.0
 12
-30.55555555555555
 22
-291.6666666666665719
 32
0.0
 13
-30.55555555555555
 23
-291.6666666666665719
 33
0.0
210
0.0
220
0.0
230
-1.0
  0
SOLID
  5
553
  8
0
  6
CONTINUOUS
 10
-25.0
 20
-275.0
 30
0.0
 11
-25.4629629629629584
 21
-284.7222222222221717
 31
0.0
 12
-22.9166666666666607
 22
-281.25
 32
0.0
 13
-22.9166666666666607
 23
-281.25
 33
0.0
210
0.0
220
0.0
230
-1.0
  0
SOLID
  5
554
  8
0
  6
CONTINUOUS
 10
-22.9166666666666607
 20
-281.25
 30
0.0
 11
-25.4629629629629584
 21
-284.7222222222221717
 31
0.0
 12
-20.8333333333333286
 22
-287.5
 32
0.0
 13
-20.8333333333333286
 23
-287.5
 33
0.0
210
0.0
220
0.0
230
-1.0
  0
SOLID
  5
555
  8
0
  6
CONTINUOUS
 10
-20.8333333333333286
 20
-287.5
 30
0.0
 11
-25.4629629629629584
 21
-284.7222222222221717
 31
0.0
 12
-25.69444444444445
 22
-289.5833333333333144
 32
0.0
 13
-25.69444444444445
 23
-289.5833333333333144
 33
0.0
210
0.0
220
0.0
230
-1.0
  0
SOLID
  5
556
  8
0
  6
CONTINUOUS
 10
-25.69444444444445
 20
-289.5833333333333144
 30
0.0
 11
-25.4629629629629584
 21
-284.7222222222221717
 31
0.0
 12
-30.55555555555555
 22
-291.6666666666665719
 32
0.0
 13
-30.55555555555555
 23
-291.6666666666665719
 33
0.0
210
0.0
220
0.0
230
-1.0
  0
SOLID
  5
557
  8
0
  6
CONTINUOUS
 10
-25.4629629629629584
 20
-284.7222222222221717
 30
0.0
 11
-25.0
 21
-275.0
 31
0.0
 12
-27.7777777777777786
 22
-283.3333333333333144
 32
0.0
 13
-27.7777777777777786
 23
-283.3333333333333144
 33
0.0
210
0.0
220
0.0
230
-1.0
  0
SOLID
  5
558
  8
0
  6
CONTINUOUS
 10
-30.55555555555555
 20
-291.6666666666665719
 30
0.0
 11
-25.4629629629629584
 21
-284.7222222222221717
 31
0.0
 12
-27.7777777777777786
 22
-283.3333333333333144
 32
0.0
 13
-27.7777777777777786
 23
-283.3333333333333144
 33
0.0
210
0.0
220
0.0
230
-1.0
  0
SOLID
  5
559
  8
0
  6
CONTINUOUS
 10
-20.8333333333333286
 20
-287.5
 30
0.0
 11
-30.55555555555555
 21
-291.6666666666665719
 31
0.0
 12
-16.6666666666666607
 22
-300.0
 32
0.0
 13
-16.6666666666666607
 23
-300.0
 33
0.0
210
0.0
220
0.0
230
-1.0
  0
SOLID
  5
55A
  8
0
  6
CONTINUOUS
 10
-40.2777777777777715
 20
-295.8333333333333144
 30
0.0
 11
-50.0
 21
-300.0
 31
0.0
 12
-33.3333333333333286
 22
-300.0
 32
0.0
 13
-33.3333333333333286
 23
-300.0
 33
0.0
210
0.0
220
0.0
230
-1.0
  0
SOLID
  5
55B
  8
0
  6
CONTINUOUS
 10
-40.2777777777777715
 20
-295.8333333333333144
 30
0.0
 11
-33.3333333333333286
 21
-300.0
 31
0.0
 12
-30.55555555555555
 22
-291.6666666666665719
 32
0.0
 13
-30.55555555555555
 23
-291.6666666666665719
 33
0.0
210
0.0
220
0.0
230
-1.0
  0
SOLID
  5
55C
  8
0
  6
CONTINUOUS
 10
-23.6111111111111107
 20
-295.8333333333333144
 30
0.0
 11
-30.55555555555555
 21
-291.6666666666665719
 31
0.0
 12
-33.3333333333333286
 22
-300.0
 32
0.0
 13
-33.3333333333333286
 23
-300.0
 33
0.0
210
0.0
220
0.0
230
-1.0
  0
SOLID
  5
55D
  8
0
  6
CONTINUOUS
 10
-23.6111111111111107
 20
-295.8333333333333144
 30
0.0
 11
-24.537037037037031
 21
-298.6111111111110858
 31
0.0
 12
-20.1388888888888893
 22
-297.9166666666665719
 32
0.0
 13
-20.1388888888888893
 23
-297.9166666666665719
 33
0.0
210
0.0
220
0.0
230
-1.0
  0
SOLID
  5
55E
  8
0
  6
CONTINUOUS
 10
-20.1388888888888893
 20
-297.9166666666665719
 30
0.0
 11
-24.537037037037031
 21
-298.6111111111110858
 31
0.0
 12
-16.6666666666666607
 22
-300.0
 32
0.0
 13
-16.6666666666666607
 23
-300.0
 33
0.0
210
0.0
220
0.0
230
-1.0
  0
SOLID
  5
55F
  8
0
  6
CONTINUOUS
 10
-16.6666666666666607
 20
-300.0
 30
0.0
 11
-24.537037037037031
 21
-298.6111111111110858
 31
0.0
 12
-25.0
 22
-300.0
 32
0.0
 13
-25.0
 23
-300.0
 33
0.0
210
0.0
220
0.0
230
-1.0
  0
SOLID
  5
560
  8
0
  6
CONTINUOUS
 10
-25.0
 20
-300.0
 30
0.0
 11
-24.537037037037031
 21
-298.6111111111110858
 31
0.0
 12
-33.3333333333333286
 22
-300.0
 32
0.0
 13
-33.3333333333333286
 23
-300.0
 33
0.0
210
0.0
220
0.0
230
-1.0
  0
SOLID
  5
561
  8
0
  6
CONTINUOUS
 10
-24.537037037037031
 20
-298.6111111111110858
 30
0.0
 11
-23.6111111111111107
 21
-295.8333333333333144
 31
0.0
 12
-28.4722222222222214
 22
-297.9166666666665719
 32
0.0
 13
-28.4722222222222214
 23
-297.9166666666665719
 33
0.0
210
0.0
220
0.0
230
-1.0
  0
SOLID
  5
562
  8
0
  6
CONTINUOUS
 10
-33.3333333333333286
 20
-300.0
 30
0.0
 11
-24.537037037037031
 21
-298.6111111111110858
 31
0.0
 12
-28.4722222222222214
 22
-297.9166666666665719
 32
0.0
 13
-28.4722222222222214
 23
-297.9166666666665719
 33
0.0
210
0.0
220
0.0
230
-1.0
  0
SOLID
  5
563
  8
0
  6
CONTINUOUS
 10
-12.5
 20
-262.5
 30
0.0
 11
-15.2777777777777697
 21
-270.8333333333333144
 31
0.0
 12
-10.4166666666666607
 22
-268.75
 32
0.0
 13
-10.4166666666666607
 23
-268.75
 33
0.0
210
0.0
220
0.0
230
-1.0
  0
SOLID
  5
564
  8
0
  6
CONTINUOUS
 10
-10.4166666666666607
 20
-268.75
 30
0.0
 11
-15.2777777777777697
 21
-270.8333333333333144
 31
0.0
 12
-8.3333333333333321
 22
-275.0
 32
0.0
 13
-8.3333333333333321
 23
-275.0
 33
0.0
210
0.0
220
0.0
230
-1.0
  0
SOLID
  5
565
  8
0
  6
CONTINUOUS
 10
-8.3333333333333321
 20
-275.0
 30
0.0
 11
-15.2777777777777697
 21
-270.8333333333333144
 31
0.0
 12
-16.6666666666666607
 22
-275.0
 32
0.0
 13
-16.6666666666666607
 23
-275.0
 33
0.0
210
0.0
220
0.0
230
-1.0
  0
SOLID
  5
566
  8
0
  6
CONTINUOUS
 10
-16.6666666666666607
 20
-275.0
 30
0.0
 11
-15.2777777777777697
 21
-270.8333333333333144
 31
0.0
 12
-25.0
 22
-275.0
 32
0.0
 13
-25.0
 23
-275.0
 33
0.0
210
0.0
220
0.0
230
-1.0
  0
SOLID
  5
567
  8
0
  6
CONTINUOUS
 10
-15.2777777777777697
 20
-270.8333333333333144
 30
0.0
 11
-12.5
 21
-262.5
 31
0.0
 12
-18.75
 22
-268.75
 32
0.0
 13
-18.75
 23
-268.75
 33
0.0
210
0.0
220
0.0
230
-1.0
  0
SOLID
  5
568
  8
0
  6
CONTINUOUS
 10
-25.0
 20
-275.0
 30
0.0
 11
-15.2777777777777697
 21
-270.8333333333333144
 31
0.0
 12
-18.75
 22
-268.75
 32
0.0
 13
-18.75
 23
-268.75
 33
0.0
210
0.0
220
0.0
230
-1.0
  0
SOLID
  5
569
  8
0
  6
CONTINUOUS
 10
0.0
 20
-250.0
 30
0.0
 11
-12.5
 21
-262.5
 31
0.0
 12
-4.1666666666666661
 22
-262.5
 32
0.0
 13
-4.1666666666666661
 23
-262.5
 33
0.0
210
0.0
220
0.0
230
-1.0
  0
SOLID
  5
56A
  8
0
  6
CONTINUOUS
 10
-4.1666666666666661
 20
-262.5
 30
0.0
 11
-12.5
 21
-262.5
 31
0.0
 12
-8.3333333333333321
 22
-275.0
 32
0.0
 13
-8.3333333333333321
 23
-275.0
 33
0.0
210
0.0
220
0.0
230
-1.0
  0
SOLID
  5
56B
  8
0
  6
CONTINUOUS
 10
-25.0
 20
-275.0
 30
0.0
 11
-22.9166666666666607
 21
-281.25
 31
0.0
 12
-18.05555555555555
 22
-279.1666666666665719
 32
0.0
 13
-18.05555555555555
 23
-279.1666666666665719
 33
0.0
210
0.0
220
0.0
230
-1.0
  0
SOLID
  5
56C
  8
0
  6
CONTINUOUS
 10
-22.9166666666666607
 20
-281.25
 30
0.0
 11
-20.8333333333333286
 21
-287.5
 31
0.0
 12
-18.05555555555555
 22
-279.1666666666665719
 32
0.0
 13
-18.05555555555555
 23
-279.1666666666665719
 33
0.0
210
0.0
220
0.0
230
-1.0
  0
SOLID
  5
56D
  8
0
  6
CONTINUOUS
 10
-20.8333333333333286
 20
-287.5
 30
0.0
 11
-14.5833333333333304
 21
-281.25
 31
0.0
 12
-18.05555555555555
 22
-279.1666666666665719
 32
0.0
 13
-18.05555555555555
 23
-279.1666666666665719
 33
0.0
210
0.0
220
0.0
230
-1.0
  0
SOLID
  5
56E
  8
0
  6
CONTINUOUS
 10
-14.5833333333333304
 20
-281.25
 30
0.0
 11
-8.3333333333333321
 21
-275.0
 31
0.0
 12
-18.05555555555555
 22
-279.1666666666665719
 32
0.0
 13
-18.05555555555555
 23
-279.1666666666665719
 33
0.0
210
0.0
220
0.0
230
-1.0
  0
SOLID
  5
56F
  8
0
  6
CONTINUOUS
 10
-18.05555555555555
 20
-279.1666666666665719
 30
0.0
 11
-16.6666666666666607
 21
-275.0
 31
0.0
 12
-25.0
 22
-275.0
 32
0.0
 13
-25.0
 23
-275.0
 33
0.0
210
0.0
220
0.0
230
-1.0
  0
SOLID
  5
570
  8
0
  6
CONTINUOUS
 10
-8.3333333333333321
 20
-275.0
 30
0.0
 11
-16.6666666666666607
 21
-275.0
 31
0.0
 12
-18.05555555555555
 22
-279.1666666666665719
 32
0.0
 13
-18.05555555555555
 23
-279.1666666666665719
 33
0.0
210
0.0
220
0.0
230
-1.0
  0
SOLID
  5
571
  8
0
  6
CONTINUOUS
 10
-14.5833333333333304
 20
-281.25
 30
0.0
 11
-20.8333333333333286
 21
-287.5
 31
0.0
 12
-12.5
 22
-287.5
 32
0.0
 13
-12.5
 23
-287.5
 33
0.0
210
0.0
220
0.0
230
-1.0
  0
SOLID
  5
572
  8
0
  6
CONTINUOUS
 10
-14.5833333333333304
 20
-281.25
 30
0.0
 11
-12.5
 21
-287.5
 31
0.0
 12
-8.3333333333333321
 22
-275.0
 32
0.0
 13
-8.3333333333333321
 23
-275.0
 33
0.0
210
0.0
220
0.0
230
-1.0
  0
SOLID
  5
573
  8
0
  6
CONTINUOUS
 10
-12.5
 20
-287.5
 30
0.0
 11
-20.8333333333333286
 21
-287.5
 31
0.0
 12
-16.6666666666666607
 22
-300.0
 32
0.0
 13
-16.6666666666666607
 23
-300.0
 33
0.0
210
0.0
220
0.0
230
-1.0
  0
SOLID
  5
574
  8
0
  6
CONTINUOUS
 10
-4.1666666666666661
 20
-287.5
 30
0.0
 11
-12.5
 21
-287.5
 31
0.0
 12
-10.4166666666666607
 22
-293.75
 32
0.0
 13
-10.4166666666666607
 23
-293.75
 33
0.0
210
0.0
220
0.0
230
-1.0
  0
SOLID
  5
575
  8
0
  6
CONTINUOUS
 10
-10.4166666666666607
 20
-293.75
 30
0.0
 11
-12.5
 21
-287.5
 31
0.0
 12
-16.6666666666666607
 22
-300.0
 32
0.0
 13
-16.6666666666666607
 23
-300.0
 33
0.0
210
0.0
220
0.0
230
-1.0
  0
SOLID
  5
576
  8
0
  6
CONTINUOUS
 10
-12.5
 20
-287.5
 30
0.0
 11
-4.1666666666666661
 21
-287.5
 31
0.0
 12
-8.3333333333333321
 22
-275.0
 32
0.0
 13
-8.3333333333333321
 23
-275.0
 33
0.0
210
0.0
220
0.0
230
-1.0
  0
SOLID
  5
577
  8
0
  6
CONTINUOUS
 10
-4.1666666666666661
 20
-287.5
 30
0.0
 11
-6.944444444444442
 21
-295.8333333333333144
 31
0.0
 12
-2.083333333333333
 22
-293.75
 32
0.0
 13
-2.083333333333333
 23
-293.75
 33
0.0
210
0.0
220
0.0
230
-1.0
  0
SOLID
  5
578
  8
0
  6
CONTINUOUS
 10
-2.083333333333333
 20
-293.75
 30
0.0
 11
-6.944444444444442
 21
-295.8333333333333144
 31
0.0
 12
0.0
 22
-300.0
 32
0.0
 13
0.0
 23
-300.0
 33
0.0
210
0.0
220
0.0
230
-1.0
  0
SOLID
  5
579
  8
0
  6
CONTINUOUS
 10
0.0
 20
-300.0
 30
0.0
 11
-6.944444444444442
 21
-295.8333333333333144
 31
0.0
 12
-8.3333333333333321
 22
-300.0
 32
0.0
 13
-8.3333333333333321
 23
-300.0
 33
0.0
210
0.0
220
0.0
230
-1.0
  0
SOLID
  5
57A
  8
0
  6
CONTINUOUS
 10
-8.3333333333333321
 20
-300.0
 30
0.0
 11
-6.944444444444442
 21
-295.8333333333333144
 31
0.0
 12
-16.6666666666666607
 22
-300.0
 32
0.0
 13
-16.6666666666666607
 23
-300.0
 33
0.0
210
0.0
220
0.0
230
-1.0
  0
SOLID
  5
57B
  8
0
  6
CONTINUOUS
 10
-6.944444444444442
 20
-295.8333333333333144
 30
0.0
 11
-4.1666666666666661
 21
-287.5
 31
0.0
 12
-10.4166666666666607
 22
-293.75
 32
0.0
 13
-10.4166666666666607
 23
-293.75
 33
0.0
210
0.0
220
0.0
230
-1.0
  0
SOLID
  5
57C
  8
0
  6
CONTINUOUS
 10
-16.6666666666666607
 20
-300.0
 30
0.0
 11
-6.944444444444442
 21
-295.8333333333333144
 31
0.0
 12
-10.4166666666666607
 22
-293.75
 32
0.0
 13
-10.4166666666666607
 23
-293.75
 33
0.0
210
0.0
220
0.0
230
-1.0
  0
SOLID
  5
57D
  8
0
  6
CONTINUOUS
 10
-8.3333333333333321
 20
-275.0
 30
0.0
 11
-2.7777777777777768
 21
-275.0
 31
0.0
 12
-4.1666666666666661
 22
-262.5
 32
0.0
 13
-4.1666666666666661
 23
-262.5
 33
0.0
210
0.0
220
0.0
230
-1.0
  0
SOLID
  5
57E
  8
0
  6
CONTINUOUS
 10
0.0
 20
-250.0
 30
0.0
 11
-4.1666666666666661
 21
-262.5
 31
0.0
 12
-1.388888888888888
 22
-262.5
 32
0.0
 13
-1.388888888888888
 23
-262.5
 33
0.0
210
0.0
220
0.0
230
-1.0
  0
SOLID
  5
57F
  8
0
  6
CONTINUOUS
 10
-1.388888888888888
 20
-262.5
 30
0.0
 11
-4.1666666666666661
 21
-262.5
 31
0.0
 12
-2.7777777777777768
 22
-275.0
 32
0.0
 13
-2.7777777777777768
 23
-275.0
 33
0.0
210
0.0
220
0.0
230
-1.0
  0
SOLID
  5
580
  8
0
  6
CONTINUOUS
 10
-1.388888888888888
 20
-262.5
 30
0.0
 11
-2.7777777777777768
 21
-275.0
 31
0.0
 12
0.0
 22
-275.0
 32
0.0
 13
0.0
 23
-275.0
 33
0.0
210
0.0
220
0.0
230
-1.0
  0
SOLID
  5
581
  8
0
  6
CONTINUOUS
 10
-1.388888888888888
 20
-262.5
 30
0.0
 11
-0.4629629629629629
 21
-262.5
 31
0.0
 12
-0.6944444444444443
 22
-256.25
 32
0.0
 13
-0.6944444444444443
 23
-256.25
 33
0.0
210
0.0
220
0.0
230
-1.0
  0
SOLID
  5
582
  8
0
  6
CONTINUOUS
 10
-0.6944444444444443
 20
-256.25
 30
0.0
 11
-0.4629629629629629
 21
-262.5
 31
0.0
 12
0.0
 22
-250.0
 32
0.0
 13
0.0
 23
-250.0
 33
0.0
210
0.0
220
0.0
230
-1.0
  0
SOLID
  5
583
  8
0
  6
CONTINUOUS
 10
0.0
 20
-250.0
 30
0.0
 11
-0.4629629629629629
 21
-262.5
 31
0.0
 12
0.0
 22
-262.5
 32
0.0
 13
0.0
 23
-262.5
 33
0.0
210
0.0
220
0.0
230
-1.0
  0
SOLID
  5
584
  8
0
  6
CONTINUOUS
 10
0.0
 20
-262.5
 30
0.0
 11
-0.4629629629629629
 21
-262.5
 31
0.0
 12
0.0
 22
-275.0
 32
0.0
 13
0.0
 23
-275.0
 33
0.0
210
0.0
220
0.0
230
-1.0
  0
SOLID
  5
585
  8
0
  6
CONTINUOUS
 10
-0.4629629629629629
 20
-262.5
 30
0.0
 11
-1.388888888888888
 21
-262.5
 31
0.0
 12
-0.6944444444444443
 22
-268.75
 32
0.0
 13
-0.6944444444444443
 23
-268.75
 33
0.0
210
0.0
220
0.0
230
-1.0
  0
SOLID
  5
586
  8
0
  6
CONTINUOUS
 10
0.0
 20
-275.0
 30
0.0
 11
-0.4629629629629629
 21
-262.5
 31
0.0
 12
-0.6944444444444443
 22
-268.75
 32
0.0
 13
-0.6944444444444443
 23
-268.75
 33
0.0
210
0.0
220
0.0
230
-1.0
  0
SOLID
  5
587
  8
0
  6
CONTINUOUS
 10
0.0
 20
-300.0
 30
0.0
 11
-0.4629629629629629
 21
-287.5
 31
0.0
 12
-0.6944444444444443
 22
-293.75
 32
0.0
 13
-0.6944444444444443
 23
-293.75
 33
0.0
210
0.0
220
0.0
230
-1.0
  0
SOLID
  5
588
  8
0
  6
CONTINUOUS
 10
-0.6944444444444443
 20
-293.75
 30
0.0
 11
-0.4629629629629629
 21
-287.5
 31
0.0
 12
-1.388888888888888
 22
-287.5
 32
0.0
 13
-1.388888888888888
 23
-287.5
 33
0.0
210
0.0
220
0.0
230
-1.0
  0
SOLID
  5
589
  8
0
  6
CONTINUOUS
 10
-1.388888888888888
 20
-287.5
 30
0.0
 11
-0.4629629629629629
 21
-287.5
 31
0.0
 12
-0.6944444444444443
 22
-281.25
 32
0.0
 13
-0.6944444444444443
 23
-281.25
 33
0.0
210
0.0
220
0.0
230
-1.0
  0
SOLID
  5
58A
  8
0
  6
CONTINUOUS
 10
-0.6944444444444443
 20
-281.25
 30
0.0
 11
-0.4629629629629629
 21
-287.5
 31
0.0
 12
0.0
 22
-275.0
 32
0.0
 13
0.0
 23
-275.0
 33
0.0
210
0.0
220
0.0
230
-1.0
  0
SOLID
  5
58B
  8
0
  6
CONTINUOUS
 10
-0.4629629629629629
 20
-287.5
 30
0.0
 11
0.0
 21
-300.0
 31
0.0
 12
0.0
 22
-287.5
 32
0.0
 13
0.0
 23
-287.5
 33
0.0
210
0.0
220
0.0
230
-1.0
  0
SOLID
  5
58C
  8
0
  6
CONTINUOUS
 10
0.0
 20
-275.0
 30
0.0
 11
-0.4629629629629629
 21
-287.5
 31
0.0
 12
0.0
 22
-287.5
 32
0.0
 13
0.0
 23
-287.5
 33
0.0
210
0.0
220
0.0
230
-1.0
  0
SOLID
  5
58D
  8
0
  6
CONTINUOUS
 10
-1.388888888888888
 20
-287.5
 30
0.0
 11
0.0
 21
-275.0
 31
0.0
 12
-2.7777777777777768
 22
-275.0
 32
0.0
 13
-2.7777777777777768
 23
-275.0
 33
0.0
210
0.0
220
0.0
230
-1.0
  0
SOLID
  5
58E
  8
0
  6
CONTINUOUS
 10
-2.7777777777777768
 20
-275.0
 30
0.0
 11
-8.3333333333333321
 21
-275.0
 31
0.0
 12
-4.1666666666666661
 22
-287.5
 32
0.0
 13
-4.1666666666666661
 23
-287.5
 33
0.0
210
0.0
220
0.0
230
-1.0
  0
SOLID
  5
58F
  8
0
  6
CONTINUOUS
 10
-1.388888888888888
 20
-287.5
 30
0.0
 11
-2.7777777777777768
 21
-275.0
 31
0.0
 12
-4.1666666666666661
 22
-287.5
 32
0.0
 13
-4.1666666666666661
 23
-287.5
 33
0.0
210
0.0
220
0.0
230
-1.0
  0
SOLID
  5
590
  8
0
  6
CONTINUOUS
 10
-1.388888888888888
 20
-287.5
 30
0.0
 11
-4.1666666666666661
 21
-287.5
 31
0.0
 12
0.0
 22
-300.0
 32
0.0
 13
0.0
 23
-300.0
 33
0.0
210
0.0
220
0.0
230
-1.0
  0
SOLID
  5
591
  8
0
  6
CONTINUOUS
 10
0.0
 20
-350.0
 30
0.0
 11
-2.7777777777777768
 21
-325.0
 31
0.0
 12
-4.1666666666666661
 22
-337.5
 32
0.0
 13
-4.1666666666666661
 23
-337.5
 33
0.0
210
0.0
220
0.0
230
-1.0
  0
SOLID
  5
592
  8
0
  6
CONTINUOUS
 10
-4.1666666666666661
 20
-337.5
 30
0.0
 11
-2.7777777777777768
 21
-325.0
 31
0.0
 12
-8.3333333333333321
 22
-325.0
 32
0.0
 13
-8.3333333333333321
 23
-325.0
 33
0.0
210
0.0
220
0.0
230
-1.0
  0
SOLID
  5
593
  8
0
  6
CONTINUOUS
 10
-8.3333333333333321
 20
-325.0
 30
0.0
 11
-5.7870370370370363
 21
-322.9166666666665719
 31
0.0
 12
-7.2916666666666661
 22
-321.875
 32
0.0
 13
-7.2916666666666661
 23
-321.875
 33
0.0
210
0.0
220
0.0
230
-1.0
  0
SOLID
  5
594
  8
0
  6
CONTINUOUS
 10
-7.2916666666666661
 20
-321.875
 30
0.0
 11
-5.7870370370370363
 21
-322.9166666666665719
 31
0.0
 12
-6.2499999999999991
 22
-318.75
 32
0.0
 13
-6.2499999999999991
 23
-318.75
 33
0.0
210
0.0
220
0.0
230
-1.0
  0
SOLID
  5
595
  8
0
  6
CONTINUOUS
 10
-6.2499999999999991
 20
-318.75
 30
0.0
 11
-5.7870370370370363
 21
-322.9166666666665719
 31
0.0
 12
-4.5138888888888884
 22
-321.875
 32
0.0
 13
-4.5138888888888884
 23
-321.875
 33
0.0
210
0.0
220
0.0
230
-1.0
  0
SOLID
  5
596
  8
0
  6
CONTINUOUS
 10
-4.5138888888888884
 20
-321.875
 30
0.0
 11
-5.7870370370370363
 21
-322.9166666666665719
 31
0.0
 12
-2.7777777777777768
 22
-325.0
 32
0.0
 13
-2.7777777777777768
 23
-325.0
 33
0.0
210
0.0
220
0.0
230
-1.0
  0
SOLID
  5
597
  8
0
  6
CONTINUOUS
 10
-5.7870370370370363
 20
-322.9166666666665719
 30
0.0
 11
-8.3333333333333321
 21
-325.0
 31
0.0
 12
-5.5555555555555536
 22
-325.0
 32
0.0
 13
-5.5555555555555536
 23
-325.0
 33
0.0
210
0.0
220
0.0
230
-1.0
  0
SOLID
  5
598
  8
0
  6
CONTINUOUS
 10
-2.7777777777777768
 20
-325.0
 30
0.0
 11
-5.7870370370370363
 21
-322.9166666666665719
 31
0.0
 12
-5.5555555555555536
 22
-325.0
 32
0.0
 13
-5.5555555555555536
 23
-325.0
 33
0.0
210
0.0
220
0.0
230
-1.0
  0
SOLID
  5
599
  8
0
  6
CONTINUOUS
 10
-6.2499999999999991
 20
-318.75
 30
0.0
 11
-4.398148148148147
 21
-318.75
 31
0.0
 12
-5.2083333333333321
 22
-315.625
 32
0.0
 13
-5.2083333333333321
 23
-315.625
 33
0.0
210
0.0
220
0.0
230
-1.0
  0
SOLID
  5
59A
  8
0
  6
CONTINUOUS
 10
-5.2083333333333321
 20
-315.625
 30
0.0
 11
-4.398148148148147
 21
-318.75
 31
0.0
 12
-4.1666666666666661
 22
-312.5
 32
0.0
 13
-4.1666666666666661
 23
-312.5
 33
0.0
210
0.0
220
0.0
230
-1.0
  0
SOLID
  5
59B
  8
0
  6
CONTINUOUS
 10
-4.1666666666666661
 20
-312.5
 30
0.0
 11
-4.398148148148147
 21
-318.75
 31
0.0
 12
-3.472222222222221
 22
-318.75
 32
0.0
 13
-3.472222222222221
 23
-318.75
 33
0.0
210
0.0
220
0.0
230
-1.0
  0
SOLID
  5
59C
  8
0
  6
CONTINUOUS
 10
-2.7777777777777768
 20
-325.0
 30
0.0
 11
-3.472222222222221
 21
-318.75
 31
0.0
 12
-3.587962962962961
 22
-321.875
 32
0.0
 13
-3.587962962962961
 23
-321.875
 33
0.0
210
0.0
220
0.0
230
-1.0
  0
SOLID
  5
59D
  8
0
  6
CONTINUOUS
 10
-3.587962962962961
 20
-321.875
 30
0.0
 11
-3.472222222222221
 21
-318.75
 31
0.0
 12
-4.398148148148147
 22
-318.75
 32
0.0
 13
-4.398148148148147
 23
-318.75
 33
0.0
210
0.0
220
0.0
230
-1.0
  0
SOLID
  5
59E
  8
0
  6
CONTINUOUS
 10
-4.398148148148147
 20
-318.75
 30
0.0
 11
-6.2499999999999991
 21
-318.75
 31
0.0
 12
-4.5138888888888884
 22
-321.875
 32
0.0
 13
-4.5138888888888884
 23
-321.875
 33
0.0
210
0.0
220
0.0
230
-1.0
  0
SOLID
  5
59F
  8
0
  6
CONTINUOUS
 10
-2.7777777777777768
 20
-325.0
 30
0.0
 11
-4.398148148148147
 21
-318.75
 31
0.0
 12
-4.5138888888888884
 22
-321.875
 32
0.0
 13
-4.5138888888888884
 23
-321.875
 33
0.0
210
0.0
220
0.0
230
-1.0
  0
SOLID
  5
5A0
  8
0
  6
CONTINUOUS
 10
0.0
 20
-300.0
 30
0.0
 11
-4.1666666666666661
 21
-312.5
 31
0.0
 12
-1.388888888888888
 22
-312.5
 32
0.0
 13
-1.388888888888888
 23
-312.5
 33
0.0
210
0.0
220
0.0
230
-1.0
  0
SOLID
  5
5A1
  8
0
  6
CONTINUOUS
 10
-4.1666666666666661
 20
-312.5
 30
0.0
 11
-3.472222222222221
 21
-318.75
 31
0.0
 12
-1.388888888888888
 22
-312.5
 32
0.0
 13
-1.388888888888888
 23
-312.5
 33
0.0
210
0.0
220
0.0
230
-1.0
  0
SOLID
  5
5A2
  8
0
  6
CONTINUOUS
 10
-1.388888888888888
 20
-312.5
 30
0.0
 11
-3.472222222222221
 21
-318.75
 31
0.0
 12
-2.083333333333333
 22
-318.75
 32
0.0
 13
-2.083333333333333
 23
-318.75
 33
0.0
210
0.0
220
0.0
230
-1.0
  0
SOLID
  5
5A3
  8
0
  6
CONTINUOUS
 10
-2.083333333333333
 20
-318.75
 30
0.0
 11
-3.472222222222221
 21
-318.75
 31
0.0
 12
-2.7777777777777768
 22
-325.0
 32
0.0
 13
-2.7777777777777768
 23
-325.0
 33
0.0
210
0.0
220
0.0
230
-1.0
  0
SOLID
  5
5A4
  8
0
  6
CONTINUOUS
 10
-2.7777777777777768
 20
-325.0
 30
0.0
 11
0.0
 21
-350.0
 31
0.0
 12
0.0
 22
-325.0
 32
0.0
 13
0.0
 23
-325.0
 33
0.0
210
0.0
220
0.0
230
-1.0
  0
SOLID
  5
5A5
  8
0
  6
CONTINUOUS
 10
-2.083333333333333
 20
-318.75
 30
0.0
 11
-2.7777777777777768
 21
-325.0
 31
0.0
 12
-0.6944444444444443
 22
-318.75
 32
0.0
 13
-0.6944444444444443
 23
-318.75
 33
0.0
210
0.0
220
0.0
230
-1.0
  0
SOLID
  5
5A6
  8
0
  6
CONTINUOUS
 10
-2.083333333333333
 20
-318.75
 30
0.0
 11
-0.6944444444444443
 21
-318.75
 31
0.0
 12
-1.388888888888888
 22
-312.5
 32
0.0
 13
-1.388888888888888
 23
-312.5
 33
0.0
210
0.0
220
0.0
230
-1.0
  0
SOLID
  5
5A7
  8
0
  6
CONTINUOUS
 10
-0.6944444444444443
 20
-318.75
 30
0.0
 11
-2.7777777777777768
 21
-325.0
 31
0.0
 12
0.0
 22
-325.0
 32
0.0
 13
0.0
 23
-325.0
 33
0.0
210
0.0
220
0.0
230
-1.0
  0
SOLID
  5
5A8
  8
0
  6
CONTINUOUS
 10
-1.388888888888888
 20
-312.5
 30
0.0
 11
-0.4629629629629629
 21
-312.5
 31
0.0
 12
-0.6944444444444443
 22
-306.25
 32
0.0
 13
-0.6944444444444443
 23
-306.25
 33
0.0
210
0.0
220
0.0
230
-1.0
  0
SOLID
  5
5A9
  8
0
  6
CONTINUOUS
 10
-0.6944444444444443
 20
-306.25
 30
0.0
 11
-0.4629629629629629
 21
-312.5
 31
0.0
 12
0.0
 22
-300.0
 32
0.0
 13
0.0
 23
-300.0
 33
0.0
210
0.0
220
0.0
230
-1.0
  0
SOLID
  5
5AA
  8
0
  6
CONTINUOUS
 10
0.0
 20
-300.0
 30
0.0
 11
-0.4629629629629629
 21
-312.5
 31
0.0
 12
0.0
 22
-312.5
 32
0.0
 13
0.0
 23
-312.5
 33
0.0
210
0.0
220
0.0
230
-1.0
  0
SOLID
  5
5AB
  8
0
  6
CONTINUOUS
 10
0.0
 20
-318.75
 30
0.0
 11
0.0
 21
-312.5
 31
0.0
 12
-0.2314814814814814
 22
-318.75
 32
0.0
 13
-0.2314814814814814
 23
-318.75
 33
0.0
210
0.0
220
0.0
230
-1.0
  0
SOLID
  5
5AC
  8
0
  6
CONTINUOUS
 10
0.0
 20
-318.75
 30
0.0
 11
-0.2314814814814814
 21
-318.75
 31
0.0
 12
0.0
 22
-325.0
 32
0.0
 13
0.0
 23
-325.0
 33
0.0
210
0.0
220
0.0
230
-1.0
  0
SOLID
  5
5AD
  8
0
  6
CONTINUOUS
 10
-0.2314814814814814
 20
-318.75
 30
0.0
 11
0.0
 21
-312.5
 31
0.0
 12
-0.4629629629629629
 22
-312.5
 32
0.0
 13
-0.4629629629629629
 23
-312.5
 33
0.0
210
0.0
220
0.0
230
-1.0
  0
SOLID
  5
5AE
  8
0
  6
CONTINUOUS
 10
-0.4629629629629629
 20
-312.5
 30
0.0
 11
-1.388888888888888
 21
-312.5
 31
0.0
 12
-0.6944444444444443
 22
-318.75
 32
0.0
 13
-0.6944444444444443
 23
-318.75
 33
0.0
210
0.0
220
0.0
230
-1.0
  0
SOLID
  5
5AF
  8
0
  6
CONTINUOUS
 10
-0.2314814814814814
 20
-318.75
 30
0.0
 11
-0.4629629629629629
 21
-312.5
 31
0.0
 12
-0.6944444444444443
 22
-318.75
 32
0.0
 13
-0.6944444444444443
 23
-318.75
 33
0.0
210
0.0
220
0.0
230
-1.0
  0
SOLID
  5
5B0
  8
0
  6
CONTINUOUS
 10
-0.2314814814814814
 20
-318.75
 30
0.0
 11
-0.6944444444444443
 21
-318.75
 31
0.0
 12
0.0
 22
-325.0
 32
0.0
 13
0.0
 23
-325.0
 33
0.0
210
0.0
220
0.0
230
-1.0
  0
SOLID
  5
5B1
  8
0
  6
CONTINUOUS
 10
-8.3333333333333321
 20
-325.0
 30
0.0
 11
0.0
 21
-300.0
 31
0.0
 12
-16.6666666666666607
 22
-300.0
 32
0.0
 13
-16.6666666666666607
 23
-300.0
 33
0.0
210
0.0
220
0.0
230
-1.0
  0
SOLID
  5
5B2
  8
0
  6
CONTINUOUS
 10
-16.6666666666666607
 20
-300.0
 30
0.0
 11
-30.55555555555555
 21
-308.3333333333333144
 31
0.0
 12
-20.8333333333333286
 22
-312.5
 32
0.0
 13
-20.8333333333333286
 23
-312.5
 33
0.0
210
0.0
220
0.0
230
-1.0
  0
SOLID
  5
5B3
  8
0
  6
CONTINUOUS
 10
-20.8333333333333286
 20
-312.5
 30
0.0
 11
-30.55555555555555
 21
-308.3333333333333144
 31
0.0
 12
-25.0
 22
-325.0
 32
0.0
 13
-25.0
 23
-325.0
 33
0.0
210
0.0
220
0.0
230
-1.0
  0
SOLID
  5
5B4
  8
0
  6
CONTINUOUS
 10
-25.0
 20
-325.0
 30
0.0
 11
-30.55555555555555
 21
-308.3333333333333144
 31
0.0
 12
-37.5
 22
-312.5
 32
0.0
 13
-37.5
 23
-312.5
 33
0.0
210
0.0
220
0.0
230
-1.0
  0
SOLID
  5
5B5
  8
0
  6
CONTINUOUS
 10
-50.0
 20
-300.0
 30
0.0
 11
-37.5
 21
-312.5
 31
0.0
 12
-40.2777777777777715
 22
-304.1666666666665719
 32
0.0
 13
-40.2777777777777715
 23
-304.1666666666665719
 33
0.0
210
0.0
220
0.0
230
-1.0
  0
SOLID
  5
5B6
  8
0
  6
CONTINUOUS
 10
-40.2777777777777715
 20
-304.1666666666665719
 30
0.0
 11
-37.5
 21
-312.5
 31
0.0
 12
-30.55555555555555
 22
-308.3333333333333144
 32
0.0
 13
-30.55555555555555
 23
-308.3333333333333144
 33
0.0
210
0.0
220
0.0
230
-1.0
  0
SOLID
  5
5B7
  8
0
  6
CONTINUOUS
 10
-23.6111111111111107
 20
-304.1666666666665719
 30
0.0
 11
-24.537037037037031
 21
-301.3888888888889142
 31
0.0
 12
-28.4722222222222214
 22
-302.0833333333333144
 32
0.0
 13
-28.4722222222222214
 23
-302.0833333333333144
 33
0.0
210
0.0
220
0.0
230
-1.0
  0
SOLID
  5
5B8
  8
0
  6
CONTINUOUS
 10
-28.4722222222222214
 20
-302.0833333333333144
 30
0.0
 11
-24.537037037037031
 21
-301.3888888888889142
 31
0.0
 12
-33.3333333333333286
 22
-300.0
 32
0.0
 13
-33.3333333333333286
 23
-300.0
 33
0.0
210
0.0
220
0.0
230
-1.0
  0
SOLID
  5
5B9
  8
0
  6
CONTINUOUS
 10
-33.3333333333333286
 20
-300.0
 30
0.0
 11
-24.537037037037031
 21
-301.3888888888889142
 31
0.0
 12
-25.0
 22
-300.0
 32
0.0
 13
-25.0
 23
-300.0
 33
0.0
210
0.0
220
0.0
230
-1.0
  0
SOLID
  5
5BA
  8
0
  6
CONTINUOUS
 10
-25.0
 20
-300.0
 30
0.0
 11
-24.537037037037031
 21
-301.3888888888889142
 31
0.0
 12
-16.6666666666666607
 22
-300.0
 32
0.0
 13
-16.6666666666666607
 23
-300.0
 33
0.0
210
0.0
220
0.0
230
-1.0
  0
SOLID
  5
5BB
  8
0
  6
CONTINUOUS
 10
-24.537037037037031
 20
-301.3888888888889142
 30
0.0
 11
-23.6111111111111107
 21
-304.1666666666665719
 31
0.0
 12
-20.1388888888888893
 22
-302.0833333333333144
 32
0.0
 13
-20.1388888888888893
 23
-302.0833333333333144
 33
0.0
210
0.0
220
0.0
230
-1.0
  0
SOLID
  5
5BC
  8
0
  6
CONTINUOUS
 10
-16.6666666666666607
 20
-300.0
 30
0.0
 11
-24.537037037037031
 21
-301.3888888888889142
 31
0.0
 12
-20.1388888888888893
 22
-302.0833333333333144
 32
0.0
 13
-20.1388888888888893
 23
-302.0833333333333144
 33
0.0
210
0.0
220
0.0
230
-1.0
  0
SOLID
  5
5BD
  8
0
  6
CONTINUOUS
 10
-23.6111111111111107
 20
-304.1666666666665719
 30
0.0
 11
-33.3333333333333286
 21
-300.0
 31
0.0
 12
-30.55555555555555
 22
-308.3333333333333144
 32
0.0
 13
-30.55555555555555
 23
-308.3333333333333144
 33
0.0
210
0.0
220
0.0
230
-1.0
  0
SOLID
  5
5BE
  8
0
  6
CONTINUOUS
 10
-40.2777777777777715
 20
-304.1666666666665719
 30
0.0
 11
-30.55555555555555
 21
-308.3333333333333144
 31
0.0
 12
-33.3333333333333286
 22
-300.0
 32
0.0
 13
-33.3333333333333286
 23
-300.0
 33
0.0
210
0.0
220
0.0
230
-1.0
  0
SOLID
  5
5BF
  8
0
  6
CONTINUOUS
 10
-40.2777777777777715
 20
-304.1666666666665719
 30
0.0
 11
-33.3333333333333286
 21
-300.0
 31
0.0
 12
-50.0
 22
-300.0
 32
0.0
 13
-50.0
 23
-300.0
 33
0.0
210
0.0
220
0.0
230
-1.0
  0
SOLID
  5
5C0
  8
0
  6
CONTINUOUS
 10
-25.0
 20
-325.0
 30
0.0
 11
-18.05555555555555
 21
-320.8333333333333144
 31
0.0
 12
-22.9166666666666607
 22
-318.75
 32
0.0
 13
-22.9166666666666607
 23
-318.75
 33
0.0
210
0.0
220
0.0
230
-1.0
  0
SOLID
  5
5C1
  8
0
  6
CONTINUOUS
 10
-22.9166666666666607
 20
-318.75
 30
0.0
 11
-18.05555555555555
 21
-320.8333333333333144
 31
0.0
 12
-20.8333333333333286
 22
-312.5
 32
0.0
 13
-20.8333333333333286
 23
-312.5
 33
0.0
210
0.0
220
0.0
230
-1.0
  0
SOLID
  5
5C2
  8
0
  6
CONTINUOUS
 10
-20.8333333333333286
 20
-312.5
 30
0.0
 11
-18.05555555555555
 21
-320.8333333333333144
 31
0.0
 12
-14.5833333333333304
 22
-318.75
 32
0.0
 13
-14.5833333333333304
 23
-318.75
 33
0.0
210
0.0
220
0.0
230
-1.0
  0
SOLID
  5
5C3
  8
0
  6
CONTINUOUS
 10
-11.4583333333333304
 20
-321.875
 30
0.0
 11
-14.5833333333333304
 21
-318.75
 31
0.0
 12
-13.1944444444444393
 22
-322.9166666666665719
 32
0.0
 13
-13.1944444444444393
 23
-322.9166666666665719
 33
0.0
210
0.0
220
0.0
230
-1.0
  0
SOLID
  5
5C4
  8
0
  6
CONTINUOUS
 10
-11.4583333333333304
 20
-321.875
 30
0.0
 11
-13.1944444444444393
 21
-322.9166666666665719
 31
0.0
 12
-8.3333333333333321
 22
-325.0
 32
0.0
 13
-8.3333333333333321
 23
-325.0
 33
0.0
210
0.0
220
0.0
230
-1.0
  0
SOLID
  5
5C5
  8
0
  6
CONTINUOUS
 10
-13.1944444444444393
 20
-322.9166666666665719
 30
0.0
 11
-14.5833333333333304
 21
-318.75
 31
0.0
 12
-18.05555555555555
 22
-320.8333333333333144
 32
0.0
 13
-18.05555555555555
 23
-320.8333333333333144
 33
0.0
210
0.0
220
0.0
230
-1.0
  0
SOLID
  5
5C6
  8
0
  6
CONTINUOUS
 10
-18.05555555555555
 20
-320.8333333333333144
 30
0.0
 11
-25.0
 21
-325.0
 31
0.0
 12
-16.6666666666666607
 22
-325.0
 32
0.0
 13
-16.6666666666666607
 23
-325.0
 33
0.0
210
0.0
220
0.0
230
-1.0
  0
SOLID
  5
5C7
  8
0
  6
CONTINUOUS
 10
-13.1944444444444393
 20
-322.9166666666665719
 30
0.0
 11
-18.05555555555555
 21
-320.8333333333333144
 31
0.0
 12
-16.6666666666666607
 22
-325.0
 32
0.0
 13
-16.6666666666666607
 23
-325.0
 33
0.0
210
0.0
220
0.0
230
-1.0
  0
SOLID
  5
5C8
  8
0
  6
CONTINUOUS
 10
-13.1944444444444393
 20
-322.9166666666665719
 30
0.0
 11
-16.6666666666666607
 21
-325.0
 31
0.0
 12
-8.3333333333333321
 22
-325.0
 32
0.0
 13
-8.3333333333333321
 23
-325.0
 33
0.0
210
0.0
220
0.0
230
-1.0
  0
SOLID
  5
5C9
  8
0
  6
CONTINUOUS
 10
-14.5833333333333304
 20
-318.75
 30
0.0
 11
-12.5
 21
-312.5
 31
0.0
 12
-20.8333333333333286
 22
-312.5
 32
0.0
 13
-20.8333333333333286
 23
-312.5
 33
0.0
210
0.0
220
0.0
230
-1.0
  0
SOLID
  5
5CA
  8
0
  6
CONTINUOUS
 10
-11.4583333333333304
 20
-321.875
 30
0.0
 11
-10.4166666666666607
 21
-318.75
 31
0.0
 12
-14.5833333333333304
 22
-318.75
 32
0.0
 13
-14.5833333333333304
 23
-318.75
 33
0.0
210
0.0
220
0.0
230
-1.0
  0
SOLID
  5
5CB
  8
0
  6
CONTINUOUS
 10
-8.3333333333333321
 20
-325.0
 30
0.0
 11
-9.3749999999999982
 21
-321.875
 31
0.0
 12
-11.4583333333333304
 22
-321.875
 32
0.0
 13
-11.4583333333333304
 23
-321.875
 33
0.0
210
0.0
220
0.0
230
-1.0
  0
SOLID
  5
5CC
  8
0
  6
CONTINUOUS
 10
-9.3749999999999982
 20
-321.875
 30
0.0
 11
-10.4166666666666607
 21
-318.75
 31
0.0
 12
-11.4583333333333304
 22
-321.875
 32
0.0
 13
-11.4583333333333304
 23
-321.875
 33
0.0
210
0.0
220
0.0
230
-1.0
  0
SOLID
  5
5CD
  8
0
  6
CONTINUOUS
 10
-10.4166666666666607
 20
-318.75
 30
0.0
 11
-12.5
 21
-312.5
 31
0.0
 12
-14.5833333333333304
 22
-318.75
 32
0.0
 13
-14.5833333333333304
 23
-318.75
 33
0.0
210
0.0
220
0.0
230
-1.0
  0
SOLID
  5
5CE
  8
0
  6
CONTINUOUS
 10
-12.5
 20
-312.5
 30
0.0
 11
-16.6666666666666607
 21
-300.0
 31
0.0
 12
-20.8333333333333286
 22
-312.5
 32
0.0
 13
-20.8333333333333286
 23
-312.5
 33
0.0
210
0.0
220
0.0
230
-1.0
  0
SOLID
  5
5CF
  8
0
  6
CONTINUOUS
 10
-8.3333333333333321
 20
-325.0
 30
0.0
 11
-25.0
 21
-325.0
 31
0.0
 12
0.0
 22
-350.0
 32
0.0
 13
0.0
 23
-350.0
 33
0.0
210
0.0
220
0.0
230
-1.0
  0
SOLID
  5
5D0
  8
0
  6
CONTINUOUS
 10
-59.7222222222222072
 20
-295.8333333333333144
 30
0.0
 11
-62.5
 21
-287.5
 31
0.0
 12
-69.4444444444444144
 22
-291.6666666666665719
 32
0.0
 13
-69.4444444444444144
 23
-291.6666666666665719
 33
0.0
210
0.0
220
0.0
230
-1.0
  0
SOLID
  5
5D1
  8
0
  6
CONTINUOUS
 10
-59.7222222222222072
 20
-295.8333333333333144
 30
0.0
 11
-50.0
 21
-300.0
 31
0.0
 12
-62.5
 22
-287.5
 32
0.0
 13
-62.5
 23
-287.5
 33
0.0
210
0.0
220
0.0
230
-1.0
  0
SOLID
  5
5D2
  8
0
  6
CONTINUOUS
 10
-62.5
 20
-287.5
 30
0.0
 11
-75.0
 21
-275.0
 31
0.0
 12
-69.4444444444444144
 22
-291.6666666666665719
 32
0.0
 13
-69.4444444444444144
 23
-291.6666666666665719
 33
0.0
210
0.0
220
0.0
230
-1.0
  0
SOLID
  5
5D3
  8
0
  6
CONTINUOUS
 10
-75.0
 20
-275.0
 30
0.0
 11
-77.0833333333333286
 21
-281.25
 31
0.0
 12
-74.5370370370370239
 22
-284.7222222222221717
 32
0.0
 13
-74.5370370370370239
 23
-284.7222222222221717
 33
0.0
210
0.0
220
0.0
230
-1.0
  0
SOLID
  5
5D4
  8
0
  6
CONTINUOUS
 10
-77.0833333333333286
 20
-281.25
 30
0.0
 11
-79.1666666666666572
 21
-287.5
 31
0.0
 12
-74.5370370370370239
 22
-284.7222222222221717
 32
0.0
 13
-74.5370370370370239
 23
-284.7222222222221717
 33
0.0
210
0.0
220
0.0
230
-1.0
  0
SOLID
  5
5D5
  8
0
  6
CONTINUOUS
 10
-79.1666666666666572
 20
-287.5
 30
0.0
 11
-74.3055555555555429
 21
-289.5833333333333144
 31
0.0
 12
-74.5370370370370239
 22
-284.7222222222221717
 32
0.0
 13
-74.5370370370370239
 23
-284.7222222222221717
 33
0.0
210
0.0
220
0.0
230
-1.0
  0
SOLID
  5
5D6
  8
0
  6
CONTINUOUS
 10
-74.3055555555555429
 20
-289.5833333333333144
 30
0.0
 11
-69.4444444444444144
 21
-291.6666666666665719
 31
0.0
 12
-74.5370370370370239
 22
-284.7222222222221717
 32
0.0
 13
-74.5370370370370239
 23
-284.7222222222221717
 33
0.0
210
0.0
220
0.0
230
-1.0
  0
SOLID
  5
5D7
  8
0
  6
CONTINUOUS
 10
-74.5370370370370239
 20
-284.7222222222221717
 30
0.0
 11
-72.2222222222222143
 21
-283.3333333333333144
 31
0.0
 12
-75.0
 22
-275.0
 32
0.0
 13
-75.0
 23
-275.0
 33
0.0
210
0.0
220
0.0
230
-1.0
  0
SOLID
  5
5D8
  8
0
  6
CONTINUOUS
 10
-69.4444444444444144
 20
-291.6666666666665719
 30
0.0
 11
-72.2222222222222143
 21
-283.3333333333333144
 31
0.0
 12
-74.5370370370370239
 22
-284.7222222222221717
 32
0.0
 13
-74.5370370370370239
 23
-284.7222222222221717
 33
0.0
210
0.0
220
0.0
230
-1.0
  0
SOLID
  5
5D9
  8
0
  6
CONTINUOUS
 10
-79.1666666666666572
 20
-287.5
 30
0.0
 11
-81.25
 21
-293.75
 31
0.0
 12
-77.3148148148147953
 22
-293.0555555555554861
 32
0.0
 13
-77.3148148148147953
 23
-293.0555555555554861
 33
0.0
210
0.0
220
0.0
230
-1.0
  0
SOLID
  5
5DA
  8
0
  6
CONTINUOUS
 10
-81.25
 20
-293.75
 30
0.0
 11
-83.3333333333333286
 21
-300.0
 31
0.0
 12
-77.3148148148147953
 22
-293.0555555555554861
 32
0.0
 13
-77.3148148148147953
 23
-293.0555555555554861
 33
0.0
210
0.0
220
0.0
230
-1.0
  0
SOLID
  5
5DB
  8
0
  6
CONTINUOUS
 10
-83.3333333333333286
 20
-300.0
 30
0.0
 11
-76.3888888888888857
 21
-295.8333333333333144
 31
0.0
 12
-77.3148148148147953
 22
-293.0555555555554861
 32
0.0
 13
-77.3148148148147953
 23
-293.0555555555554861
 33
0.0
210
0.0
220
0.0
230
-1.0
  0
SOLID
  5
5DC
  8
0
  6
CONTINUOUS
 10
-76.3888888888888857
 20
-295.8333333333333144
 30
0.0
 11
-72.9166666666666572
 21
-293.75
 31
0.0
 12
-77.3148148148147953
 22
-293.0555555555554861
 32
0.0
 13
-77.3148148148147953
 23
-293.0555555555554861
 33
0.0
210
0.0
220
0.0
230
-1.0
  0
SOLID
  5
5DD
  8
0
  6
CONTINUOUS
 10
-69.4444444444444144
 20
-291.6666666666665719
 30
0.0
 11
-73.3796296296296049
 21
-292.3611111111110858
 31
0.0
 12
-72.9166666666666572
 22
-293.75
 32
0.0
 13
-72.9166666666666572
 23
-293.75
 33
0.0
210
0.0
220
0.0
230
-1.0
  0
SOLID
  5
5DE
  8
0
  6
CONTINUOUS
 10
-73.3796296296296049
 20
-292.3611111111110858
 30
0.0
 11
-77.3148148148147953
 21
-293.0555555555554861
 31
0.0
 12
-72.9166666666666572
 22
-293.75
 32
0.0
 13
-72.9166666666666572
 23
-293.75
 33
0.0
210
0.0
220
0.0
230
-1.0
  0
SOLID
  5
5DF
  8
0
  6
CONTINUOUS
 10
-77.3148148148147953
 20
-293.0555555555554861
 30
0.0
 11
-74.3055555555555429
 21
-289.5833333333333144
 31
0.0
 12
-79.1666666666666572
 22
-287.5
 32
0.0
 13
-79.1666666666666572
 23
-287.5
 33
0.0
210
0.0
220
0.0
230
-1.0
  0
SOLID
  5
5E0
  8
0
  6
CONTINUOUS
 10
-69.4444444444444144
 20
-291.6666666666665719
 30
0.0
 11
-71.8749999999999858
 21
-290.625
 31
0.0
 12
-73.6882716049382509
 22
-291.4351851851852189
 32
0.0
 13
-73.6882716049382509
 23
-291.4351851851852189
 33
0.0
210
0.0
220
0.0
230
-1.0
  0
SOLID
  5
5E1
  8
0
  6
CONTINUOUS
 10
-71.8749999999999858
 20
-290.625
 30
0.0
 11
-74.3055555555555429
 21
-289.5833333333333144
 31
0.0
 12
-73.6882716049382509
 22
-291.4351851851852189
 32
0.0
 13
-73.6882716049382509
 23
-291.4351851851852189
 33
0.0
210
0.0
220
0.0
230
-1.0
  0
SOLID
  5
5E2
  8
0
  6
CONTINUOUS
 10
-74.3055555555555429
 20
-289.5833333333333144
 30
0.0
 11
-75.8101851851851762
 21
-291.3194444444444002
 31
0.0
 12
-73.6882716049382509
 22
-291.4351851851852189
 32
0.0
 13
-73.6882716049382509
 23
-291.4351851851852189
 33
0.0
210
0.0
220
0.0
230
-1.0
  0
SOLID
  5
5E3
  8
0
  6
CONTINUOUS
 10
-75.8101851851851762
 20
-291.3194444444444002
 30
0.0
 11
-77.3148148148147953
 21
-293.0555555555554861
 31
0.0
 12
-73.6882716049382509
 22
-291.4351851851852189
 32
0.0
 13
-73.6882716049382509
 23
-291.4351851851852189
 33
0.0
210
0.0
220
0.0
230
-1.0
  0
SOLID
  5
5E4
  8
0
  6
CONTINUOUS
 10
-73.6882716049382509
 20
-291.4351851851852189
 30
0.0
 11
-73.3796296296296049
 21
-292.3611111111110858
 31
0.0
 12
-69.4444444444444144
 22
-291.6666666666665719
 32
0.0
 13
-69.4444444444444144
 23
-291.6666666666665719
 33
0.0
210
0.0
220
0.0
230
-1.0
  0
SOLID
  5
5E5
  8
0
  6
CONTINUOUS
 10
-77.3148148148147953
 20
-293.0555555555554861
 30
0.0
 11
-73.3796296296296049
 21
-292.3611111111110858
 31
0.0
 12
-73.6882716049382509
 22
-291.4351851851852189
 32
0.0
 13
-73.6882716049382509
 23
-291.4351851851852189
 33
0.0
210
0.0
220
0.0
230
-1.0
  0
SOLID
  5
5E6
  8
0
  6
CONTINUOUS
 10
-59.7222222222222072
 20
-295.8333333333333144
 30
0.0
 11
-66.6666666666666572
 21
-300.0
 31
0.0
 12
-50.0
 22
-300.0
 32
0.0
 13
-50.0
 23
-300.0
 33
0.0
210
0.0
220
0.0
230
-1.0
  0
SOLID
  5
5E7
  8
0
  6
CONTINUOUS
 10
-59.7222222222222072
 20
-295.8333333333333144
 30
0.0
 11
-69.4444444444444144
 21
-291.6666666666665719
 31
0.0
 12
-66.6666666666666572
 22
-300.0
 32
0.0
 13
-66.6666666666666572
 23
-300.0
 33
0.0
210
0.0
220
0.0
230
-1.0
  0
SOLID
  5
5E8
  8
0
  6
CONTINUOUS
 10
-76.3888888888888857
 20
-295.8333333333333144
 30
0.0
 11
-71.5277777777777715
 21
-297.9166666666665719
 31
0.0
 12
-70.8333333333333144
 22
-295.8333333333333144
 32
0.0
 13
-70.8333333333333144
 23
-295.8333333333333144
 33
0.0
210
0.0
220
0.0
230
-1.0
  0
SOLID
  5
5E9
  8
0
  6
CONTINUOUS
 10
-71.5277777777777715
 20
-297.9166666666665719
 30
0.0
 11
-66.6666666666666572
 21
-300.0
 31
0.0
 12
-70.8333333333333144
 22
-295.8333333333333144
 32
0.0
 13
-70.8333333333333144
 23
-295.8333333333333144
 33
0.0
210
0.0
220
0.0
230
-1.0
  0
SOLID
  5
5EA
  8
0
  6
CONTINUOUS
 10
-66.6666666666666572
 20
-300.0
 30
0.0
 11
-68.0555555555555429
 21
-295.8333333333333144
 31
0.0
 12
-70.8333333333333144
 22
-295.8333333333333144
 32
0.0
 13
-70.8333333333333144
 23
-295.8333333333333144
 33
0.0
210
0.0
220
0.0
230
-1.0
  0
SOLID
  5
5EB
  8
0
  6
CONTINUOUS
 10
-68.0555555555555429
 20
-295.8333333333333144
 30
0.0
 11
-69.4444444444444144
 21
-291.6666666666665719
 31
0.0
 12
-70.8333333333333144
 22
-295.8333333333333144
 32
0.0
 13
-70.8333333333333144
 23
-295.8333333333333144
 33
0.0
210
0.0
220
0.0
230
-1.0
  0
SOLID
  5
5EC
  8
0
  6
CONTINUOUS
 10
-70.8333333333333144
 20
-295.8333333333333144
 30
0.0
 11
-72.9166666666666572
 21
-293.75
 31
0.0
 12
-76.3888888888888857
 22
-295.8333333333333144
 32
0.0
 13
-76.3888888888888857
 23
-295.8333333333333144
 33
0.0
210
0.0
220
0.0
230
-1.0
  0
SOLID
  5
5ED
  8
0
  6
CONTINUOUS
 10
-69.4444444444444144
 20
-291.6666666666665719
 30
0.0
 11
-72.9166666666666572
 21
-293.75
 31
0.0
 12
-70.8333333333333144
 22
-295.8333333333333144
 32
0.0
 13
-70.8333333333333144
 23
-295.8333333333333144
 33
0.0
210
0.0
220
0.0
230
-1.0
  0
SOLID
  5
5EE
  8
0
  6
CONTINUOUS
 10
-76.3888888888888857
 20
-295.8333333333333144
 30
0.0
 11
-83.3333333333333286
 21
-300.0
 31
0.0
 12
-66.6666666666666572
 22
-300.0
 32
0.0
 13
-66.6666666666666572
 23
-300.0
 33
0.0
210
0.0
220
0.0
230
-1.0
  0
SOLID
  5
5EF
  8
0
  6
CONTINUOUS
 10
-75.0
 20
-275.0
 30
0.0
 11
-100.0
 21
-250.0
 31
0.0
 12
-83.3333333333333286
 22
-300.0
 32
0.0
 13
-83.3333333333333286
 23
-300.0
 33
0.0
210
0.0
220
0.0
230
-1.0
  0
SOLID
  5
5F0
  8
0
  6
CONTINUOUS
 10
-100.0
 20
-250.0
 30
0.0
 11
-100.0
 21
-300.0
 31
0.0
 12
-83.3333333333333286
 22
-300.0
 32
0.0
 13
-83.3333333333333286
 23
-300.0
 33
0.0
210
0.0
220
0.0
230
-1.0
  0
SOLID
  5
5F1
  8
0
  6
CONTINUOUS
 10
-100.0
 20
-300.0
 30
0.0
 11
-100.0
 21
-350.0
 31
0.0
 12
-83.3333333333333286
 22
-300.0
 32
0.0
 13
-83.3333333333333286
 23
-300.0
 33
0.0
210
0.0
220
0.0
230
-1.0
  0
SOLID
  5
5F2
  8
0
  6
CONTINUOUS
 10
-83.3333333333333286
 20
-300.0
 30
0.0
 11
-79.1666666666666572
 21
-312.5
 31
0.0
 12
-69.4444444444444144
 22
-308.3333333333333144
 32
0.0
 13
-69.4444444444444144
 23
-308.3333333333333144
 33
0.0
210
0.0
220
0.0
230
-1.0
  0
SOLID
  5
5F3
  8
0
  6
CONTINUOUS
 10
-79.1666666666666572
 20
-312.5
 30
0.0
 11
-75.0
 21
-325.0
 31
0.0
 12
-69.4444444444444144
 22
-308.3333333333333144
 32
0.0
 13
-69.4444444444444144
 23
-308.3333333333333144
 33
0.0
210
0.0
220
0.0
230
-1.0
  0
SOLID
  5
5F4
  8
0
  6
CONTINUOUS
 10
-75.0
 20
-325.0
 30
0.0
 11
-62.5
 21
-312.5
 31
0.0
 12
-69.4444444444444144
 22
-308.3333333333333144
 32
0.0
 13
-69.4444444444444144
 23
-308.3333333333333144
 33
0.0
210
0.0
220
0.0
230
-1.0
  0
SOLID
  5
5F5
  8
0
  6
CONTINUOUS
 10
-59.7222222222222072
 20
-304.1666666666665719
 30
0.0
 11
-61.1111111111111001
 21
-308.3333333333333144
 31
0.0
 12
-59.375
 22
-309.375
 32
0.0
 13
-59.375
 23
-309.375
 33
0.0
210
0.0
220
0.0
230
-1.0
  0
SOLID
  5
5F6
  8
0
  6
CONTINUOUS
 10
-61.1111111111111001
 20
-308.3333333333333144
 30
0.0
 11
-62.5
 21
-312.5
 31
0.0
 12
-59.375
 22
-309.375
 32
0.0
 13
-59.375
 23
-309.375
 33
0.0
210
0.0
220
0.0
230
-1.0
  0
SOLID
  5
5F7
  8
0
  6
CONTINUOUS
 10
-59.375
 20
-309.375
 30
0.0
 11
-56.25
 21
-306.25
 31
0.0
 12
-59.7222222222222072
 22
-304.1666666666665719
 32
0.0
 13
-59.7222222222222072
 23
-304.1666666666665719
 33
0.0
210
0.0
220
0.0
230
-1.0
  0
SOLID
  5
5F8
  8
0
  6
CONTINUOUS
 10
-56.25
 20
-306.25
 30
0.0
 11
-50.0
 21
-300.0
 31
0.0
 12
-59.7222222222222072
 22
-304.1666666666665719
 32
0.0
 13
-59.7222222222222072
 23
-304.1666666666665719
 33
0.0
210
0.0
220
0.0
230
-1.0
  0
SOLID
  5
5F9
  8
0
  6
CONTINUOUS
 10
-59.7222222222222072
 20
-304.1666666666665719
 30
0.0
 11
-63.8888888888888715
 21
-308.3333333333333144
 31
0.0
 12
-61.1111111111111001
 22
-308.3333333333333144
 32
0.0
 13
-61.1111111111111001
 23
-308.3333333333333144
 33
0.0
210
0.0
220
0.0
230
-1.0
  0
SOLID
  5
5FA
  8
0
  6
CONTINUOUS
 10
-61.1111111111111001
 20
-308.3333333333333144
 30
0.0
 11
-63.8888888888888715
 21
-308.3333333333333144
 31
0.0
 12
-62.5
 22
-312.5
 32
0.0
 13
-62.5
 23
-312.5
 33
0.0
210
0.0
220
0.0
230
-1.0
  0
SOLID
  5
5FB
  8
0
  6
CONTINUOUS
 10
-62.5
 20
-312.5
 30
0.0
 11
-63.8888888888888715
 21
-308.3333333333333144
 31
0.0
 12
-65.9722222222222143
 22
-310.4166666666665719
 32
0.0
 13
-65.9722222222222143
 23
-310.4166666666665719
 33
0.0
210
0.0
220
0.0
230
-1.0
  0
SOLID
  5
5FC
  8
0
  6
CONTINUOUS
 10
-65.9722222222222143
 20
-310.4166666666665719
 30
0.0
 11
-63.8888888888888715
 21
-308.3333333333333144
 31
0.0
 12
-69.4444444444444144
 22
-308.3333333333333144
 32
0.0
 13
-69.4444444444444144
 23
-308.3333333333333144
 33
0.0
210
0.0
220
0.0
230
-1.0
  0
SOLID
  5
5FD
  8
0
  6
CONTINUOUS
 10
-63.8888888888888715
 20
-308.3333333333333144
 30
0.0
 11
-59.7222222222222072
 21
-304.1666666666665719
 31
0.0
 12
-64.5833333333333144
 22
-306.25
 32
0.0
 13
-64.5833333333333144
 23
-306.25
 33
0.0
210
0.0
220
0.0
230
-1.0
  0
SOLID
  5
5FE
  8
0
  6
CONTINUOUS
 10
-69.4444444444444144
 20
-308.3333333333333144
 30
0.0
 11
-63.8888888888888715
 21
-308.3333333333333144
 31
0.0
 12
-64.5833333333333144
 22
-306.25
 32
0.0
 13
-64.5833333333333144
 23
-306.25
 33
0.0
210
0.0
220
0.0
230
-1.0
  0
SOLID
  5
5FF
  8
0
  6
CONTINUOUS
 10
-69.4444444444444144
 20
-308.3333333333333144
 30
0.0
 11
-66.6666666666666572
 21
-300.0
 31
0.0
 12
-83.3333333333333286
 22
-300.0
 32
0.0
 13
-83.3333333333333286
 23
-300.0
 33
0.0
210
0.0
220
0.0
230
-1.0
  0
SOLID
  5
600
  8
0
  6
CONTINUOUS
 10
-59.7222222222222072
 20
-304.1666666666665719
 30
0.0
 11
-63.1944444444444287
 21
-302.0833333333333144
 31
0.0
 12
-65.2777777777777715
 22
-304.1666666666665719
 32
0.0
 13
-65.2777777777777715
 23
-304.1666666666665719
 33
0.0
210
0.0
220
0.0
230
-1.0
  0
SOLID
  5
601
  8
0
  6
CONTINUOUS
 10
-63.1944444444444287
 20
-302.0833333333333144
 30
0.0
 11
-66.6666666666666572
 21
-300.0
 31
0.0
 12
-65.2777777777777715
 22
-304.1666666666665719
 32
0.0
 13
-65.2777777777777715
 23
-304.1666666666665719
 33
0.0
210
0.0
220
0.0
230
-1.0
  0
SOLID
  5
602
  8
0
  6
CONTINUOUS
 10
-66.6666666666666572
 20
-300.0
 30
0.0
 11
-68.0555555555555429
 21
-304.1666666666665719
 31
0.0
 12
-65.2777777777777715
 22
-304.1666666666665719
 32
0.0
 13
-65.2777777777777715
 23
-304.1666666666665719
 33
0.0
210
0.0
220
0.0
230
-1.0
  0
SOLID
  5
603
  8
0
  6
CONTINUOUS
 10
-68.0555555555555429
 20
-304.1666666666665719
 30
0.0
 11
-69.4444444444444144
 21
-308.3333333333333144
 31
0.0
 12
-65.2777777777777715
 22
-304.1666666666665719
 32
0.0
 13
-65.2777777777777715
 23
-304.1666666666665719
 33
0.0
210
0.0
220
0.0
230
-1.0
  0
SOLID
  5
604
  8
0
  6
CONTINUOUS
 10
-65.2777777777777715
 20
-304.1666666666665719
 30
0.0
 11
-64.5833333333333144
 21
-306.25
 31
0.0
 12
-59.7222222222222072
 22
-304.1666666666665719
 32
0.0
 13
-59.7222222222222072
 23
-304.1666666666665719
 33
0.0
210
0.0
220
0.0
230
-1.0
  0
SOLID
  5
605
  8
0
  6
CONTINUOUS
 10
-69.4444444444444144
 20
-308.3333333333333144
 30
0.0
 11
-64.5833333333333144
 21
-306.25
 31
0.0
 12
-65.2777777777777715
 22
-304.1666666666665719
 32
0.0
 13
-65.2777777777777715
 23
-304.1666666666665719
 33
0.0
210
0.0
220
0.0
230
-1.0
  0
SOLID
  5
606
  8
0
  6
CONTINUOUS
 10
-59.7222222222222072
 20
-304.1666666666665719
 30
0.0
 11
-50.0
 21
-300.0
 31
0.0
 12
-66.6666666666666572
 22
-300.0
 32
0.0
 13
-66.6666666666666572
 23
-300.0
 33
0.0
210
0.0
220
0.0
230
-1.0
  0
SOLID
  5
607
  8
0
  6
CONTINUOUS
 10
-100.0
 20
-350.0
 30
0.0
 11
-75.0
 21
-325.0
 31
0.0
 12
-83.3333333333333286
 22
-300.0
 32
0.0
 13
-83.3333333333333286
 23
-300.0
 33
0.0
210
0.0
220
0.0
230
-1.0
  0
SOLID
  5
608
  8
0
  6
CONTINUOUS
 10
-45.8333333333333286
 20
-290.2777777777778283
 30
0.0
 11
-37.5
 21
-287.5
 31
0.0
 12
-41.6666666666666572
 22
-280.5555555555554861
 32
0.0
 13
-41.6666666666666572
 23
-280.5555555555554861
 33
0.0
210
0.0
220
0.0
230
-1.0
  0
SOLID
  5
609
  8
0
  6
CONTINUOUS
 10
-45.8333333333333286
 20
-290.2777777777778283
 30
0.0
 11
-50.0
 21
-300.0
 31
0.0
 12
-37.5
 22
-287.5
 32
0.0
 13
-37.5
 23
-287.5
 33
0.0
210
0.0
220
0.0
230
-1.0
  0
SOLID
  5
60A
  8
0
  6
CONTINUOUS
 10
-37.5
 20
-287.5
 30
0.0
 11
-31.25
 21
-281.25
 31
0.0
 12
-41.6666666666666572
 22
-280.5555555555554861
 32
0.0
 13
-41.6666666666666572
 23
-280.5555555555554861
 33
0.0
210
0.0
220
0.0
230
-1.0
  0
SOLID
  5
60B
  8
0
  6
CONTINUOUS
 10
-25.0
 20
-275.0
 30
0.0
 11
-33.3333333333333286
 21
-277.7777777777778283
 31
0.0
 12
-31.25
 22
-281.25
 32
0.0
 13
-31.25
 23
-281.25
 33
0.0
210
0.0
220
0.0
230
-1.0
  0
SOLID
  5
60C
  8
0
  6
CONTINUOUS
 10
-33.3333333333333286
 20
-277.7777777777778283
 30
0.0
 11
-41.6666666666666572
 21
-280.5555555555554861
 31
0.0
 12
-31.25
 22
-281.25
 32
0.0
 13
-31.25
 23
-281.25
 33
0.0
210
0.0
220
0.0
230
-1.0
  0
SOLID
  5
60D
  8
0
  6
CONTINUOUS
 10
-25.0
 20
-275.0
 30
0.0
 11
-31.25
 21
-272.9166666666665719
 31
0.0
 12
-34.7222222222222072
 22
-275.4629629629628766
 32
0.0
 13
-34.7222222222222072
 23
-275.4629629629628766
 33
0.0
210
0.0
220
0.0
230
-1.0
  0
SOLID
  5
60E
  8
0
  6
CONTINUOUS
 10
-31.25
 20
-272.9166666666665719
 30
0.0
 11
-37.5
 21
-270.8333333333333144
 31
0.0
 12
-34.7222222222222072
 22
-275.4629629629628766
 32
0.0
 13
-34.7222222222222072
 23
-275.4629629629628766
 33
0.0
210
0.0
220
0.0
230
-1.0
  0
SOLID
  5
60F
  8
0
  6
CONTINUOUS
 10
-37.5
 20
-270.8333333333333144
 30
0.0
 11
-39.5833333333333286
 21
-275.6944444444445139
 31
0.0
 12
-34.7222222222222072
 22
-275.4629629629628766
 32
0.0
 13
-34.7222222222222072
 23
-275.4629629629628766
 33
0.0
210
0.0
220
0.0
230
-1.0
  0
SOLID
  5
610
  8
0
  6
CONTINUOUS
 10
-39.5833333333333286
 20
-275.6944444444445139
 30
0.0
 11
-41.6666666666666572
 21
-280.5555555555554861
 31
0.0
 12
-34.7222222222222072
 22
-275.4629629629628766
 32
0.0
 13
-34.7222222222222072
 23
-275.4629629629628766
 33
0.0
210
0.0
220
0.0
230
-1.0
  0
SOLID
  5
611
  8
0
  6
CONTINUOUS
 10
-34.7222222222222072
 20
-275.4629629629628766
 30
0.0
 11
-33.3333333333333286
 21
-277.7777777777778283
 31
0.0
 12
-25.0
 22
-275.0
 32
0.0
 13
-25.0
 23
-275.0
 33
0.0
210
0.0
220
0.0
230
-1.0
  0
SOLID
  5
612
  8
0
  6
CONTINUOUS
 10
-41.6666666666666572
 20
-280.5555555555554861
 30
0.0
 11
-33.3333333333333286
 21
-277.7777777777778283
 31
0.0
 12
-34.7222222222222072
 22
-275.4629629629628766
 32
0.0
 13
-34.7222222222222072
 23
-275.4629629629628766
 33
0.0
210
0.0
220
0.0
230
-1.0
  0
SOLID
  5
613
  8
0
  6
CONTINUOUS
 10
-37.5
 20
-270.8333333333333144
 30
0.0
 11
-50.0
 21
-266.6666666666665719
 31
0.0
 12
-41.6666666666666572
 22
-280.5555555555554861
 32
0.0
 13
-41.6666666666666572
 23
-280.5555555555554861
 33
0.0
210
0.0
220
0.0
230
-1.0
  0
SOLID
  5
614
  8
0
  6
CONTINUOUS
 10
-45.8333333333333286
 20
-290.2777777777778283
 30
0.0
 11
-50.0
 21
-283.3333333333333144
 31
0.0
 12
-50.0
 22
-300.0
 32
0.0
 13
-50.0
 23
-300.0
 33
0.0
210
0.0
220
0.0
230
-1.0
  0
SOLID
  5
615
  8
0
  6
CONTINUOUS
 10
-45.8333333333333286
 20
-290.2777777777778283
 30
0.0
 11
-41.6666666666666572
 21
-280.5555555555554861
 31
0.0
 12
-50.0
 22
-283.3333333333333144
 32
0.0
 13
-50.0
 23
-283.3333333333333144
 33
0.0
210
0.0
220
0.0
230
-1.0
  0
SOLID
  5
616
  8
0
  6
CONTINUOUS
 10
-45.8333333333333286
 20
-273.6111111111110858
 30
0.0
 11
-50.0
 21
-283.3333333333333144
 31
0.0
 12
-41.6666666666666572
 22
-280.5555555555554861
 32
0.0
 13
-41.6666666666666572
 23
-280.5555555555554861
 33
0.0
210
0.0
220
0.0
230
-1.0
  0
SOLID
  5
617
  8
0
  6
CONTINUOUS
 10
-45.8333333333333286
 20
-273.6111111111110858
 30
0.0
 11
-47.9166666666666572
 21
-270.1388888888889142
 31
0.0
 12
-48.6111111111111001
 22
-274.5370370370370097
 32
0.0
 13
-48.6111111111111001
 23
-274.5370370370370097
 33
0.0
210
0.0
220
0.0
230
-1.0
  0
SOLID
  5
618
  8
0
  6
CONTINUOUS
 10
-47.9166666666666572
 20
-270.1388888888889142
 30
0.0
 11
-50.0
 21
-266.6666666666665719
 31
0.0
 12
-48.6111111111111001
 22
-274.5370370370370097
 32
0.0
 13
-48.6111111111111001
 23
-274.5370370370370097
 33
0.0
210
0.0
220
0.0
230
-1.0
  0
SOLID
  5
619
  8
0
  6
CONTINUOUS
 10
-50.0
 20
-266.6666666666665719
 30
0.0
 11
-50.0
 21
-275.0
 31
0.0
 12
-48.6111111111111001
 22
-274.5370370370370097
 32
0.0
 13
-48.6111111111111001
 23
-274.5370370370370097
 33
0.0
210
0.0
220
0.0
230
-1.0
  0
SOLID
  5
61A
  8
0
  6
CONTINUOUS
 10
-50.0
 20
-275.0
 30
0.0
 11
-50.0
 21
-283.3333333333333144
 31
0.0
 12
-48.6111111111111001
 22
-274.5370370370370097
 32
0.0
 13
-48.6111111111111001
 23
-274.5370370370370097
 33
0.0
210
0.0
220
0.0
230
-1.0
  0
SOLID
  5
61B
  8
0
  6
CONTINUOUS
 10
-48.6111111111111001
 20
-274.5370370370370097
 30
0.0
 11
-47.9166666666666572
 21
-278.4722222222221717
 31
0.0
 12
-45.8333333333333286
 22
-273.6111111111110858
 32
0.0
 13
-45.8333333333333286
 23
-273.6111111111110858
 33
0.0
210
0.0
220
0.0
230
-1.0
  0
SOLID
  5
61C
  8
0
  6
CONTINUOUS
 10
-50.0
 20
-283.3333333333333144
 30
0.0
 11
-47.9166666666666572
 21
-278.4722222222221717
 31
0.0
 12
-48.6111111111111001
 22
-274.5370370370370097
 32
0.0
 13
-48.6111111111111001
 23
-274.5370370370370097
 33
0.0
210
0.0
220
0.0
230
-1.0
  0
SOLID
  5
61D
  8
0
  6
CONTINUOUS
 10
-12.5
 20
-262.5
 30
0.0
 11
-18.75
 21
-260.4166666666665719
 31
0.0
 12
-20.8333333333333286
 22
-265.2777777777777146
 32
0.0
 13
-20.8333333333333286
 23
-265.2777777777777146
 33
0.0
210
0.0
220
0.0
230
-1.0
  0
SOLID
  5
61E
  8
0
  6
CONTINUOUS
 10
-18.75
 20
-260.4166666666665719
 30
0.0
 11
-25.0
 21
-258.3333333333333144
 31
0.0
 12
-20.8333333333333286
 22
-265.2777777777777146
 32
0.0
 13
-20.8333333333333286
 23
-265.2777777777777146
 33
0.0
210
0.0
220
0.0
230
-1.0
  0
SOLID
  5
61F
  8
0
  6
CONTINUOUS
 10
-25.0
 20
-258.3333333333333144
 30
0.0
 11
-25.0
 21
-266.6666666666665719
 31
0.0
 12
-20.8333333333333286
 22
-265.2777777777777146
 32
0.0
 13
-20.8333333333333286
 23
-265.2777777777777146
 33
0.0
210
0.0
220
0.0
230
-1.0
  0
SOLID
  5
620
  8
0
  6
CONTINUOUS
 10
-25.0
 20
-266.6666666666665719
 30
0.0
 11
-25.0
 21
-275.0
 31
0.0
 12
-20.8333333333333286
 22
-265.2777777777777146
 32
0.0
 13
-20.8333333333333286
 23
-265.2777777777777146
 33
0.0
210
0.0
220
0.0
230
-1.0
  0
SOLID
  5
621
  8
0
  6
CONTINUOUS
 10
-20.8333333333333286
 20
-265.2777777777777146
 30
0.0
 11
-18.75
 21
-268.75
 31
0.0
 12
-12.5
 22
-262.5
 32
0.0
 13
-12.5
 23
-262.5
 33
0.0
210
0.0
220
0.0
230
-1.0
  0
SOLID
  5
622
  8
0
  6
CONTINUOUS
 10
-25.0
 20
-275.0
 30
0.0
 11
-18.75
 21
-268.75
 31
0.0
 12
-20.8333333333333286
 22
-265.2777777777777146
 32
0.0
 13
-20.8333333333333286
 23
-265.2777777777777146
 33
0.0
210
0.0
220
0.0
230
-1.0
  0
SOLID
  5
623
  8
0
  6
CONTINUOUS
 10
0.0
 20
-250.0
 30
0.0
 11
-12.5
 21
-254.1666666666666003
 31
0.0
 12
-12.5
 22
-262.5
 32
0.0
 13
-12.5
 23
-262.5
 33
0.0
210
0.0
220
0.0
230
-1.0
  0
SOLID
  5
624
  8
0
  6
CONTINUOUS
 10
-12.5
 20
-254.1666666666666003
 30
0.0
 11
-25.0
 21
-258.3333333333333144
 31
0.0
 12
-12.5
 22
-262.5
 32
0.0
 13
-12.5
 23
-262.5
 33
0.0
210
0.0
220
0.0
230
-1.0
  0
SOLID
  5
625
  8
0
  6
CONTINUOUS
 10
-25.0
 20
-275.0
 30
0.0
 11
-29.1666666666666607
 21
-268.0555555555554861
 31
0.0
 12
-31.25
 22
-272.9166666666665719
 32
0.0
 13
-31.25
 23
-272.9166666666665719
 33
0.0
210
0.0
220
0.0
230
-1.0
  0
SOLID
  5
626
  8
0
  6
CONTINUOUS
 10
-31.25
 20
-272.9166666666665719
 30
0.0
 11
-29.1666666666666607
 21
-268.0555555555554861
 31
0.0
 12
-37.5
 22
-270.8333333333333144
 32
0.0
 13
-37.5
 23
-270.8333333333333144
 33
0.0
210
0.0
220
0.0
230
-1.0
  0
SOLID
  5
627
  8
0
  6
CONTINUOUS
 10
-37.5
 20
-270.8333333333333144
 30
0.0
 11
-29.1666666666666607
 21
-268.0555555555554861
 31
0.0
 12
-31.25
 22
-264.5833333333333144
 32
0.0
 13
-31.25
 23
-264.5833333333333144
 33
0.0
210
0.0
220
0.0
230
-1.0
  0
SOLID
  5
628
  8
0
  6
CONTINUOUS
 10
-31.25
 20
-264.5833333333333144
 30
0.0
 11
-29.1666666666666607
 21
-268.0555555555554861
 31
0.0
 12
-25.0
 22
-258.3333333333333144
 32
0.0
 13
-25.0
 23
-258.3333333333333144
 33
0.0
210
0.0
220
0.0
230
-1.0
  0
SOLID
  5
629
  8
0
  6
CONTINUOUS
 10
-29.1666666666666607
 20
-268.0555555555554861
 30
0.0
 11
-25.0
 21
-275.0
 31
0.0
 12
-25.0
 22
-266.6666666666665719
 32
0.0
 13
-25.0
 23
-266.6666666666665719
 33
0.0
210
0.0
220
0.0
230
-1.0
  0
SOLID
  5
62A
  8
0
  6
CONTINUOUS
 10
-25.0
 20
-258.3333333333333144
 30
0.0
 11
-29.1666666666666607
 21
-268.0555555555554861
 31
0.0
 12
-25.0
 22
-266.6666666666665719
 32
0.0
 13
-25.0
 23
-266.6666666666665719
 33
0.0
210
0.0
220
0.0
230
-1.0
  0
SOLID
  5
62B
  8
0
  6
CONTINUOUS
 10
-31.25
 20
-264.5833333333333144
 30
0.0
 11
-37.5
 21
-262.5
 31
0.0
 12
-37.5
 22
-270.8333333333333144
 32
0.0
 13
-37.5
 23
-270.8333333333333144
 33
0.0
210
0.0
220
0.0
230
-1.0
  0
SOLID
  5
62C
  8
0
  6
CONTINUOUS
 10
-31.25
 20
-264.5833333333333144
 30
0.0
 11
-25.0
 21
-258.3333333333333144
 31
0.0
 12
-37.5
 22
-262.5
 32
0.0
 13
-37.5
 23
-262.5
 33
0.0
210
0.0
220
0.0
230
-1.0
  0
SOLID
  5
62D
  8
0
  6
CONTINUOUS
 10
-37.5
 20
-262.5
 30
0.0
 11
-50.0
 21
-266.6666666666665719
 31
0.0
 12
-37.5
 22
-270.8333333333333144
 32
0.0
 13
-37.5
 23
-270.8333333333333144
 33
0.0
210
0.0
220
0.0
230
-1.0
  0
SOLID
  5
62E
  8
0
  6
CONTINUOUS
 10
-37.5
 20
-254.1666666666666003
 30
0.0
 11
-43.75
 21
-260.4166666666665719
 31
0.0
 12
-37.5
 22
-262.5
 32
0.0
 13
-37.5
 23
-262.5
 33
0.0
210
0.0
220
0.0
230
-1.0
  0
SOLID
  5
62F
  8
0
  6
CONTINUOUS
 10
-43.75
 20
-260.4166666666665719
 30
0.0
 11
-50.0
 21
-266.6666666666665719
 31
0.0
 12
-37.5
 22
-262.5
 32
0.0
 13
-37.5
 23
-262.5
 33
0.0
210
0.0
220
0.0
230
-1.0
  0
SOLID
  5
630
  8
0
  6
CONTINUOUS
 10
-37.5
 20
-262.5
 30
0.0
 11
-25.0
 21
-258.3333333333333144
 31
0.0
 12
-37.5
 22
-254.1666666666666003
 32
0.0
 13
-37.5
 23
-254.1666666666666003
 33
0.0
210
0.0
220
0.0
230
-1.0
  0
SOLID
  5
631
  8
0
  6
CONTINUOUS
 10
-37.5
 20
-254.1666666666666003
 30
0.0
 11
-43.75
 21
-252.083333333333286
 31
0.0
 12
-45.8333333333333286
 22
-256.9444444444444002
 32
0.0
 13
-45.8333333333333286
 23
-256.9444444444444002
 33
0.0
210
0.0
220
0.0
230
-1.0
  0
SOLID
  5
632
  8
0
  6
CONTINUOUS
 10
-43.75
 20
-252.083333333333286
 30
0.0
 11
-50.0
 21
-250.0
 31
0.0
 12
-45.8333333333333286
 22
-256.9444444444444002
 32
0.0
 13
-45.8333333333333286
 23
-256.9444444444444002
 33
0.0
210
0.0
220
0.0
230
-1.0
  0
SOLID
  5
633
  8
0
  6
CONTINUOUS
 10
-50.0
 20
-250.0
 30
0.0
 11
-50.0
 21
-258.3333333333333144
 31
0.0
 12
-45.8333333333333286
 22
-256.9444444444444002
 32
0.0
 13
-45.8333333333333286
 23
-256.9444444444444002
 33
0.0
210
0.0
220
0.0
230
-1.0
  0
SOLID
  5
634
  8
0
  6
CONTINUOUS
 10
-50.0
 20
-258.3333333333333144
 30
0.0
 11
-50.0
 21
-266.6666666666665719
 31
0.0
 12
-45.8333333333333286
 22
-256.9444444444444002
 32
0.0
 13
-45.8333333333333286
 23
-256.9444444444444002
 33
0.0
210
0.0
220
0.0
230
-1.0
  0
SOLID
  5
635
  8
0
  6
CONTINUOUS
 10
-45.8333333333333286
 20
-256.9444444444444002
 30
0.0
 11
-43.75
 21
-260.4166666666665719
 31
0.0
 12
-37.5
 22
-254.1666666666666003
 32
0.0
 13
-37.5
 23
-254.1666666666666003
 33
0.0
210
0.0
220
0.0
230
-1.0
  0
SOLID
  5
636
  8
0
  6
CONTINUOUS
 10
-50.0
 20
-266.6666666666665719
 30
0.0
 11
-43.75
 21
-260.4166666666665719
 31
0.0
 12
-45.8333333333333286
 22
-256.9444444444444002
 32
0.0
 13
-45.8333333333333286
 23
-256.9444444444444002
 33
0.0
210
0.0
220
0.0
230
-1.0
  0
SOLID
  5
637
  8
0
  6
CONTINUOUS
 10
-25.0
 20
-258.3333333333333144
 30
0.0
 11
-12.5
 21
-254.1666666666666003
 31
0.0
 12
-25.0
 22
-252.7777777777777999
 32
0.0
 13
-25.0
 23
-252.7777777777777999
 33
0.0
210
0.0
220
0.0
230
-1.0
  0
SOLID
  5
638
  8
0
  6
CONTINUOUS
 10
0.0
 20
-250.0
 30
0.0
 11
-12.5
 21
-251.3888888888889142
 31
0.0
 12
-12.5
 22
-254.1666666666666003
 32
0.0
 13
-12.5
 23
-254.1666666666666003
 33
0.0
210
0.0
220
0.0
230
-1.0
  0
SOLID
  5
639
  8
0
  6
CONTINUOUS
 10
-12.5
 20
-251.3888888888889142
 30
0.0
 11
-25.0
 21
-252.7777777777777999
 31
0.0
 12
-12.5
 22
-254.1666666666666003
 32
0.0
 13
-12.5
 23
-254.1666666666666003
 33
0.0
210
0.0
220
0.0
230
-1.0
  0
SOLID
  5
63A
  8
0
  6
CONTINUOUS
 10
-12.5
 20
-251.3888888888889142
 30
0.0
 11
-25.0
 21
-250.0
 31
0.0
 12
-25.0
 22
-252.7777777777777999
 32
0.0
 13
-25.0
 23
-252.7777777777777999
 33
0.0
210
0.0
220
0.0
230
-1.0
  0
SOLID
  5
63B
  8
0
  6
CONTINUOUS
 10
0.0
 20
-250.0
 30
0.0
 11
-12.5
 21
-250.0
 31
0.0
 12
-12.5
 22
-251.3888888888889142
 32
0.0
 13
-12.5
 23
-251.3888888888889142
 33
0.0
210
0.0
220
0.0
230
-1.0
  0
SOLID
  5
63C
  8
0
  6
CONTINUOUS
 10
-12.5
 20
-250.0
 30
0.0
 11
-25.0
 21
-250.0
 31
0.0
 12
-12.5
 22
-251.3888888888889142
 32
0.0
 13
-12.5
 23
-251.3888888888889142
 33
0.0
210
0.0
220
0.0
230
-1.0
  0
SOLID
  5
63D
  8
0
  6
CONTINUOUS
 10
-37.5
 20
-250.0
 30
0.0
 11
-37.5
 21
-251.3888888888889142
 31
0.0
 12
-25.0
 22
-250.0
 32
0.0
 13
-25.0
 23
-250.0
 33
0.0
210
0.0
220
0.0
230
-1.0
  0
SOLID
  5
63E
  8
0
  6
CONTINUOUS
 10
-37.5
 20
-250.0
 30
0.0
 11
-50.0
 21
-250.0
 31
0.0
 12
-37.5
 22
-251.3888888888889142
 32
0.0
 13
-37.5
 23
-251.3888888888889142
 33
0.0
210
0.0
220
0.0
230
-1.0
  0
SOLID
  5
63F
  8
0
  6
CONTINUOUS
 10
-37.5
 20
-251.3888888888889142
 30
0.0
 11
-25.0
 21
-252.7777777777777999
 31
0.0
 12
-25.0
 22
-250.0
 32
0.0
 13
-25.0
 23
-250.0
 33
0.0
210
0.0
220
0.0
230
-1.0
  0
SOLID
  5
640
  8
0
  6
CONTINUOUS
 10
-25.0
 20
-252.7777777777777999
 30
0.0
 11
-37.5
 21
-254.1666666666666003
 31
0.0
 12
-25.0
 22
-258.3333333333333144
 32
0.0
 13
-25.0
 23
-258.3333333333333144
 33
0.0
210
0.0
220
0.0
230
-1.0
  0
SOLID
  5
641
  8
0
  6
CONTINUOUS
 10
-37.5
 20
-251.3888888888889142
 30
0.0
 11
-37.5
 21
-254.1666666666666003
 31
0.0
 12
-25.0
 22
-252.7777777777777999
 32
0.0
 13
-25.0
 23
-252.7777777777777999
 33
0.0
210
0.0
220
0.0
230
-1.0
  0
SOLID
  5
642
  8
0
  6
CONTINUOUS
 10
-37.5
 20
-251.3888888888889142
 30
0.0
 11
-50.0
 21
-250.0
 31
0.0
 12
-37.5
 22
-254.1666666666666003
 32
0.0
 13
-37.5
 23
-254.1666666666666003
 33
0.0
210
0.0
220
0.0
230
-1.0
  0
SOLID
  5
643
  8
0
  6
CONTINUOUS
 10
-100.0
 20
-250.0
 30
0.0
 11
-87.5
 21
-254.1666666666666003
 31
0.0
 12
-75.0
 22
-252.7777777777777999
 32
0.0
 13
-75.0
 23
-252.7777777777777999
 33
0.0
210
0.0
220
0.0
230
-1.0
  0
SOLID
  5
644
  8
0
  6
CONTINUOUS
 10
-87.5
 20
-254.1666666666666003
 30
0.0
 11
-75.0
 21
-258.3333333333333144
 31
0.0
 12
-75.0
 22
-252.7777777777777999
 32
0.0
 13
-75.0
 23
-252.7777777777777999
 33
0.0
210
0.0
220
0.0
230
-1.0
  0
SOLID
  5
645
  8
0
  6
CONTINUOUS
 10
-75.0
 20
-258.3333333333333144
 30
0.0
 11
-71.875
 21
-257.2916666666665719
 31
0.0
 12
-72.9166666666666572
 22
-255.7870370370370097
 32
0.0
 13
-72.9166666666666572
 23
-255.7870370370370097
 33
0.0
210
0.0
220
0.0
230
-1.0
  0
SOLID
  5
646
  8
0
  6
CONTINUOUS
 10
-71.875
 20
-257.2916666666665719
 30
0.0
 11
-68.75
 21
-256.25
 31
0.0
 12
-72.9166666666666572
 22
-255.7870370370370097
 32
0.0
 13
-72.9166666666666572
 23
-255.7870370370370097
 33
0.0
210
0.0
220
0.0
230
-1.0
  0
SOLID
  5
647
  8
0
  6
CONTINUOUS
 10
-68.75
 20
-256.25
 30
0.0
 11
-71.875
 21
-254.5138888888889142
 31
0.0
 12
-72.9166666666666572
 22
-255.7870370370370097
 32
0.0
 13
-72.9166666666666572
 23
-255.7870370370370097
 33
0.0
210
0.0
220
0.0
230
-1.0
  0
SOLID
  5
648
  8
0
  6
CONTINUOUS
 10
-71.875
 20
-254.5138888888889142
 30
0.0
 11
-75.0
 21
-252.7777777777777999
 31
0.0
 12
-72.9166666666666572
 22
-255.7870370370370097
 32
0.0
 13
-72.9166666666666572
 23
-255.7870370370370097
 33
0.0
210
0.0
220
0.0
230
-1.0
  0
SOLID
  5
649
  8
0
  6
CONTINUOUS
 10
-72.9166666666666572
 20
-255.7870370370370097
 30
0.0
 11
-75.0
 21
-255.5555555555554861
 31
0.0
 12
-75.0
 22
-258.3333333333333144
 32
0.0
 13
-75.0
 23
-258.3333333333333144
 33
0.0
210
0.0
220
0.0
230
-1.0
  0
SOLID
  5
64A
  8
0
  6
CONTINUOUS
 10
-75.0
 20
-252.7777777777777999
 30
0.0
 11
-75.0
 21
-255.5555555555554861
 31
0.0
 12
-72.9166666666666572
 22
-255.7870370370370097
 32
0.0
 13
-72.9166666666666572
 23
-255.7870370370370097
 33
0.0
210
0.0
220
0.0
230
-1.0
  0
SOLID
  5
64B
  8
0
  6
CONTINUOUS
 10
-68.75
 20
-256.25
 30
0.0
 11
-65.625
 21
-255.208333333333286
 31
0.0
 12
-68.75
 22
-254.3981481481480955
 32
0.0
 13
-68.75
 23
-254.3981481481480955
 33
0.0
210
0.0
220
0.0
230
-1.0
  0
SOLID
  5
64C
  8
0
  6
CONTINUOUS
 10
-65.625
 20
-255.208333333333286
 30
0.0
 11
-62.5
 21
-254.1666666666666003
 31
0.0
 12
-68.75
 22
-254.3981481481480955
 32
0.0
 13
-68.75
 23
-254.3981481481480955
 33
0.0
210
0.0
220
0.0
230
-1.0
  0
SOLID
  5
64D
  8
0
  6
CONTINUOUS
 10
-62.5
 20
-254.1666666666666003
 30
0.0
 11
-68.75
 21
-253.4722222222222001
 31
0.0
 12
-68.75
 22
-254.3981481481480955
 32
0.0
 13
-68.75
 23
-254.3981481481480955
 33
0.0
210
0.0
220
0.0
230
-1.0
  0
SOLID
  5
64E
  8
0
  6
CONTINUOUS
 10
-75.0
 20
-252.7777777777777999
 30
0.0
 11
-71.875
 21
-253.5879629629629051
 31
0.0
 12
-68.75
 22
-253.4722222222222001
 32
0.0
 13
-68.75
 23
-253.4722222222222001
 33
0.0
210
0.0
220
0.0
230
-1.0
  0
SOLID
  5
64F
  8
0
  6
CONTINUOUS
 10
-71.875
 20
-253.5879629629629051
 30
0.0
 11
-68.75
 21
-254.3981481481480955
 31
0.0
 12
-68.75
 22
-253.4722222222222001
 32
0.0
 13
-68.75
 23
-253.4722222222222001
 33
0.0
210
0.0
220
0.0
230
-1.0
  0
SOLID
  5
650
  8
0
  6
CONTINUOUS
 10
-68.75
 20
-254.3981481481480955
 30
0.0
 11
-71.875
 21
-254.5138888888889142
 31
0.0
 12
-68.75
 22
-256.25
 32
0.0
 13
-68.75
 23
-256.25
 33
0.0
210
0.0
220
0.0
230
-1.0
  0
SOLID
  5
651
  8
0
  6
CONTINUOUS
 10
-75.0
 20
-252.7777777777777999
 30
0.0
 11
-71.875
 21
-254.5138888888889142
 31
0.0
 12
-68.75
 22
-254.3981481481480955
 32
0.0
 13
-68.75
 23
-254.3981481481480955
 33
0.0
210
0.0
220
0.0
230
-1.0
  0
SOLID
  5
652
  8
0
  6
CONTINUOUS
 10
-50.0
 20
-250.0
 30
0.0
 11
-62.5
 21
-251.3888888888889142
 31
0.0
 12
-62.5
 22
-254.1666666666666003
 32
0.0
 13
-62.5
 23
-254.1666666666666003
 33
0.0
210
0.0
220
0.0
230
-1.0
  0
SOLID
  5
653
  8
0
  6
CONTINUOUS
 10
-62.5
 20
-254.1666666666666003
 30
0.0
 11
-62.5
 21
-251.3888888888889142
 31
0.0
 12
-68.75
 22
-253.4722222222222001
 32
0.0
 13
-68.75
 23
-253.4722222222222001
 33
0.0
210
0.0
220
0.0
230
-1.0
  0
SOLID
  5
654
  8
0
  6
CONTINUOUS
 10
-62.5
 20
-251.3888888888889142
 30
0.0
 11
-68.75
 21
-252.083333333333286
 31
0.0
 12
-68.75
 22
-253.4722222222222001
 32
0.0
 13
-68.75
 23
-253.4722222222222001
 33
0.0
210
0.0
220
0.0
230
-1.0
  0
SOLID
  5
655
  8
0
  6
CONTINUOUS
 10
-68.75
 20
-252.083333333333286
 30
0.0
 11
-75.0
 21
-252.7777777777777999
 31
0.0
 12
-68.75
 22
-253.4722222222222001
 32
0.0
 13
-68.75
 23
-253.4722222222222001
 33
0.0
210
0.0
220
0.0
230
-1.0
  0
SOLID
  5
656
  8
0
  6
CONTINUOUS
 10
-75.0
 20
-252.7777777777777999
 30
0.0
 11
-75.0
 21
-250.0
 31
0.0
 12
-100.0
 22
-250.0
 32
0.0
 13
-100.0
 23
-250.0
 33
0.0
210
0.0
220
0.0
230
-1.0
  0
SOLID
  5
657
  8
0
  6
CONTINUOUS
 10
-68.75
 20
-252.083333333333286
 30
0.0
 11
-75.0
 21
-250.0
 31
0.0
 12
-75.0
 22
-252.7777777777777999
 32
0.0
 13
-75.0
 23
-252.7777777777777999
 33
0.0
210
0.0
220
0.0
230
-1.0
  0
SOLID
  5
658
  8
0
  6
CONTINUOUS
 10
-62.5
 20
-251.3888888888889142
 30
0.0
 11
-68.75
 21
-250.6944444444444002
 31
0.0
 12
-68.75
 22
-252.083333333333286
 32
0.0
 13
-68.75
 23
-252.083333333333286
 33
0.0
210
0.0
220
0.0
230
-1.0
  0
SOLID
  5
659
  8
0
  6
CONTINUOUS
 10
-68.75
 20
-250.6944444444444002
 30
0.0
 11
-75.0
 21
-250.0
 31
0.0
 12
-68.75
 22
-252.083333333333286
 32
0.0
 13
-68.75
 23
-252.083333333333286
 33
0.0
210
0.0
220
0.0
230
-1.0
  0
SOLID
  5
65A
  8
0
  6
CONTINUOUS
 10
-50.0
 20
-250.0
 30
0.0
 11
-62.5
 21
-250.0
 31
0.0
 12
-62.5
 22
-251.3888888888889142
 32
0.0
 13
-62.5
 23
-251.3888888888889142
 33
0.0
210
0.0
220
0.0
230
-1.0
  0
SOLID
  5
65B
  8
0
  6
CONTINUOUS
 10
-62.5
 20
-251.3888888888889142
 30
0.0
 11
-62.5
 21
-250.0
 31
0.0
 12
-68.75
 22
-250.6944444444444002
 32
0.0
 13
-68.75
 23
-250.6944444444444002
 33
0.0
210
0.0
220
0.0
230
-1.0
  0
SOLID
  5
65C
  8
0
  6
CONTINUOUS
 10
-62.5
 20
-250.0
 30
0.0
 11
-68.75
 21
-250.0
 31
0.0
 12
-68.75
 22
-250.6944444444444002
 32
0.0
 13
-68.75
 23
-250.6944444444444002
 33
0.0
210
0.0
220
0.0
230
-1.0
  0
SOLID
  5
65D
  8
0
  6
CONTINUOUS
 10
-68.75
 20
-250.0
 30
0.0
 11
-75.0
 21
-250.0
 31
0.0
 12
-68.75
 22
-250.6944444444444002
 32
0.0
 13
-68.75
 23
-250.6944444444444002
 33
0.0
210
0.0
220
0.0
230
-1.0
  0
SOLID
  5
65E
  8
0
  6
CONTINUOUS
 10
-75.0
 20
-258.3333333333333144
 30
0.0
 11
-50.0
 21
-266.6666666666665719
 31
0.0
 12
-50.0
 22
-250.0
 32
0.0
 13
-50.0
 23
-250.0
 33
0.0
210
0.0
220
0.0
230
-1.0
  0
SOLID
  5
65F
  8
0
  6
CONTINUOUS
 10
-50.0
 20
-266.6666666666665719
 30
0.0
 11
-62.5
 21
-270.8333333333333144
 31
0.0
 12
-58.3333333333333286
 22
-280.5555555555554861
 32
0.0
 13
-58.3333333333333286
 23
-280.5555555555554861
 33
0.0
210
0.0
220
0.0
230
-1.0
  0
SOLID
  5
660
  8
0
  6
CONTINUOUS
 10
-62.5
 20
-270.8333333333333144
 30
0.0
 11
-75.0
 21
-275.0
 31
0.0
 12
-58.3333333333333286
 22
-280.5555555555554861
 32
0.0
 13
-58.3333333333333286
 23
-280.5555555555554861
 33
0.0
210
0.0
220
0.0
230
-1.0
  0
SOLID
  5
661
  8
0
  6
CONTINUOUS
 10
-75.0
 20
-275.0
 30
0.0
 11
-62.5
 21
-287.5
 31
0.0
 12
-58.3333333333333286
 22
-280.5555555555554861
 32
0.0
 13
-58.3333333333333286
 23
-280.5555555555554861
 33
0.0
210
0.0
220
0.0
230
-1.0
  0
SOLID
  5
662
  8
0
  6
CONTINUOUS
 10
-50.0
 20
-300.0
 30
0.0
 11
-54.1666666666666572
 21
-290.2777777777778283
 31
0.0
 12
-62.5
 22
-287.5
 32
0.0
 13
-62.5
 23
-287.5
 33
0.0
210
0.0
220
0.0
230
-1.0
  0
SOLID
  5
663
  8
0
  6
CONTINUOUS
 10
-54.1666666666666572
 20
-290.2777777777778283
 30
0.0
 11
-58.3333333333333286
 21
-280.5555555555554861
 31
0.0
 12
-62.5
 22
-287.5
 32
0.0
 13
-62.5
 23
-287.5
 33
0.0
210
0.0
220
0.0
230
-1.0
  0
SOLID
  5
664
  8
0
  6
CONTINUOUS
 10
-54.1666666666666572
 20
-273.6111111111110858
 30
0.0
 11
-52.0833333333333286
 21
-278.4722222222221717
 31
0.0
 12
-51.3888888888888928
 22
-274.5370370370370097
 32
0.0
 13
-51.3888888888888928
 23
-274.5370370370370097
 33
0.0
210
0.0
220
0.0
230
-1.0
  0
SOLID
  5
665
  8
0
  6
CONTINUOUS
 10
-52.0833333333333286
 20
-278.4722222222221717
 30
0.0
 11
-50.0
 21
-283.3333333333333144
 31
0.0
 12
-51.3888888888888928
 22
-274.5370370370370097
 32
0.0
 13
-51.3888888888888928
 23
-274.5370370370370097
 33
0.0
210
0.0
220
0.0
230
-1.0
  0
SOLID
  5
666
  8
0
  6
CONTINUOUS
 10
-50.0
 20
-283.3333333333333144
 30
0.0
 11
-50.0
 21
-275.0
 31
0.0
 12
-51.3888888888888928
 22
-274.5370370370370097
 32
0.0
 13
-51.3888888888888928
 23
-274.5370370370370097
 33
0.0
210
0.0
220
0.0
230
-1.0
  0
SOLID
  5
667
  8
0
  6
CONTINUOUS
 10
-50.0
 20
-275.0
 30
0.0
 11
-50.0
 21
-266.6666666666665719
 31
0.0
 12
-51.3888888888888928
 22
-274.5370370370370097
 32
0.0
 13
-51.3888888888888928
 23
-274.5370370370370097
 33
0.0
210
0.0
220
0.0
230
-1.0
  0
SOLID
  5
668
  8
0
  6
CONTINUOUS
 10
-51.3888888888888928
 20
-274.5370370370370097
 30
0.0
 11
-52.0833333333333286
 21
-270.1388888888889142
 31
0.0
 12
-54.1666666666666572
 22
-273.6111111111110858
 32
0.0
 13
-54.1666666666666572
 23
-273.6111111111110858
 33
0.0
210
0.0
220
0.0
230
-1.0
  0
SOLID
  5
669
  8
0
  6
CONTINUOUS
 10
-50.0
 20
-266.6666666666665719
 30
0.0
 11
-52.0833333333333286
 21
-270.1388888888889142
 31
0.0
 12
-51.3888888888888928
 22
-274.5370370370370097
 32
0.0
 13
-51.3888888888888928
 23
-274.5370370370370097
 33
0.0
210
0.0
220
0.0
230
-1.0
  0
SOLID
  5
66A
  8
0
  6
CONTINUOUS
 10
-54.1666666666666572
 20
-273.6111111111110858
 30
0.0
 11
-58.3333333333333286
 21
-280.5555555555554861
 31
0.0
 12
-50.0
 22
-283.3333333333333144
 32
0.0
 13
-50.0
 23
-283.3333333333333144
 33
0.0
210
0.0
220
0.0
230
-1.0
  0
SOLID
  5
66B
  8
0
  6
CONTINUOUS
 10
-54.1666666666666572
 20
-290.2777777777778283
 30
0.0
 11
-50.0
 21
-283.3333333333333144
 31
0.0
 12
-58.3333333333333286
 22
-280.5555555555554861
 32
0.0
 13
-58.3333333333333286
 23
-280.5555555555554861
 33
0.0
210
0.0
220
0.0
230
-1.0
  0
SOLID
  5
66C
  8
0
  6
CONTINUOUS
 10
-54.1666666666666572
 20
-290.2777777777778283
 30
0.0
 11
-50.0
 21
-300.0
 31
0.0
 12
-50.0
 22
-283.3333333333333144
 32
0.0
 13
-50.0
 23
-283.3333333333333144
 33
0.0
210
0.0
220
0.0
230
-1.0
  0
SOLID
  5
66D
  8
0
  6
CONTINUOUS
 10
-75.0
 20
-275.0
 30
0.0
 11
-68.75
 21
-272.9166666666665719
 31
0.0
 12
-70.8333333333333286
 22
-268.0555555555554861
 32
0.0
 13
-70.8333333333333286
 23
-268.0555555555554861
 33
0.0
210
0.0
220
0.0
230
-1.0
  0
SOLID
  5
66E
  8
0
  6
CONTINUOUS
 10
-68.75
 20
-272.9166666666665719
 30
0.0
 11
-62.5
 21
-270.8333333333333144
 31
0.0
 12
-70.8333333333333286
 22
-268.0555555555554861
 32
0.0
 13
-70.8333333333333286
 23
-268.0555555555554861
 33
0.0
210
0.0
220
0.0
230
-1.0
  0
SOLID
  5
66F
  8
0
  6
CONTINUOUS
 10
-62.5
 20
-270.8333333333333144
 30
0.0
 11
-68.75
 21
-264.5833333333333144
 31
0.0
 12
-70.8333333333333286
 22
-268.0555555555554861
 32
0.0
 13
-70.8333333333333286
 23
-268.0555555555554861
 33
0.0
210
0.0
220
0.0
230
-1.0
  0
SOLID
  5
670
  8
0
  6
CONTINUOUS
 10
-71.875
 20
-261.4583333333333144
 30
0.0
 11
-72.9166666666666572
 21
-263.1944444444444002
 31
0.0
 12
-68.75
 22
-264.5833333333333144
 32
0.0
 13
-68.75
 23
-264.5833333333333144
 33
0.0
210
0.0
220
0.0
230
-1.0
  0
SOLID
  5
671
  8
0
  6
CONTINUOUS
 10
-71.875
 20
-261.4583333333333144
 30
0.0
 11
-75.0
 21
-258.3333333333333144
 31
0.0
 12
-72.9166666666666572
 22
-263.1944444444444002
 32
0.0
 13
-72.9166666666666572
 23
-263.1944444444444002
 33
0.0
210
0.0
220
0.0
230
-1.0
  0
SOLID
  5
672
  8
0
  6
CONTINUOUS
 10
-72.9166666666666572
 20
-263.1944444444444002
 30
0.0
 11
-70.8333333333333286
 21
-268.0555555555554861
 31
0.0
 12
-68.75
 22
-264.5833333333333144
 32
0.0
 13
-68.75
 23
-264.5833333333333144
 33
0.0
210
0.0
220
0.0
230
-1.0
  0
SOLID
  5
673
  8
0
  6
CONTINUOUS
 10
-70.8333333333333286
 20
-268.0555555555554861
 30
0.0
 11
-75.0
 21
-266.6666666666665719
 31
0.0
 12
-75.0
 22
-275.0
 32
0.0
 13
-75.0
 23
-275.0
 33
0.0
210
0.0
220
0.0
230
-1.0
  0
SOLID
  5
674
  8
0
  6
CONTINUOUS
 10
-72.9166666666666572
 20
-263.1944444444444002
 30
0.0
 11
-75.0
 21
-266.6666666666665719
 31
0.0
 12
-70.8333333333333286
 22
-268.0555555555554861
 32
0.0
 13
-70.8333333333333286
 23
-268.0555555555554861
 33
0.0
210
0.0
220
0.0
230
-1.0
  0
SOLID
  5
675
  8
0
  6
CONTINUOUS
 10
-72.9166666666666572
 20
-263.1944444444444002
 30
0.0
 11
-75.0
 21
-258.3333333333333144
 31
0.0
 12
-75.0
 22
-266.6666666666665719
 32
0.0
 13
-75.0
 23
-266.6666666666665719
 33
0.0
210
0.0
220
0.0
230
-1.0
  0
SOLID
  5
676
  8
0
  6
CONTINUOUS
 10
-68.75
 20
-264.5833333333333144
 30
0.0
 11
-62.5
 21
-270.8333333333333144
 31
0.0
 12
-62.5
 22
-262.5
 32
0.0
 13
-62.5
 23
-262.5
 33
0.0
210
0.0
220
0.0
230
-1.0
  0
SOLID
  5
677
  8
0
  6
CONTINUOUS
 10
-71.875
 20
-261.4583333333333144
 30
0.0
 11
-68.75
 21
-264.5833333333333144
 31
0.0
 12
-68.75
 22
-260.4166666666665719
 32
0.0
 13
-68.75
 23
-260.4166666666665719
 33
0.0
210
0.0
220
0.0
230
-1.0
  0
SOLID
  5
678
  8
0
  6
CONTINUOUS
 10
-75.0
 20
-258.3333333333333144
 30
0.0
 11
-71.875
 21
-261.4583333333333144
 31
0.0
 12
-71.875
 22
-259.375
 32
0.0
 13
-71.875
 23
-259.375
 33
0.0
210
0.0
220
0.0
230
-1.0
  0
SOLID
  5
679
  8
0
  6
CONTINUOUS
 10
-71.875
 20
-259.375
 30
0.0
 11
-71.875
 21
-261.4583333333333144
 31
0.0
 12
-68.75
 22
-260.4166666666665719
 32
0.0
 13
-68.75
 23
-260.4166666666665719
 33
0.0
210
0.0
220
0.0
230
-1.0
  0
SOLID
  5
67A
  8
0
  6
CONTINUOUS
 10
-68.75
 20
-260.4166666666665719
 30
0.0
 11
-68.75
 21
-264.5833333333333144
 31
0.0
 12
-62.5
 22
-262.5
 32
0.0
 13
-62.5
 23
-262.5
 33
0.0
210
0.0
220
0.0
230
-1.0
  0
SOLID
  5
67B
  8
0
  6
CONTINUOUS
 10
-62.5
 20
-262.5
 30
0.0
 11
-62.5
 21
-270.8333333333333144
 31
0.0
 12
-50.0
 22
-266.6666666666665719
 32
0.0
 13
-50.0
 23
-266.6666666666665719
 33
0.0
210
0.0
220
0.0
230
-1.0
  0
SOLID
  5
67C
  8
0
  6
CONTINUOUS
 10
-75.0
 20
-258.3333333333333144
 30
0.0
 11
-100.0
 21
-250.0
 31
0.0
 12
-75.0
 22
-275.0
 32
0.0
 13
-75.0
 23
-275.0
 33
0.0
210
0.0
220
0.0
230
-1.0
  0
ENDBLK
  5
67E
  8
0
  0
BLOCK
  8
0
  2
*U9
 70
     1
 10
0.0
 20
0.0
 30
0.0
  3
*U9
  1

  0
SOLID
  5
680
  8
0
  6
CONTINUOUS
 10
-200.0
 20
-300.0
 30
0.0
 11
-200.0
 21
-333.3333333333333144
 31
0.0
 12
-175.0
 22
-325.0
 32
0.0
 13
-175.0
 23
-325.0
 33
0.0
210
0.0
220
0.0
230
-1.0
  0
SOLID
  5
681
  8
0
  6
CONTINUOUS
 10
-150.0
 20
-350.0
 30
0.0
 11
-175.0
 21
-325.0
 31
0.0
 12
-175.0
 22
-341.6666666666665719
 32
0.0
 13
-175.0
 23
-341.6666666666665719
 33
0.0
210
0.0
220
0.0
230
-1.0
  0
SOLID
  5
682
  8
0
  6
CONTINUOUS
 10
-175.0
 20
-341.6666666666665719
 30
0.0
 11
-175.0
 21
-325.0
 31
0.0
 12
-200.0
 22
-333.3333333333333144
 32
0.0
 13
-200.0
 23
-333.3333333333333144
 33
0.0
210
0.0
220
0.0
230
-1.0
  0
SOLID
  5
683
  8
0
  6
CONTINUOUS
 10
-175.0
 20
-341.6666666666665719
 30
0.0
 11
-200.0
 21
-333.3333333333333144
 31
0.0
 12
-200.0
 22
-350.0
 32
0.0
 13
-200.0
 23
-350.0
 33
0.0
210
0.0
220
0.0
230
-1.0
  0
SOLID
  5
684
  8
0
  6
CONTINUOUS
 10
-175.0
 20
-341.6666666666665719
 30
0.0
 11
-200.0
 21
-350.0
 31
0.0
 12
-150.0
 22
-350.0
 32
0.0
 13
-150.0
 23
-350.0
 33
0.0
210
0.0
220
0.0
230
-1.0
  0
SOLID
  5
685
  8
0
  6
CONTINUOUS
 10
-250.0
 20
-350.0
 30
0.0
 11
-225.0
 21
-347.2222222222221717
 31
0.0
 12
-237.5
 22
-345.8333333333333144
 32
0.0
 13
-237.5
 23
-345.8333333333333144
 33
0.0
210
0.0
220
0.0
230
-1.0
  0
SOLID
  5
686
  8
0
  6
CONTINUOUS
 10
-237.5
 20
-345.8333333333333144
 30
0.0
 11
-225.0
 21
-347.2222222222221717
 31
0.0
 12
-225.0
 22
-341.6666666666665719
 32
0.0
 13
-225.0
 23
-341.6666666666665719
 33
0.0
210
0.0
220
0.0
230
-1.0
  0
SOLID
  5
687
  8
0
  6
CONTINUOUS
 10
-225.0
 20
-341.6666666666665719
 30
0.0
 11
-225.0
 21
-347.2222222222221717
 31
0.0
 12
-212.5
 22
-345.8333333333333144
 32
0.0
 13
-212.5
 23
-345.8333333333333144
 33
0.0
210
0.0
220
0.0
230
-1.0
  0
SOLID
  5
688
  8
0
  6
CONTINUOUS
 10
-212.5
 20
-345.8333333333333144
 30
0.0
 11
-225.0
 21
-347.2222222222221717
 31
0.0
 12
-200.0
 22
-350.0
 32
0.0
 13
-200.0
 23
-350.0
 33
0.0
210
0.0
220
0.0
230
-1.0
  0
SOLID
  5
689
  8
0
  6
CONTINUOUS
 10
-225.0
 20
-347.2222222222221717
 30
0.0
 11
-250.0
 21
-350.0
 31
0.0
 12
-225.0
 22
-350.0
 32
0.0
 13
-225.0
 23
-350.0
 33
0.0
210
0.0
220
0.0
230
-1.0
  0
SOLID
  5
68A
  8
0
  6
CONTINUOUS
 10
-200.0
 20
-350.0
 30
0.0
 11
-225.0
 21
-347.2222222222221717
 31
0.0
 12
-225.0
 22
-350.0
 32
0.0
 13
-225.0
 23
-350.0
 33
0.0
210
0.0
220
0.0
230
-1.0
  0
SOLID
  5
68B
  8
0
  6
CONTINUOUS
 10
-225.0
 20
-341.6666666666665719
 30
0.0
 11
-200.0
 21
-350.0
 31
0.0
 12
-200.0
 22
-333.3333333333333144
 32
0.0
 13
-200.0
 23
-333.3333333333333144
 33
0.0
210
0.0
220
0.0
230
-1.0
  0
SOLID
  5
68C
  8
0
  6
CONTINUOUS
 10
-200.0
 20
-333.3333333333333144
 30
0.0
 11
-200.0
 21
-300.0
 31
0.0
 12
-225.0
 22
-325.0
 32
0.0
 13
-225.0
 23
-325.0
 33
0.0
210
0.0
220
0.0
230
-1.0
  0
SOLID
  5
68D
  8
0
  6
CONTINUOUS
 10
-225.0
 20
-341.6666666666665719
 30
0.0
 11
-200.0
 21
-333.3333333333333144
 31
0.0
 12
-225.0
 22
-325.0
 32
0.0
 13
-225.0
 23
-325.0
 33
0.0
210
0.0
220
0.0
230
-1.0
  0
SOLID
  5
68E
  8
0
  6
CONTINUOUS
 10
-225.0
 20
-341.6666666666665719
 30
0.0
 11
-225.0
 21
-325.0
 31
0.0
 12
-250.0
 22
-350.0
 32
0.0
 13
-250.0
 23
-350.0
 33
0.0
210
0.0
220
0.0
230
-1.0
  0
SOLID
  5
68F
  8
0
  6
CONTINUOUS
 10
-200.0
 20
-300.0
 30
0.0
 11
-166.6666666666666003
 21
-300.0
 31
0.0
 12
-175.0
 22
-275.0
 32
0.0
 13
-175.0
 23
-275.0
 33
0.0
210
0.0
220
0.0
230
-1.0
  0
SOLID
  5
690
  8
0
  6
CONTINUOUS
 10
-175.0
 20
-275.0
 30
0.0
 11
-166.6666666666666003
 21
-300.0
 31
0.0
 12
-150.0
 22
-250.0
 32
0.0
 13
-150.0
 23
-250.0
 33
0.0
210
0.0
220
0.0
230
-1.0
  0
SOLID
  5
691
  8
0
  6
CONTINUOUS
 10
-150.0
 20
-250.0
 30
0.0
 11
-166.6666666666666003
 21
-300.0
 31
0.0
 12
-150.0
 22
-300.0
 32
0.0
 13
-150.0
 23
-300.0
 33
0.0
210
0.0
220
0.0
230
-1.0
  0
SOLID
  5
692
  8
0
  6
CONTINUOUS
 10
-150.0
 20
-350.0
 30
0.0
 11
-150.0
 21
-300.0
 31
0.0
 12
-158.333333333333286
 22
-325.0
 32
0.0
 13
-158.333333333333286
 23
-325.0
 33
0.0
210
0.0
220
0.0
230
-1.0
  0
SOLID
  5
693
  8
0
  6
CONTINUOUS
 10
-158.333333333333286
 20
-325.0
 30
0.0
 11
-150.0
 21
-300.0
 31
0.0
 12
-166.6666666666666003
 22
-300.0
 32
0.0
 13
-166.6666666666666003
 23
-300.0
 33
0.0
210
0.0
220
0.0
230
-1.0
  0
SOLID
  5
694
  8
0
  6
CONTINUOUS
 10
-166.6666666666666003
 20
-300.0
 30
0.0
 11
-200.0
 21
-300.0
 31
0.0
 12
-175.0
 22
-325.0
 32
0.0
 13
-175.0
 23
-325.0
 33
0.0
210
0.0
220
0.0
230
-1.0
  0
SOLID
  5
695
  8
0
  6
CONTINUOUS
 10
-158.333333333333286
 20
-325.0
 30
0.0
 11
-166.6666666666666003
 21
-300.0
 31
0.0
 12
-175.0
 22
-325.0
 32
0.0
 13
-175.0
 23
-325.0
 33
0.0
210
0.0
220
0.0
230
-1.0
  0
SOLID
  5
696
  8
0
  6
CONTINUOUS
 10
-158.333333333333286
 20
-325.0
 30
0.0
 11
-175.0
 21
-325.0
 31
0.0
 12
-150.0
 22
-350.0
 32
0.0
 13
-150.0
 23
-350.0
 33
0.0
210
0.0
220
0.0
230
-1.0
  0
SOLID
  5
697
  8
0
  6
CONTINUOUS
 10
-200.0
 20
-300.0
 30
0.0
 11
-225.0
 21
-275.0
 31
0.0
 12
-233.333333333333286
 22
-300.0
 32
0.0
 13
-233.333333333333286
 23
-300.0
 33
0.0
210
0.0
220
0.0
230
-1.0
  0
SOLID
  5
698
  8
0
  6
CONTINUOUS
 10
-250.0
 20
-250.0
 30
0.0
 11
-241.6666666666666003
 21
-275.0
 31
0.0
 12
-225.0
 22
-275.0
 32
0.0
 13
-225.0
 23
-275.0
 33
0.0
210
0.0
220
0.0
230
-1.0
  0
SOLID
  5
699
  8
0
  6
CONTINUOUS
 10
-241.6666666666666003
 20
-275.0
 30
0.0
 11
-233.333333333333286
 21
-300.0
 31
0.0
 12
-225.0
 22
-275.0
 32
0.0
 13
-225.0
 23
-275.0
 33
0.0
210
0.0
220
0.0
230
-1.0
  0
SOLID
  5
69A
  8
0
  6
CONTINUOUS
 10
-241.6666666666666003
 20
-275.0
 30
0.0
 11
-250.0
 21
-300.0
 31
0.0
 12
-233.333333333333286
 22
-300.0
 32
0.0
 13
-233.333333333333286
 23
-300.0
 33
0.0
210
0.0
220
0.0
230
-1.0
  0
SOLID
  5
69B
  8
0
  6
CONTINUOUS
 10
-241.6666666666666003
 20
-275.0
 30
0.0
 11
-250.0
 21
-250.0
 31
0.0
 12
-250.0
 22
-300.0
 32
0.0
 13
-250.0
 23
-300.0
 33
0.0
210
0.0
220
0.0
230
-1.0
  0
SOLID
  5
69C
  8
0
  6
CONTINUOUS
 10
-250.0
 20
-350.0
 30
0.0
 11
-245.833333333333286
 21
-337.5
 31
0.0
 12
-247.2222222222222001
 22
-325.0
 32
0.0
 13
-247.2222222222222001
 23
-325.0
 33
0.0
210
0.0
220
0.0
230
-1.0
  0
SOLID
  5
69D
  8
0
  6
CONTINUOUS
 10
-245.833333333333286
 20
-337.5
 30
0.0
 11
-241.6666666666666003
 21
-325.0
 31
0.0
 12
-247.2222222222222001
 22
-325.0
 32
0.0
 13
-247.2222222222222001
 23
-325.0
 33
0.0
210
0.0
220
0.0
230
-1.0
  0
SOLID
  5
69E
  8
0
  6
CONTINUOUS
 10
-241.6666666666666003
 20
-325.0
 30
0.0
 11
-245.833333333333286
 21
-312.5
 31
0.0
 12
-247.2222222222222001
 22
-325.0
 32
0.0
 13
-247.2222222222222001
 23
-325.0
 33
0.0
210
0.0
220
0.0
230
-1.0
  0
SOLID
  5
69F
  8
0
  6
CONTINUOUS
 10
-245.833333333333286
 20
-312.5
 30
0.0
 11
-250.0
 21
-300.0
 31
0.0
 12
-247.2222222222222001
 22
-325.0
 32
0.0
 13
-247.2222222222222001
 23
-325.0
 33
0.0
210
0.0
220
0.0
230
-1.0
  0
SOLID
  5
6A0
  8
0
  6
CONTINUOUS
 10
-247.2222222222222001
 20
-325.0
 30
0.0
 11
-250.0
 21
-325.0
 31
0.0
 12
-250.0
 22
-350.0
 32
0.0
 13
-250.0
 23
-350.0
 33
0.0
210
0.0
220
0.0
230
-1.0
  0
SOLID
  5
6A1
  8
0
  6
CONTINUOUS
 10
-250.0
 20
-300.0
 30
0.0
 11
-250.0
 21
-325.0
 31
0.0
 12
-247.2222222222222001
 22
-325.0
 32
0.0
 13
-247.2222222222222001
 23
-325.0
 33
0.0
210
0.0
220
0.0
230
-1.0
  0
SOLID
  5
6A2
  8
0
  6
CONTINUOUS
 10
-241.6666666666666003
 20
-325.0
 30
0.0
 11
-233.333333333333286
 21
-300.0
 31
0.0
 12
-250.0
 22
-300.0
 32
0.0
 13
-250.0
 23
-300.0
 33
0.0
210
0.0
220
0.0
230
-1.0
  0
SOLID
  5
6A3
  8
0
  6
CONTINUOUS
 10
-233.333333333333286
 20
-300.0
 30
0.0
 11
-225.0
 21
-325.0
 31
0.0
 12
-200.0
 22
-300.0
 32
0.0
 13
-200.0
 23
-300.0
 33
0.0
210
0.0
220
0.0
230
-1.0
  0
SOLID
  5
6A4
  8
0
  6
CONTINUOUS
 10
-241.6666666666666003
 20
-325.0
 30
0.0
 11
-225.0
 21
-325.0
 31
0.0
 12
-233.333333333333286
 22
-300.0
 32
0.0
 13
-233.333333333333286
 23
-300.0
 33
0.0
210
0.0
220
0.0
230
-1.0
  0
SOLID
  5
6A5
  8
0
  6
CONTINUOUS
 10
-241.6666666666666003
 20
-325.0
 30
0.0
 11
-250.0
 21
-350.0
 31
0.0
 12
-225.0
 22
-325.0
 32
0.0
 13
-225.0
 23
-325.0
 33
0.0
210
0.0
220
0.0
230
-1.0
  0
SOLID
  5
6A6
  8
0
  6
CONTINUOUS
 10
-200.0
 20
-300.0
 30
0.0
 11
-175.0
 21
-275.0
 31
0.0
 12
-200.0
 22
-266.6666666666665719
 32
0.0
 13
-200.0
 23
-266.6666666666665719
 33
0.0
210
0.0
220
0.0
230
-1.0
  0
SOLID
  5
6A7
  8
0
  6
CONTINUOUS
 10
-175.0
 20
-275.0
 30
0.0
 11
-150.0
 21
-250.0
 31
0.0
 12
-200.0
 22
-266.6666666666665719
 32
0.0
 13
-200.0
 23
-266.6666666666665719
 33
0.0
210
0.0
220
0.0
230
-1.0
  0
SOLID
  5
6A8
  8
0
  6
CONTINUOUS
 10
-150.0
 20
-250.0
 30
0.0
 11
-200.0
 21
-250.0
 31
0.0
 12
-200.0
 22
-266.6666666666665719
 32
0.0
 13
-200.0
 23
-266.6666666666665719
 33
0.0
210
0.0
220
0.0
230
-1.0
  0
SOLID
  5
6A9
  8
0
  6
CONTINUOUS
 10
-250.0
 20
-250.0
 30
0.0
 11
-225.0
 21
-258.3333333333333144
 31
0.0
 12
-200.0
 22
-250.0
 32
0.0
 13
-200.0
 23
-250.0
 33
0.0
210
0.0
220
0.0
230
-1.0
  0
SOLID
  5
6AA
  8
0
  6
CONTINUOUS
 10
-225.0
 20
-258.3333333333333144
 30
0.0
 11
-200.0
 21
-266.6666666666665719
 31
0.0
 12
-200.0
 22
-250.0
 32
0.0
 13
-200.0
 23
-250.0
 33
0.0
210
0.0
220
0.0
230
-1.0
  0
SOLID
  5
6AB
  8
0
  6
CONTINUOUS
 10
-200.0
 20
-266.6666666666665719
 30
0.0
 11
-225.0
 21
-275.0
 31
0.0
 12
-200.0
 22
-300.0
 32
0.0
 13
-200.0
 23
-300.0
 33
0.0
210
0.0
220
0.0
230
-1.0
  0
SOLID
  5
6AC
  8
0
  6
CONTINUOUS
 10
-225.0
 20
-258.3333333333333144
 30
0.0
 11
-225.0
 21
-275.0
 31
0.0
 12
-200.0
 22
-266.6666666666665719
 32
0.0
 13
-200.0
 23
-266.6666666666665719
 33
0.0
210
0.0
220
0.0
230
-1.0
  0
SOLID
  5
6AD
  8
0
  6
CONTINUOUS
 10
-225.0
 20
-258.3333333333333144
 30
0.0
 11
-250.0
 21
-250.0
 31
0.0
 12
-225.0
 22
-275.0
 32
0.0
 13
-225.0
 23
-275.0
 33
0.0
210
0.0
220
0.0
230
-1.0
  0
ENDBLK
  5
6AF
  8
0
  0
ENDSEC
  0
SECTION
  2
ENTITIES
  0
ARC
  5
229
  8
LAYER1
 10
50.0
 20
0.0
 30
0.0
 40
50.0
 50
0.0
 51
180.0
  0
CIRCLE
  5
22A
  8
LAYER1
 10
150.0
 20
50.0
 30
0.0
 40
50.0
  0
DIMENSION
  5
22C
  8
LAYER1
  2
*D1
 10
270.0
 20
90.0
 30
0.0
 11
238.4957099087137919
 21
61.5042900912861512
 31
0.0
 70
     1
 13
220.0
 23
20.0
 33
0.0
 14
280.0
 24
80.0
 34
0.0
  0
POLYLINE
  5
23A
  8
LAYER1
 10
300.0
 20
50.0
 30
0.0
 66
     1
 70
     8
  0
VERTEX
  8
LAYER1
  5
6B4
 10
300.000
 20
50.0000
 30
0.00000
  70
    32
  0
VERTEX
  8
LAYER1
  5
6B5
 10
300.060
 20
48.5280
 30
0.00000
  70
    32
  0
VERTEX
  8
LAYER1
  5
6B6
 10
300.241
 20
47.0595
 30
0.00000
  70
    32
  0
VERTEX
  8
LAYER1
  5
6B7
 10
300.541
 20
45.5981
 30
0.00000
  70
    32
  0
VERTEX
  8
LAYER1
  5
6B8
 10
300.961
 20
44.1473
 30
0.00000
  70
    32
  0
VERTEX
  8
LAYER1
  5
6B9
 10
301.498
 20
42.7106
 30
0.00000
  70
    32
  0
VERTEX
  8
LAYER1
  5
6BA
 10
302.153
 20
41.2915
 30
0.00000
  70
    32
  0
VERTEX
  8
LAYER1
  5
6BB
 10
302.923
 20
39.8933
 30
0.00000
  70
    32
  0
VERTEX
  8
LAYER1
  5
6BC
 10
303.806
 20
38.5195
 30
0.00000
  70
    32
  0
VERTEX
  8
LAYER1
  5
6BD
 10
304.801
 20
37.1733
 30
0.00000
  70
    32
  0
VERTEX
  8
LAYER1
  5
6BE
 10
305.904
 20
35.8581
 30
0.00000
  70
    32
  0
VERTEX
  8
LAYER1
  5
6BF
 10
307.114
 20
34.5769
 30
0.00000
  70
    32
  0
VERTEX
  8
LAYER1
  5
6C0
 10
308.427
 20
33.3329
 30
0.00000
  70
    32
  0
VERTEX
  8
LAYER1
  5
6C1
 10
309.840
 20
32.1290
 30
0.00000
  70
    32
  0
VERTEX
  8
LAYER1
  5
6C2
 10
311.349
 20
30.9682
 30
0.00000
  70
    32
  0
VERTEX
  8
LAYER1
  5
6C3
 10
312.952
 20
29.8532
 30
0.00000
  70
    32
  0
VERTEX
  8
LAYER1
  5
6C4
 10
314.645
 20
28.7868
 30
0.00000
  70
    32
  0
VERTEX
  8
LAYER1
  5
6C5
 10
316.422
 20
27.7715
 30
0.00000
  70
    32
  0
VERTEX
  8
LAYER1
  5
6C6
 10
318.280
 20
26.8097
 30
0.00000
  70
    32
  0
VERTEX
  8
LAYER1
  5
6C7
 10
320.215
 20
25.9038
 30
0.00000
  70
    32
  0
VERTEX
  8
LAYER1
  5
6C8
 10
322.221
 20
25.0559
 30
0.00000
  70
    32
  0
VERTEX
  8
LAYER1
  5
6C9
 10
324.295
 20
24.2681
 30
0.00000
  70
    32
  0
VERTEX
  8
LAYER1
  5
6CA
 10
326.430
 20
23.5424
 30
0.00000
  70
    32
  0
VERTEX
  8
LAYER1
  5
6CB
 10
328.622
 20
22.8803
 30
0.00000
  70
    32
  0
VERTEX
  8
LAYER1
  5
6CC
 10
330.866
 20
22.2836
 30
0.00000
  70
    32
  0
VERTEX
  8
LAYER1
  5
6CD
 10
333.156
 20
21.7537
 30
0.00000
  70
    32
  0
VERTEX
  8
LAYER1
  5
6CE
 10
335.486
 20
21.2918
 30
0.00000
  70
    32
  0
VERTEX
  8
LAYER1
  5
6CF
 10
337.851
 20
20.8991
 30
0.00000
  70
    32
  0
VERTEX
  8
LAYER1
  5
6D0
 10
340.245
 20
20.5764
 30
0.00000
  70
    32
  0
VERTEX
  8
LAYER1
  5
6D1
 10
342.663
 20
20.3247
 30
0.00000
  70
    32
  0
VERTEX
  8
LAYER1
  5
6D2
 10
345.099
 20
20.1445
 30
0.00000
  70
    32
  0
VERTEX
  8
LAYER1
  5
6D3
 10
347.547
 20
20.0361
 30
0.00000
  70
    32
  0
VERTEX
  8
LAYER1
  5
6D4
 10
350.000
 20
20.0000
 30
0.00000
  70
    32
  0
VERTEX
  8
LAYER1
  5
6D5
 10
352.453
 20
20.0361
 30
0.00000
  70
    32
  0
VERTEX
  8
LAYER1
  5
6D6
 10
354.901
 20
20.1445
 30
0.00000
  70
    32
  0
VERTEX
  8
LAYER1
  5
6D7
 10
357.337
 20
20.3247
 30
0.00000
  70
    32
  0
VERTEX
  8
LAYER1
  5
6D8
 10
359.755
 20
20.5764
 30
0.00000
  70
    32
  0
VERTEX
  8
LAYER1
  5
6D9
 10
362.149
 20
20.8991
 30
0.00000
  70
    32
  0
VERTEX
  8
LAYER1
  5
6DA
 10
364.514
 20
21.2918
 30
0.00000
  70
    32
  0
VERTEX
  8
LAYER1
  5
6DB
 10
366.844
 20
21.7537
 30
0.00000
  70
    32
  0
VERTEX
  8
LAYER1
  5
6DC
 10
369.134
 20
22.2836
 30
0.00000
  70
    32
  0
VERTEX
  8
LAYER1
  5
6DD
 10
371.378
 20
22.8803
 30
0.00000
  70
    32
  0
VERTEX
  8
LAYER1
  5
6DE
 10
373.570
 20
23.5424
 30
0.00000
  70
    32
  0
VERTEX
  8
LAYER1
  5
6DF
 10
375.705
 20
24.2681
 30
0.00000
  70
    32
  0
VERTEX
  8
LAYER1
  5
6E0
 10
377.779
 20
25.0559
 30
0.00000
  70
    32
  0
VERTEX
  8
LAYER1
  5
6E1
 10
379.785
 20
25.9038
 30
0.00000
  70
    32
  0
VERTEX
  8
LAYER1
  5
6E2
 10
381.720
 20
26.8097
 30
0.00000
  70
    32
  0
VERTEX
  8
LAYER1
  5
6E3
 10
383.578
 20
27.7715
 30
0.00000
  70
    32
  0
VERTEX
  8
LAYER1
  5
6E4
 10
385.355
 20
28.7868
 30
0.00000
  70
    32
  0
VERTEX
  8
LAYER1
  5
6E5
 10
387.048
 20
29.8532
 30
0.00000
  70
    32
  0
VERTEX
  8
LAYER1
  5
6E6
 10
388.651
 20
30.9682
 30
0.00000
  70
    32
  0
VERTEX
  8
LAYER1
  5
6E7
 10
390.160
 20
32.1290
 30
0.00000
  70
    32
  0
VERTEX
  8
LAYER1
  5
6E8
 10
391.573
 20
33.3329
 30
0.00000
  70
    32
  0
VERTEX
  8
LAYER1
  5
6E9
 10
392.886
 20
34.5769
 30
0.00000
  70
    32
  0
VERTEX
  8
LAYER1
  5
6EA
 10
394.096
 20
35.8581
 30
0.00000
  70
    32
  0
VERTEX
  8
LAYER1
  5
6EB
 10
395.199
 20
37.1733
 30
0.00000
  70
    32
  0
VERTEX
  8
LAYER1
  5
6EC
 10
396.194
 20
38.5195
 30
0.00000
  70
    32
  0
VERTEX
  8
LAYER1
  5
6ED
 10
397.077
 20
39.8933
 30
0.00000
  70
    32
  0
VERTEX
  8
LAYER1
  5
6EE
 10
397.847
 20
41.2915
 30
0.00000
  70
    32
  0
VERTEX
  8
LAYER1
  5
6EF
 10
398.502
 20
42.7106
 30
0.00000
  70
    32
  0
VERTEX
  8
LAYER1
  5
6F0
 10
399.039
 20
44.1473
 30
0.00000
  70
    32
  0
VERTEX
  8
LAYER1
  5
6F1
 10
399.459
 20
45.5981
 30
0.00000
  70
    32
  0
VERTEX
  8
LAYER1
  5
6F2
 10
399.759
 20
47.0595
 30
0.00000
  70
    32
  0
VERTEX
  8
LAYER1
  5
6F3
 10
399.940
 20
48.5280
 30
0.00000
  70
    32
  0
VERTEX
  8
LAYER1
  5
6F4
 10
400.000
 20
50.0000
 30
0.00000
  70
    32
  0
VERTEX
  8
LAYER1
  5
6F5
 10
399.940
 20
51.4720
 30
0.00000
  70
    32
  0
VERTEX
  8
LAYER1
  5
6F6
 10
399.759
 20
52.9405
 30
0.00000
  70
    32
  0
VERTEX
  8
LAYER1
  5
6F7
 10
399.459
 20
54.4019
 30
0.00000
  70
    32
  0
VERTEX
  8
LAYER1
  5
6F8
 10
399.039
 20
55.8527
 30
0.00000
  70
    32
  0
VERTEX
  8
LAYER1
  5
6F9
 10
398.502
 20
57.2894
 30
0.00000
  70
    32
  0
VERTEX
  8
LAYER1
  5
6FA
 10
397.847
 20
58.7085
 30
0.00000
  70
    32
  0
VERTEX
  8
LAYER1
  5
6FB
 10
397.077
 20
60.1067
 30
0.00000
  70
    32
  0
VERTEX
  8
LAYER1
  5
6FC
 10
396.194
 20
61.4805
 30
0.00000
  70
    32
  0
VERTEX
  8
LAYER1
  5
6FD
 10
395.199
 20
62.8267
 30
0.00000
  70
    32
  0
VERTEX
  8
LAYER1
  5
6FE
 10
394.096
 20
64.1419
 30
0.00000
  70
    32
  0
VERTEX
  8
LAYER1
  5
6FF
 10
392.886
 20
65.4231
 30
0.00000
  70
    32
  0
VERTEX
  8
LAYER1
  5
700
 10
391.573
 20
66.6671
 30
0.00000
  70
    32
  0
VERTEX
  8
LAYER1
  5
701
 10
390.160
 20
67.8710
 30
0.00000
  70
    32
  0
VERTEX
  8
LAYER1
  5
702
 10
388.651
 20
69.0318
 30
0.00000
  70
    32
  0
VERTEX
  8
LAYER1
  5
703
 10
387.048
 20
70.1468
 30
0.00000
  70
    32
  0
VERTEX
  8
LAYER1
  5
704
 10
385.355
 20
71.2132
 30
0.00000
  70
    32
  0
VERTEX
  8
LAYER1
  5
705
 10
383.578
 20
72.2285
 30
0.00000
  70
    32
  0
VERTEX
  8
LAYER1
  5
706
 10
381.720
 20
73.1903
 30
0.00000
  70
    32
  0
VERTEX
  8
LAYER1
  5
707
 10
379.785
 20
74.0962
 30
0.00000
  70
    32
  0
VERTEX
  8
LAYER1
  5
708
 10
377.779
 20
74.9441
 30
0.00000
  70
    32
  0
VERTEX
  8
LAYER1
  5
709
 10
375.705
 20
75.7319
 30
0.00000
  70
    32
  0
VERTEX
  8
LAYER1
  5
70A
 10
373.570
 20
76.4576
 30
0.00000
  70
    32
  0
VERTEX
  8
LAYER1
  5
70B
 10
371.378
 20
77.1197
 30
0.00000
  70
    32
  0
VERTEX
  8
LAYER1
  5
70C
 10
369.134
 20
77.7164
 30
0.00000
  70
    32
  0
VERTEX
  8
LAYER1
  5
70D
 10
366.844
 20
78.2463
 30
0.00000
  70
    32
  0
VERTEX
  8
LAYER1
  5
70E
 10
364.514
 20
78.7082
 30
0.00000
  70
    32
  0
VERTEX
  8
LAYER1
  5
70F
 10
362.149
 20
79.1009
 30
0.00000
  70
    32
  0
VERTEX
  8
LAYER1
  5
710
 10
359.755
 20
79.4236
 30
0.00000
  70
    32
  0
VERTEX
  8
LAYER1
  5
711
 10
357.337
 20
79.6753
 30
0.00000
  70
    32
  0
VERTEX
  8
LAYER1
  5
712
 10
354.901
 20
79.8555
 30
0.00000
  70
    32
  0
VERTEX
  8
LAYER1
  5
713
 10
352.453
 20
79.9639
 30
0.00000
  70
    32
  0
VERTEX
  8
LAYER1
  5
714
 10
350.000
 20
80.0000
 30
0.00000
  70
    32
  0
VERTEX
  8
LAYER1
  5
715
 10
347.547
 20
79.9639
 30
0.00000
  70
    32
  0
VERTEX
  8
LAYER1
  5
716
 10
345.099
 20
79.8555
 30
0.00000
  70
    32
  0
VERTEX
  8
LAYER1
  5
717
 10
342.663
 20
79.6753
 30
0.00000
  70
    32
  0
VERTEX
  8
LAYER1
  5
718
 10
340.245
 20
79.4236
 30
0.00000
  70
    32
  0
VERTEX
  8
LAYER1
  5
719
 10
337.851
 20
79.1009
 30
0.00000
  70
    32
  0
VERTEX
  8
LAYER1
  5
71A
 10
335.486
 20
78.7082
 30
0.00000
  70
    32
  0
VERTEX
  8
LAYER1
  5
71B
 10
333.156
 20
78.2463
 30
0.00000
  70
    32
  0
VERTEX
  8
LAYER1
  5
71C
 10
330.866
 20
77.7164
 30
0.00000
  70
    32
  0
VERTEX
  8
LAYER1
  5
71D
 10
328.622
 20
77.1197
 30
0.00000
  70
    32
  0
VERTEX
  8
LAYER1
  5
71E
 10
326.430
 20
76.4576
 30
0.00000
  70
    32
  0
VERTEX
  8
LAYER1
  5
71F
 10
324.295
 20
75.7319
 30
0.00000
  70
    32
  0
VERTEX
  8
LAYER1
  5
720
 10
322.221
 20
74.9441
 30
0.00000
  70
    32
  0
VERTEX
  8
LAYER1
  5
721
 10
320.215
 20
74.0962
 30
0.00000
  70
    32
  0
VERTEX
  8
LAYER1
  5
722
 10
318.280
 20
73.1903
 30
0.00000
  70
    32
  0
VERTEX
  8
LAYER1
  5
723
 10
316.422
 20
72.2285
 30
0.00000
  70
    32
  0
VERTEX
  8
LAYER1
  5
724
 10
314.645
 20
71.2132
 30
0.00000
  70
    32
  0
VERTEX
  8
LAYER1
  5
725
 10
312.952
 20
70.1468
 30
0.00000
  70
    32
  0
VERTEX
  8
LAYER1
  5
726
 10
311.349
 20
69.0318
 30
0.00000
  70
    32
  0
VERTEX
  8
LAYER1
  5
727
 10
309.840
 20
67.8710
 30
0.00000
  70
    32
  0
VERTEX
  8
LAYER1
  5
728
 10
308.427
 20
66.6671
 30
0.00000
  70
    32
  0
VERTEX
  8
LAYER1
  5
729
 10
307.114
 20
65.4231
 30
0.00000
  70
    32
  0
VERTEX
  8
LAYER1
  5
72A
 10
305.904
 20
64.1419
 30
0.00000
  70
    32
  0
VERTEX
  8
LAYER1
  5
72B
 10
304.801
 20
62.8267
 30
0.00000
  70
    32
  0
VERTEX
  8
LAYER1
  5
72C
 10
303.806
 20
61.4805
 30
0.00000
  70
    32
  0
VERTEX
  8
LAYER1
  5
72D
 10
302.923
 20
60.1067
 30
0.00000
  70
    32
  0
VERTEX
  8
LAYER1
  5
72E
 10
302.153
 20
58.7085
 30
0.00000
  70
    32
  0
VERTEX
  8
LAYER1
  5
72F
 10
301.498
 20
57.2894
 30
0.00000
  70
    32
  0
VERTEX
  8
LAYER1
  5
730
 10
300.961
 20
55.8527
 30
0.00000
  70
    32
  0
VERTEX
  8
LAYER1
  5
731
 10
300.541
 20
54.4019
 30
0.00000
  70
    32
  0
VERTEX
  8
LAYER1
  5
732
 10
300.241
 20
52.9405
 30
0.00000
  70
    32
  0
VERTEX
  8
LAYER1
  5
733
 10
300.060
 20
51.4720
 30
0.00000
  70
    32
  0
VERTEX
  8
LAYER1
  5
734
 10
300.000
 20
50.0000
 30
0.00000
  70
    32
  0
SEQEND
  8
LAYER1
  5
735
  0
3DFACE
  5
23B
  8
LAYER1
 10
420.0
 20
20.0
 30
0.0
 11
490.0
 21
30.0
 31
0.0
 12
460.0
 22
90.0
 32
0.0
 13
420.0
 23
60.0
 33
0.0
  0
POLYLINE
  5
23C
  8
LAYER2
 66
     1
 10
0.0
 20
0.0
 30
0.0
 70
     1
  0
VERTEX
  5
4DE
  8
LAYER2
 10
20.0
 20
-80.0
 30
0.0
  0
VERTEX
  5
4DF
  8
LAYER2
 10
90.0
 20
-70.0
 30
0.0
  0
VERTEX
  5
4E0
  8
LAYER2
 10
60.0
 20
-10.0
 30
0.0
  0
VERTEX
  5
4E1
  8
LAYER2
 10
20.0
 20
-40.0
 30
0.0
  0
SEQEND
  5
4E2
  8
LAYER2
  0
INSERT
  5
240
  8
LAYER1
  6
CONTINUOUS
  2
*X3
 10
0.0
 20
0.0
 30
0.0
1001
GRADIENTCOLOR1ACI
1070
     5
1001
GRADIENTCOLOR2ACI
1070
     2
1001
ACAD
1000
HATCH
1002
{
1070
    19
1000
LINE
1040
1.0
1040
0.7853981633974483
1000
R14_HATCH_DATA
1000
240
1011
1.0
1021
0.0
1031
0.0
1021
0.0
1031
0.0
1011
0.0
1021
0.0
1031
0.0
1021
1.0
1031
0.0
1011
0.0
1021
0.0
1031
0.0
1021
0.0
1031
1.0
1040
0.0
1010
0.0
1020
0.0
1030
1.0
1000
LINE
1070
     0
1070
     0
1071
        1
1071
        1
1071
        4
1070
     1
1040
520.0
1040
20.0
1040
590.0
1040
30.0
1070
     1
1040
590.0
1040
30.0
1040
560.0
1040
90.0
1070
     1
1040
560.0
1040
90.0
1040
520.0
1040
60.0
1070
     1
1040
520.0
1040
60.0
1040
520.0
1040
20.0
1071
        0
1070
     1
1070
     1
1040
0.7853981633974483
1040
1.0
1070
     0
1070
     1
1040
0.7853981633974483
1040
0.0
1040
0.0
1040
-2.2450640302672871
1040
2.2450640302672871
1070
     0
1071
        1
1040
0.0
1040
0.0
1040
0.0
1002
}
  0
LINE
  5
24A
  8
LAYER1
 10
800.0
 20
0.0
 30
0.0
 11
900.0
 21
100.0
 31
0.0
1001
NETDXF
1002
{
1011
1.197929247809995
1021
0.0
1031
0.0
1021
0.0704664263417644
1031
0.0
1040
3.1415999999999982
1070
     5
1000
sample xData entry
1002
}
  0
INSERT
  5
263
  8
LAYER1
 66
     1
  2
MYBLOCK
 10
750.0
 20
50.0
 30
0.0
  0
ATTRIB
  5
264
  8
0
 10
750.0
 20
50.0
 30
0.0
 40
5.0
  1
17
  2
ATTINFO
 70
     0
1001
AcDbAttr
1070
     0
1070
     1
  0
SEQEND
  5
265
  8
LAYER1
  0
INSERT
  5
273
  8
0
  2
*U4
 10
0.0
 20
0.0
 30
0.0
  0
POINT
  5
274
  8
LAYER2
 10
350.0
 20
-50.0
 30
0.0
  0
POLYLINE
  5
275
  8
LAYER2
 66
     1
 10
0.0
 20
0.0
 30
0.0
 70
    64
 71
     5
 72
     2
  0
VERTEX
  5
276
  8
LAYER2
 10
410.0
 20
-90.0
 30
0.0
 70
   192
  0
VERTEX
  5
277
  8
LAYER2
 10
490.0
 20
-80.0
 30
0.0
 70
   192
  0
VERTEX
  5
278
  8
LAYER2
 10
470.0
 20
-50.0
 30
0.0
 70
   192
  0
VERTEX
  5
279
  8
LAYER2
 10
490.0
 20
-10.0
 30
0.0
 70
   192
  0
VERTEX
  5
27A
  8
LAYER2
 10
420.0
 20
-30.0
 30
0.0
 70
   192
  0
VERTEX
  5
27B
  8
LAYER2
 10
0.0
 20
0.0
 30
0.0
 70
   128
 71
     1
 72
     2
 73
     3
 74
    -4
  0
VERTEX
  5
27C
  8
LAYER2
 10
0.0
 20
0.0
 30
0.0
 70
   128
 71
    -1
 72
     4
 73
     5
  0
SEQEND
  5
27D
  8
LAYER2
  0
POLYLINE
  5
27E
  8
LAYER2
 66
     1
 10
0.0
 20
0.0
 30
0.0
 70
     8
  0
VERTEX
  5
280
  8
LAYER2
 10
510.0
 20
-90.0
 30
0.0
 70
    32
  0
VERTEX
  5
281
  8
LAYER2
 10
590.0
 20
-80.0
 30
50.0
 70
    32
  0
VERTEX
  5
282
  8
LAYER2
 10
550.0
 20
-50.0
 30
0.0
 70
    32
  0
VERTEX
  5
283
  8
LAYER2
 10
590.0
 20
-10.0
 30
50.0
 70
    32
  0
VERTEX
  5
284
  8
LAYER2
 10
520.0
 20
-20.0
 30
0.0
 70
    32
  0
SEQEND
  5
27F
  8
LAYER2
  0
SOLID
  5
28D
  8
LAYER2
 10
610.0
 20
-90.0
 30
0.0
 11
690.0
 21
-80.0
 31
0.0
 12
620.0
 22
-30.0
 32
0.0
 13
680.0
 23
-10.0
 33
0.0
  0
POLYLINE
  8
LAYER2
  5
736
  66
     1
 10
0.00000
 20
0.00000
 30
0.00000
  70
     8
  0
VERTEX
  8
LAYER2
  5
737
 10
710.000
 20
-100.000
 30
0.00000
  70
    32
  0
VERTEX
  8
LAYER2
  5
738
 10
710.476
 20
-98.1380
 30
0.00000
  70
    32
  0
VERTEX
  8
LAYER2
  5
739
 10
710.960
 20
-96.3309
 30
0.00000
  70
    32
  0
VERTEX
  8
LAYER2
  5
73A
 10
711.450
 20
-94.5779
 30
0.00000
  70
    32
  0
VERTEX
  8
LAYER2
  5
73B
 10
711.948
 20
-92.8780
 30
0.00000
  70
    32
  0
VERTEX
  8
LAYER2
  5
73C
 10
712.453
 20
-91.2304
 30
0.00000
  70
    32
  0
VERTEX
  8
LAYER2
  5
73D
 10
712.964
 20
-89.6342
 30
0.00000
  70
    32
  0
VERTEX
  8
LAYER2
  5
73E
 10
713.483
 20
-88.0885
 30
0.00000
  70
    32
  0
VERTEX
  8
LAYER2
  5
73F
 10
714.008
 20
-86.5925
 30
0.00000
  70
    32
  0
VERTEX
  8
LAYER2
  5
740
 10
714.539
 20
-85.1453
 30
0.00000
  70
    32
  0
VERTEX
  8
LAYER2
  5
741
 10
715.077
 20
-83.7459
 30
0.00000
  70
    32
  0
VERTEX
  8
LAYER2
  5
742
 10
715.621
 20
-82.3936
 30
0.00000
  70
    32
  0
VERTEX
  8
LAYER2
  5
743
 10
716.171
 20
-81.0874
 30
0.00000
  70
    32
  0
VERTEX
  8
LAYER2
  5
744
 10
716.728
 20
-79.8264
 30
0.00000
  70
    32
  0
VERTEX
  8
LAYER2
  5
745
 10
717.290
 20
-78.6098
 30
0.00000
  70
    32
  0
VERTEX
  8
LAYER2
  5
746
 10
717.858
 20
-77.4368
 30
0.00000
  70
    32
  0
VERTEX
  8
LAYER2
  5
747
 10
718.431
 20
-76.3063
 30
0.00000
  70
    32
  0
VERTEX
  8
LAYER2
  5
748
 10
719.011
 20
-75.2176
 30
0.00000
  70
    32
  0
VERTEX
  8
LAYER2
  5
749
 10
719.595
 20
-74.1697
 30
0.00000
  70
    32
  0
VERTEX
  8
LAYER2
  5
74A
 10
720.185
 20
-73.1619
 30
0.00000
  70
    32
  0
VERTEX
  8
LAYER2
  5
74B
 10
720.781
 20
-72.1931
 30
0.00000
  70
    32
  0
VERTEX
  8
LAYER2
  5
74C
 10
721.381
 20
-71.2625
 30
0.00000
  70
    32
  0
VERTEX
  8
LAYER2
  5
74D
 10
721.986
 20
-70.3693
 30
0.00000
  70
    32
  0
VERTEX
  8
LAYER2
  5
74E
 10
722.596
 20
-69.5126
 30
0.00000
  70
    32
  0
VERTEX
  8
LAYER2
  5
74F
 10
723.211
 20
-68.6915
 30
0.00000
  70
    32
  0
VERTEX
  8
LAYER2
  5
750
 10
723.831
 20
-67.9050
 30
0.00000
  70
    32
  0
VERTEX
  8
LAYER2
  5
751
 10
724.455
 20
-67.1525
 30
0.00000
  70
    32
  0
VERTEX
  8
LAYER2
  5
752
 10
725.083
 20
-66.4328
 30
0.00000
  70
    32
  0
VERTEX
  8
LAYER2
  5
753
 10
725.716
 20
-65.7452
 30
0.00000
  70
    32
  0
VERTEX
  8
LAYER2
  5
754
 10
726.353
 20
-65.0889
 30
0.00000
  70
    32
  0
VERTEX
  8
LAYER2
  5
755
 10
726.994
 20
-64.4628
 30
0.00000
  70
    32
  0
VERTEX
  8
LAYER2
  5
756
 10
727.639
 20
-63.8662
 30
0.00000
  70
    32
  0
VERTEX
  8
LAYER2
  5
757
 10
728.288
 20
-63.2981
 30
0.00000
  70
    32
  0
VERTEX
  8
LAYER2
  5
758
 10
728.940
 20
-62.7577
 30
0.00000
  70
    32
  0
VERTEX
  8
LAYER2
  5
759
 10
729.596
 20
-62.2442
 30
0.00000
  70
    32
  0
VERTEX
  8
LAYER2
  5
75A
 10
730.255
 20
-61.7565
 30
0.00000
  70
    32
  0
VERTEX
  8
LAYER2
  5
75B
 10
730.918
 20
-61.2939
 30
0.00000
  70
    32
  0
VERTEX
  8
LAYER2
  5
75C
 10
731.584
 20
-60.8554
 30
0.00000
  70
    32
  0
VERTEX
  8
LAYER2
  5
75D
 10
732.253
 20
-60.4403
 30
0.00000
  70
    32
  0
VERTEX
  8
LAYER2
  5
75E
 10
732.925
 20
-60.0475
 30
0.00000
  70
    32
  0
VERTEX
  8
LAYER2
  5
75F
 10
733.600
 20
-59.6763
 30
0.00000
  70
    32
  0
VERTEX
  8
LAYER2
  5
760
 10
734.278
 20
-59.3257
 30
0.00000
  70
    32
  0
VERTEX
  8
LAYER2
  5
761
 10
734.958
 20
-58.9949
 30
0.00000
  70
    32
  0
VERTEX
  8
LAYER2
  5
762
 10
735.641
 20
-58.6830
 30
0.00000
  70
    32
  0
VERTEX
  8
LAYER2
  5
763
 10
736.326
 20
-58.3891
 30
0.00000
  70
    32
  0
VERTEX
  8
LAYER2
  5
764
 10
737.013
 20
-58.1124
 30
0.00000
  70
    32
  0
VERTEX
  8
LAYER2
  5
765
 10
737.703
 20
-57.8518
 30
0.00000
  70
    32
  0
VERTEX
  8
LAYER2
  5
766
 10
738.395
 20
-57.6067
 30
0.00000
  70
    32
  0
VERTEX
  8
LAYER2
  5
767
 10
739.088
 20
-57.3761
 30
0.00000
  70
    32
  0
VERTEX
  8
LAYER2
  5
768
 10
739.784
 20
-57.1591
 30
0.00000
  70
    32
  0
VERTEX
  8
LAYER2
  5
769
 10
740.481
 20
-56.9548
 30
0.00000
  70
    32
  0
VERTEX
  8
LAYER2
  5
76A
 10
741.180
 20
-56.7624
 30
0.00000
  70
    32
  0
VERTEX
  8
LAYER2
  5
76B
 10
741.880
 20
-56.5810
 30
0.00000
  70
    32
  0
VERTEX
  8
LAYER2
  5
76C
 10
742.582
 20
-56.4097
 30
0.00000
  70
    32
  0
VERTEX
  8
LAYER2
  5
76D
 10
743.284
 20
-56.2476
 30
0.00000
  70
    32
  0
VERTEX
  8
LAYER2
  5
76E
 10
743.988
 20
-56.0939
 30
0.00000
  70
    32
  0
VERTEX
  8
LAYER2
  5
76F
 10
744.693
 20
-55.9476
 30
0.00000
  70
    32
  0
VERTEX
  8
LAYER2
  5
770
 10
745.399
 20
-55.8079
 30
0.00000
  70
    32
  0
VERTEX
  8
LAYER2
  5
771
 10
746.106
 20
-55.6740
 30
0.00000
  70
    32
  0
VERTEX
  8
LAYER2
  5
772
 10
746.813
 20
-55.5448
 30
0.00000
  70
    32
  0
VERTEX
  8
LAYER2
  5
773
 10
747.521
 20
-55.4197
 30
0.00000
  70
    32
  0
VERTEX
  8
LAYER2
  5
774
 10
748.229
 20
-55.2976
 30
0.00000
  70
    32
  0
VERTEX
  8
LAYER2
  5
775
 10
748.937
 20
-55.1777
 30
0.00000
  70
    32
  0
VERTEX
  8
LAYER2
  5
776
 10
749.646
 20
-55.0591
 30
0.00000
  70
    32
  0
VERTEX
  8
LAYER2
  5
777
 10
750.354
 20
-54.9409
 30
0.00000
  70
    32
  0
VERTEX
  8
LAYER2
  5
778
 10
751.063
 20
-54.8223
 30
0.00000
  70
    32
  0
VERTEX
  8
LAYER2
  5
779
 10
751.771
 20
-54.7024
 30
0.00000
  70
    32
  0
VERTEX
  8
LAYER2
  5
77A
 10
752.479
 20
-54.5803
 30
0.00000
  70
    32
  0
VERTEX
  8
LAYER2
  5
77B
 10
753.187
 20
-54.4552
 30
0.00000
  70
    32
  0
VERTEX
  8
LAYER2
  5
77C
 10
753.894
 20
-54.3260
 30
0.00000
  70
    32
  0
VERTEX
  8
LAYER2
  5
77D
 10
754.601
 20
-54.1921
 30
0.00000
  70
    32
  0
VERTEX
  8
LAYER2
  5
77E
 10
755.307
 20
-54.0524
 30
0.00000
  70
    32
  0
VERTEX
  8
LAYER2
  5
77F
 10
756.012
 20
-53.9061
 30
0.00000
  70
    32
  0
VERTEX
  8
LAYER2
  5
780
 10
756.716
 20
-53.7524
 30
0.00000
  70
    32
  0
VERTEX
  8
LAYER2
  5
781
 10
757.418
 20
-53.5903
 30
0.00000
  70
    32
  0
VERTEX
  8
LAYER2
  5
782
 10
758.120
 20
-53.4190
 30
0.00000
  70
    32
  0
VERTEX
  8
LAYER2
  5
783
 10
758.820
 20
-53.2376
 30
0.00000
  70
    32
  0
VERTEX
  8
LAYER2
  5
784
 10
759.519
 20
-53.0452
 30
0.00000
  70
    32
  0
VERTEX
  8
LAYER2
  5
785
 10
760.216
 20
-52.8409
 30
0.00000
  70
    32
  0
VERTEX
  8
LAYER2
  5
786
 10
760.912
 20
-52.6239
 30
0.00000
  70
    32
  0
VERTEX
  8
LAYER2
  5
787
 10
761.605
 20
-52.3933
 30
0.00000
  70
    32
  0
VERTEX
  8
LAYER2
  5
788
 10
762.297
 20
-52.1482
 30
0.00000
  70
    32
  0
VERTEX
  8
LAYER2
  5
789
 10
762.987
 20
-51.8876
 30
0.00000
  70
    32
  0
VERTEX
  8
LAYER2
  5
78A
 10
763.674
 20
-51.6109
 30
0.00000
  70
    32
  0
VERTEX
  8
LAYER2
  5
78B
 10
764.359
 20
-51.3170
 30
0.00000
  70
    32
  0
VERTEX
  8
LAYER2
  5
78C
 10
765.042
 20
-51.0051
 30
0.00000
  70
    32
  0
VERTEX
  8
LAYER2
  5
78D
 10
765.722
 20
-50.6743
 30
0.00000
  70
    32
  0
VERTEX
  8
LAYER2
  5
78E
 10
766.400
 20
-50.3237
 30
0.00000
  70
    32
  0
VERTEX
  8
LAYER2
  5
78F
 10
767.075
 20
-49.9525
 30
0.00000
  70
    32
  0
VERTEX
  8
LAYER2
  5
790
 10
767.747
 20
-49.5597
 30
0.00000
  70
    32
  0
VERTEX
  8
LAYER2
  5
791
 10
768.416
 20
-49.1446
 30
0.00000
  70
    32
  0
VERTEX
  8
LAYER2
  5
792
 10
769.082
 20
-48.7061
 30
0.00000
  70
    32
  0
VERTEX
  8
LAYER2
  5
793
 10
769.745
 20
-48.2435
 30
0.00000
  70
    32
  0
VERTEX
  8
LAYER2
  5
794
 10
770.404
 20
-47.7558
 30
0.00000
  70
    32
  0
VERTEX
  8
LAYER2
  5
795
 10
771.060
 20
-47.2423
 30
0.00000
  70
    32
  0
VERTEX
  8
LAYER2
  5
796
 10
771.712
 20
-46.7019
 30
0.00000
  70
    32
  0
VERTEX
  8
LAYER2
  5
797
 10
772.361
 20
-46.1338
 30
0.00000
  70
    32
  0
VERTEX
  8
LAYER2
  5
798
 10
773.006
 20
-45.5372
 30
0.00000
  70
    32
  0
VERTEX
  8
LAYER2
  5
799
 10
773.647
 20
-44.9111
 30
0.00000
  70
    32
  0
VERTEX
  8
LAYER2
  5
79A
 10
774.284
 20
-44.2548
 30
0.00000
  70
    32
  0
VERTEX
  8
LAYER2
  5
79B
 10
774.917
 20
-43.5672
 30
0.00000
  70
    32
  0
VERTEX
  8
LAYER2
  5
79C
 10
775.545
 20
-42.8475
 30
0.00000
  70
    32
  0
VERTEX
  8
LAYER2
  5
79D
 10
776.169
 20
-42.0950
 30
0.00000
  70
    32
  0
VERTEX
  8
LAYER2
  5
79E
 10
776.789
 20
-41.3085
 30
0.00000
  70
    32
  0
VERTEX
  8
LAYER2
  5
79F
 10
777.404
 20
-40.4874
 30
0.00000
  70
    32
  0
VERTEX
  8
LAYER2
  5
7A0
 10
778.014
 20
-39.6307
 30
0.00000
  70
    32
  0
VERTEX
  8
LAYER2
  5
7A1
 10
778.619
 20
-38.7375
 30
0.00000
  70
    32
  0
VERTEX
  8
LAYER2
  5
7A2
 10
779.219
 20
-37.8069
 30
0.00000
  70
    32
  0
VERTEX
  8
LAYER2
  5
7A3
 10
779.815
 20
-36.8381
 30
0.00000
  70
    32
  0
VERTEX
  8
LAYER2
  5
7A4
 10
780.405
 20
-35.8303
 30
0.00000
  70
    32
  0
VERTEX
  8
LAYER2
  5
7A5
 10
780.989
 20
-34.7824
 30
0.00000
  70
    32
  0
VERTEX
  8
LAYER2
  5
7A6
 10
781.569
 20
-33.6937
 30
0.00000
  70
    32
  0
VERTEX
  8
LAYER2
  5
7A7
 10
782.142
 20
-32.5632
 30
0.00000
  70
    32
  0
VERTEX
  8
LAYER2
  5
7A8
 10
782.710
 20
-31.3902
 30
0.00000
  70
    32
  0
VERTEX
  8
LAYER2
  5
7A9
 10
783.272
 20
-30.1736
 30
0.00000
  70
    32
  0
VERTEX
  8
LAYER2
  5
7AA
 10
783.829
 20
-28.9126
 30
0.00000
  70
    32
  0
VERTEX
  8
LAYER2
  5
7AB
 10
784.379
 20
-27.6064
 30
0.00000
  70
    32
  0
VERTEX
  8
LAYER2
  5
7AC
 10
784.923
 20
-26.2541
 30
0.00000
  70
    32
  0
VERTEX
  8
LAYER2
  5
7AD
 10
785.461
 20
-24.8547
 30
0.00000
  70
    32
  0
VERTEX
  8
LAYER2
  5
7AE
 10
785.992
 20
-23.4075
 30
0.00000
  70
    32
  0
VERTEX
  8
LAYER2
  5
7AF
 10
786.517
 20
-21.9115
 30
0.00000
  70
    32
  0
VERTEX
  8
LAYER2
  5
7B0
 10
787.036
 20
-20.3658
 30
0.00000
  70
    32
  0
VERTEX
  8
LAYER2
  5
7B1
 10
787.547
 20
-18.7696
 30
0.00000
  70
    32
  0
VERTEX
  8
LAYER2
  5
7B2
 10
788.052
 20
-17.1220
 30
0.00000
  70
    32
  0
VERTEX
  8
LAYER2
  5
7B3
 10
788.550
 20
-15.4221
 30
0.00000
  70
    32
  0
VERTEX
  8
LAYER2
  5
7B4
 10
789.040
 20
-13.6691
 30
0.00000
  70
    32
  0
VERTEX
  8
LAYER2
  5
7B5
 10
789.524
 20
-11.8620
 30
0.00000
  70
    32
  0
VERTEX
  8
LAYER2
  5
7B6
 10
790.000
 20
-10.0000
 30
0.00000
  70
    32
  0
SEQEND
  8
LAYER2
  5
7B7
  0
TEXT
  5
28F
  8
LAYER2
 10
813.8949522510230281
 20
-52.5
 30
0.0
 40
5.0
  1
This is a single line text
  7
MYTEXTSTYLE
 72
     1
 11
850.0
 21
-50.0
 31
0.0
 73
     2
  0
LINE
  5
2AA
  8
ENTITYPROPERTIES
  6
DASHED
 10
0.0
 20
-200.0
 30
0.0
 11
100.0
 21
-100.0
 31
0.0
  0
LINE
  5
2AB
  8
ENTITYPROPERTIES
 62
     1
 10
100.0
 20
-200.0
 30
0.0
 11
200.0
 21
-100.0
 31
0.0
  0
LINE
  5
2AC
  8
ENTITYPROPERTIES
 10
300.0
 20
-200.0
 30
0.0
 11
400.0
 21
-100.0
 31
0.0
  0
LINE
  5
2B1
  8
ENTITYPROPERTIES
 62
   200
 10
200.0
 20
-200.0
 30
0.0
 11
300.0
 21
-100.0
 31
0.0
  0
INSERT
  5
3A8
  8
0
  2
*U6
 10
0.0
 20
0.0
 30
0.0
  0
INSERT
  5
3A9
  8
0
  2
*U7
 10
0.0
 20
0.0
 30
0.0
  0
LINE
  5
3CD
  8
GROUPS
 10
400.0
 20
-200.0
 30
0.0
 11
500.0
 21
-100.0
 31
0.0
  0
LINE
  5
3CE
  8
GROUPS
 10
500.0
 20
-200.0
 30
0.0
 11
600.0
 21
-100.0
 31
0.0
  0
LINE
  5
3CF
  8
GROUPS
 10
600.0
 20
-200.0
 30
0.0
 11
700.0
 21
-100.0
 31
0.0
  0
LINE
  5
3D0
  8
GROUPS
 62
     2
 10
700.0
 20
-200.0
 30
0.0
 11
800.0
 21
-100.0
 31
0.0
  0
LINE
  5
3D1
  8
GROUPS
 62
     2
 10
800.0
 20
-200.0
 30
0.0
 11
900.0
 21
-100.0
 31
0.0
  0
INSERT
  5
3E0
  8
0
  6
CONTINUOUS
  2
*U8
 10
0.0
 20
0.0
 30
0.0
1001
GRADIENTCOLOR1ACI
1070
   165
1001
ACAD
1002
{
1000
R14_HATCH_DATA
1000
3E0
1011
1.0
1021
0.0
1031
0.0
1021
0.0
1031
0.0
1011
0.0
1021
0.0
1031
0.0
1021
1.0
1031
0.0
1011
0.0
1021
0.0
1031
0.0
1021
0.0
1031
1.0
1040
0.0
1010
0.0
1020
0.0
1030
1.0
1000
SOLID
1070
     1
1070
     0
1071
        1
1071
        1
1071
        4
1070
     1
1040
0.0
1040
-350.0
1040
100.0
1040
-350.0
1070
     1
1040
100.0
1040
-350.0
1040
100.0
1040
-250.0
1070
     1
1040
100.0
1040
-250.0
1040
0.0
1040
-250.0
1070
     1
1040
0.0
1040
-250.0
1040
0.0
1040
-350.0
1071
        0
1070
     0
1070
     1
1071
        1
1040
-950.0
1040
-150.0
1040
0.0
1002
}
  0
INSERT
  5
3E1
  8
0
  6
CONTINUOUS
  2
*U9
 10
0.0
 20
0.0
 30
0.0
1001
GRADIENTCOLOR1ACI
1070
   165
1001
ACAD
1002
{
1000
R14_HATCH_DATA
1000
3E1
1011
1.0
1021
0.0
1031
0.0
1021
0.0
1031
0.0
1011
0.0
1021
0.0
1031
0.0
1021
1.0
1031
0.0
1011
0.0
1021
0.0
1031
0.0
1021
0.0
1031
1.0
1040
0.0
1010
0.0
1020
0.0
1030
1.0
1000
SOLID
1070
     1
1070
     0
1071
        1
1071
        1
1071
        4
1070
     1
1040
150.0
1040
-350.0
1040
250.0
1040
-350.0
1070
     1
1040
250.0
1040
-350.0
1040
250.0
1040
-250.0
1070
     1
1040
250.0
1040
-250.0
1040
150.0
1040
-250.0
1070
     1
1040
150.0
1040
-250.0
1040
150.0
1040
-350.0
1071
        0
1070
     0
1070
     1
1071
        1
1040
-800.0
1040
-150.0
1040
0.0
1002
}
  0
ENDSEC
  0
EOF
